G04 ================== begin FILE IDENTIFICATION RECORD ==================*
G04 Layout Name:  E:/PCB/LED/LED_V1.0-1012.brd*
G04 Film Name:    BOTTOM*
G04 File Format:  Gerber RS274X*
G04 File Origin:  Cadence Allegro 16.6-2015-S108*
G04 Origin Date:  Fri Oct 12 22:50:05 2018*
G04 *
G04 Layer:  BOARD GEOMETRY/OUTLINE*
G04 Layer:  VIA CLASS/BOTTOM*
G04 Layer:  PIN/BOTTOM*
G04 Layer:  ETCH/BOTTOM*
G04 *
G04 Offset:    (0.000 0.000)*
G04 Mirror:    No*
G04 Mode:      Positive*
G04 Rotation:  0*
G04 FullContactRelief:  No*
G04 UndefLineWidth:     8.000*
G04 ================== end FILE IDENTIFICATION RECORD ====================*
%FSLAX55Y55*MOIN*%
%IR0*IPPOS*OFA0.00000B0.00000*MIA0B0*SFA1.00000B1.00000*%
%ADD20C,.18*%
%ADD10C,.23622*%
%ADD24R,.15748X.07874*%
%ADD23R,.07874X.15748*%
%ADD15R,.04X.05*%
%ADD17R,.05X.04*%
%ADD13C,.04*%
%ADD21C,.06*%
%ADD12C,.024*%
%ADD14C,.07*%
%ADD19C,.026*%
%ADD22R,.06X.06*%
%ADD16R,.07X.07*%
%ADD18R,.026X.026*%
%ADD11R,.03228X.03228*%
%ADD25C,.008*%
%ADD26C,.01*%
%ADD27C,.02*%
%ADD28C,.03*%
%ADD29C,.094004*%
G75*
%LPD*%
G75*
G36*
G01X11063Y248563D02*
X10063Y247563D01*
X5563D01*
X4563Y248563D01*
Y259063D01*
X5563Y260063D01*
X10063D01*
X11063Y259063D01*
Y248563D01*
G37*
G36*
G01X49063Y454563D02*
X53063Y450563D01*
Y276563D01*
X52063Y275563D01*
X14563D01*
X12063Y278063D01*
Y452563D01*
X14063Y454563D01*
X49063D01*
G37*
G36*
G01X11017Y438562D02*
X10017Y437562D01*
X5517D01*
X4517Y438562D01*
Y449062D01*
X5517Y450062D01*
X10017D01*
X11017Y449062D01*
Y438562D01*
G37*
G36*
G01X14563Y85563D02*
X12563Y87563D01*
Y265563D01*
X13563Y266563D01*
X48813D01*
X52813Y262563D01*
Y95035D01*
X52795D01*
Y90834D01*
X52813D01*
Y87313D01*
X51063Y85563D01*
X14563D01*
G37*
G36*
G01X154063Y494063D02*
X151813Y496313D01*
Y529813D01*
X153063Y531063D01*
X316563D01*
X318063Y529563D01*
Y496063D01*
X316063Y494063D01*
X160663D01*
X156463Y494063D01*
X154063Y494063D01*
G37*
G36*
G01X300562Y532609D02*
X299562Y533609D01*
Y538109D01*
X300562Y539109D01*
X311062D01*
X312062Y538109D01*
Y533609D01*
X311062Y532609D01*
X300562D01*
G37*
G36*
G01X508063Y495563D02*
X506063Y493563D01*
X344063D01*
X341813Y495813D01*
Y527813D01*
X345063Y531063D01*
X507063D01*
X508063Y530063D01*
Y495563D01*
G37*
G36*
G01X490562Y532609D02*
X489562Y533609D01*
Y538109D01*
X490562Y539109D01*
X501062D01*
X502062Y538109D01*
Y533609D01*
X501062Y532609D01*
X490562D01*
G37*
%LPC*%
G75*
G54D29*
X27559Y283085D03*
Y298085D03*
Y313085D03*
Y343085D03*
Y328085D03*
Y358085D03*
Y373085D03*
Y403085D03*
Y388085D03*
Y418085D03*
Y433085D03*
Y448085D03*
Y93085D03*
Y108085D03*
Y138085D03*
Y123085D03*
Y153085D03*
Y168085D03*
Y198085D03*
Y183085D03*
Y213085D03*
Y228085D03*
Y258085D03*
Y243085D03*
X158713Y515748D03*
X173713D03*
X188713D03*
X203713D03*
X218713D03*
X233713D03*
X248713D03*
X263713D03*
X278713D03*
X293713D03*
X308713D03*
X363713D03*
X348713D03*
X378713D03*
X393713D03*
X423713D03*
X408713D03*
X438713D03*
X453713D03*
X483713D03*
X468713D03*
X498713D03*
%LPD*%
G75*
G54D10*
X19685Y19685D03*
Y523622D03*
X523622Y19685D03*
Y523622D03*
G54D11*
X8195Y257435D03*
X13895Y447935D03*
X7695D03*
X14395Y257435D03*
X309063Y529412D03*
Y535612D03*
X499063Y529412D03*
Y535612D03*
G54D20*
X505905Y172530D03*
Y270956D03*
G54D12*
X9563Y252563D03*
X9649Y249564D03*
X6563Y249563D03*
Y252563D03*
X9063Y443063D03*
X9149Y440064D03*
X6063Y440063D03*
Y443063D03*
X62095Y92935D03*
X63095Y257935D03*
X62595Y282935D03*
X62863Y448063D03*
X114835Y96835D03*
X114791Y111835D03*
Y126835D03*
X115063Y156835D03*
Y141835D03*
X115335Y171835D03*
X115291Y216835D03*
X115335Y231835D03*
Y246835D03*
X114835Y261835D03*
X115335Y286835D03*
X116291Y301835D03*
X115791Y346835D03*
X115835Y361835D03*
X116335Y376835D03*
X115791Y391835D03*
X115835Y406835D03*
Y421835D03*
X133563Y94193D03*
X133513Y101693D03*
X137213Y113413D03*
X148563Y94193D03*
X148513Y101693D03*
X152213Y113413D03*
X138563Y180078D03*
X152933Y203063D03*
X138063Y283063D03*
X153433Y305063D03*
X157433Y420063D03*
X141563Y405063D03*
X150933Y420433D03*
X163563Y94193D03*
X163513Y101693D03*
X167213Y113413D03*
X171433Y137693D03*
X172433Y202933D03*
X167563Y213033D03*
X165933Y203063D03*
X159433D03*
X171193Y241933D03*
X166433Y305063D03*
X172933Y305563D03*
X176933D03*
X159933Y305063D03*
X167193Y362193D03*
X163933Y420063D03*
X172933D03*
X176933D03*
X158563Y484563D03*
X178563Y94193D03*
X193563D03*
X178513Y101693D03*
X193513D03*
X197213Y113413D03*
X182213D03*
X182563Y140063D03*
X194563Y160063D03*
X190563Y168563D03*
X184563D03*
X178933Y202733D03*
Y217063D03*
X194433Y261193D03*
X182363Y245593D03*
X194433Y267193D03*
X184433Y271433D03*
X183107Y362093D03*
X190433Y373563D03*
Y387063D03*
X184433D03*
X208563Y94193D03*
X208513Y101693D03*
X212213Y113413D03*
X223563Y94193D03*
X238563D03*
X223513Y101693D03*
X238513D03*
X227213Y113413D03*
X225693Y237693D03*
Y231193D03*
X239433Y257063D03*
X228043Y243693D03*
Y248693D03*
Y253693D03*
X238563Y243063D03*
X238693Y249693D03*
X238063Y270363D03*
X228063Y279563D03*
X232063Y270563D03*
X228063Y271563D03*
Y275362D03*
X238043Y297933D03*
X237563Y293563D03*
X228063Y283563D03*
Y288063D03*
X232563Y289063D03*
X237063Y288563D03*
X253563Y94193D03*
X253513Y101693D03*
X257213Y113413D03*
X242213D03*
X245933Y256563D03*
X243563Y270363D03*
X249593Y272843D03*
X244063Y288563D03*
X249563Y288966D03*
X246193Y309933D03*
X242693Y310433D03*
X246063Y305563D03*
X258693Y336093D03*
X254933Y326693D03*
X268563Y94193D03*
X268513Y101693D03*
X272213Y113413D03*
X267063Y235063D03*
X261193D03*
X266063Y249563D03*
X261193Y248063D03*
X262563Y272063D03*
X262457Y290669D03*
X267110Y310563D03*
X264563Y336063D03*
X275193Y360563D03*
X268693D03*
X283563Y94193D03*
X298563D03*
X283513Y101693D03*
X298513D03*
X287213Y113413D03*
Y127563D03*
X287563Y131063D03*
X288063Y134563D03*
Y138063D03*
Y141563D03*
Y145063D03*
Y148563D03*
X288764Y154563D03*
X291563Y159063D03*
X295063Y162063D03*
Y165563D03*
X300563D03*
X305563Y158563D03*
X308563Y155063D03*
X312063Y151563D03*
X315563Y148063D03*
X318563Y144563D03*
X303063Y162063D03*
X313193Y235193D03*
X319193D03*
X310418Y258563D03*
X319193Y248933D03*
X315389Y346737D03*
X308563Y484263D03*
X304563Y537563D03*
X304649Y534564D03*
X301563Y534563D03*
Y537563D03*
X323563Y94193D03*
X338563D03*
X323513Y101693D03*
X338513D03*
X325063Y137563D03*
X327063Y134063D03*
X322063Y141063D03*
X327063Y285063D03*
X323563Y285096D03*
X324563Y306418D03*
X340593Y314693D03*
Y320693D03*
X327693D03*
X353563Y94193D03*
X353513Y101693D03*
X357213Y113413D03*
X351485Y270985D03*
X347063Y292563D03*
X343163Y284563D03*
X347063Y289313D03*
X343163Y298149D03*
X349793Y312333D03*
X348563Y483763D03*
X368563Y94193D03*
X368513Y101693D03*
X372213Y113413D03*
X383563Y94193D03*
X398563D03*
X383513Y101693D03*
X398513D03*
X402213Y113413D03*
X387213D03*
X413563Y94193D03*
X413513Y101693D03*
X417213Y113413D03*
X422433Y232693D03*
X412350Y358433D03*
Y373433D03*
Y365933D03*
X428563Y94193D03*
X443563D03*
X428513Y101693D03*
X443513D03*
X432213Y113413D03*
X437933Y206693D03*
X429933Y232693D03*
X430677Y341063D03*
X430463Y330463D03*
X426063Y361563D03*
Y358563D03*
X429063D03*
Y361563D03*
X432063D03*
Y358563D03*
X426063Y373563D03*
Y370563D03*
Y367563D03*
Y364563D03*
X429063D03*
Y367563D03*
Y370563D03*
Y373563D03*
X432063D03*
Y370563D03*
Y367563D03*
Y364563D03*
X458563Y94193D03*
X458513Y101693D03*
X462213Y113413D03*
X447213D03*
X456496Y254063D03*
Y248063D03*
X450063Y318063D03*
X463250Y314063D03*
X463563Y343063D03*
Y340063D03*
Y337063D03*
X473563Y94193D03*
X473513Y101693D03*
X477213Y113413D03*
X484793Y219563D03*
X472563Y235063D03*
X484793Y234563D03*
X469996Y254063D03*
X480250Y314063D03*
X471750D03*
X478563Y340063D03*
X475563D03*
X481563D03*
X466563Y343063D03*
Y340063D03*
X475563Y337063D03*
X478563D03*
Y343063D03*
X475563D03*
X481563Y337063D03*
Y343063D03*
X472563Y337063D03*
X469563D03*
X466563D03*
X469563Y340063D03*
X472563Y343063D03*
Y340063D03*
X469563Y343063D03*
X475563Y368063D03*
Y364063D03*
X488563Y94193D03*
X488513Y101693D03*
X492213Y113413D03*
X488563Y229063D03*
Y225563D03*
X498563Y483563D03*
X494649Y534564D03*
X491563Y534563D03*
X494563Y537563D03*
X491563D03*
G54D21*
X500315Y199932D03*
Y210837D03*
Y221743D03*
Y232649D03*
X511496Y205385D03*
Y216290D03*
Y227196D03*
Y238101D03*
G54D22*
X500315Y243554D03*
G54D13*
X34063Y34563D03*
X34563Y508563D03*
X520063Y502063D03*
G54D14*
X27559Y93085D03*
Y108085D03*
Y138085D03*
Y123085D03*
Y153085D03*
Y168085D03*
Y198085D03*
Y183085D03*
Y213085D03*
Y228085D03*
Y258085D03*
Y243085D03*
Y283085D03*
Y298085D03*
Y313085D03*
Y343085D03*
Y328085D03*
Y358085D03*
Y373085D03*
Y403085D03*
Y388085D03*
Y418085D03*
Y433085D03*
Y448085D03*
X77165Y108085D03*
Y123085D03*
Y138085D03*
Y153085D03*
Y168085D03*
Y183085D03*
Y198085D03*
Y213085D03*
Y228085D03*
Y243085D03*
Y258085D03*
Y298085D03*
Y313085D03*
Y343085D03*
Y328085D03*
Y358085D03*
Y373085D03*
Y403085D03*
Y388085D03*
Y418085D03*
Y433085D03*
Y448085D03*
X143413Y27559D03*
X158413D03*
Y77165D03*
X143413D03*
X158713Y466142D03*
X143713Y515748D03*
X158713D03*
X173413Y27559D03*
Y77165D03*
X173713Y466142D03*
Y515748D03*
X188413Y27559D03*
Y77165D03*
X188713Y466142D03*
Y515748D03*
X203413Y27559D03*
X218413D03*
Y77165D03*
X203413D03*
X203713Y466142D03*
X218713D03*
Y515748D03*
X203713D03*
X233413Y27559D03*
Y77165D03*
X242433Y195693D03*
Y205693D03*
Y215693D03*
X233713Y466142D03*
Y515748D03*
X248413Y27559D03*
Y77165D03*
X248713Y466142D03*
Y515748D03*
X263413Y27559D03*
X278413D03*
Y77165D03*
X263413D03*
X263713Y466142D03*
X278713D03*
Y515748D03*
X263713D03*
X293413Y27559D03*
Y77165D03*
X293713Y466142D03*
Y515748D03*
X308413Y27559D03*
X308713Y466142D03*
Y515748D03*
X333413Y27559D03*
Y77165D03*
X333713Y515748D03*
X348413Y27559D03*
X363413D03*
X348413Y77165D03*
X363413D03*
X350193Y330193D03*
X360193D03*
X363713Y466142D03*
X348713D03*
X363713Y515748D03*
X348713D03*
X378413Y27559D03*
Y77165D03*
X370193Y330193D03*
X378713Y466142D03*
Y515748D03*
X393413Y27559D03*
Y77165D03*
X393713Y466142D03*
Y515748D03*
X408413Y27559D03*
X423413D03*
X408413Y77165D03*
X423413D03*
X423713Y466142D03*
X408713D03*
X423713Y515748D03*
X408713D03*
X438413Y27559D03*
Y77165D03*
X438713Y466142D03*
Y515748D03*
X453413Y27559D03*
Y77165D03*
X453713Y466142D03*
Y515748D03*
X468413Y27559D03*
X483413D03*
X468413Y77165D03*
X483413D03*
X483713Y466142D03*
X468713D03*
X483713Y515748D03*
X468713D03*
X498413Y27559D03*
X498713Y466142D03*
Y515748D03*
G54D23*
X489697Y340551D03*
X514500D03*
G54D15*
X50295Y92935D03*
X51295Y257935D03*
X50795Y282935D03*
X51063Y448063D03*
X58295Y92935D03*
X59295Y257935D03*
X58795Y282935D03*
X59063Y448063D03*
G54D24*
X501902Y359055D03*
G54D25*
G01X347063Y292563D02*
X343163Y288663D01*
Y284563D01*
G01X347063Y289313D02*
X349563Y291813D01*
Y294563D01*
X345977Y298149D01*
X343163D01*
G01X484793Y219563D02*
X487063D01*
X491063Y223563D01*
Y226563D01*
X488563Y229063D01*
G01Y225563D02*
X484793Y229333D01*
Y234563D01*
G01X0Y0D02*
Y543307D01*
X543307D01*
Y0D01*
X0D01*
G01D02*
Y543307D01*
X543307D01*
Y0D01*
X0D01*
G54D16*
X77165Y93085D03*
Y283085D03*
X143713Y466142D03*
X308413Y77165D03*
X333713Y466142D03*
X498413Y77165D03*
G54D26*
G01X295063Y162063D02*
X200863D01*
X152213Y113413D01*
G01X295063Y165563D02*
X189363D01*
X137213Y113413D01*
G01X291563Y159063D02*
X212863D01*
X167213Y113413D01*
G01X172433Y202933D02*
Y229193D01*
X165306Y236320D01*
Y294931D01*
X172898Y302359D01*
X172933Y305563D01*
G01X327063Y285063D02*
X324563Y282563D01*
X287063D01*
X204063Y199563D01*
X175803D01*
X172433Y202933D01*
G01X176933Y305563D02*
Y302433D01*
X168563Y294063D01*
Y238563D01*
X176063Y231063D01*
Y205603D01*
X178933Y202733D01*
G01X172933Y305563D02*
Y420063D01*
G01X288764Y154563D02*
X217863D01*
X182213Y118913D01*
Y113413D01*
G01X323563Y285096D02*
X285596D01*
X203233Y202733D01*
X178933D01*
G01X176933Y420063D02*
Y305563D01*
G01X288063Y145063D02*
X243863D01*
X212213Y113413D01*
G01X288063Y148563D02*
X232363D01*
X197213Y113413D01*
G01X288063Y141563D02*
X255363D01*
X227213Y113413D01*
G01X288063Y134563D02*
X278363D01*
X257213Y113413D01*
G01X288063Y138063D02*
X266863D01*
X242213Y113413D01*
G01X287563Y131063D02*
X284563D01*
X272213Y118713D01*
Y113413D01*
G01X287213D02*
Y127563D01*
G01X308563Y155063D02*
X405563D01*
X447213Y113413D01*
G01X312063Y151563D02*
X394063D01*
X432213Y113413D01*
G01X315563Y148063D02*
X382563D01*
X417213Y113413D01*
G01X318563Y144563D02*
X371063D01*
X402213Y113413D01*
G01X300563Y165563D02*
X440063D01*
X492213Y113413D01*
G01X303063Y162063D02*
X428563D01*
X477213Y113413D01*
G01X305563Y158563D02*
X417063D01*
X462213Y113413D01*
G01X327063Y134063D02*
X336563D01*
X357213Y113413D01*
G01X322063Y141063D02*
X359563D01*
X387213Y113413D01*
G01X325063Y137563D02*
X348063D01*
X372213Y113413D01*
G54D17*
X158563Y496563D03*
Y488563D03*
X308563Y496063D03*
Y488063D03*
X348563Y495563D03*
Y487563D03*
X498563Y495563D03*
Y487563D03*
G54D27*
G01X58295Y92935D02*
X62095D01*
G01X59295Y257935D02*
X63095D01*
G01X58795Y282935D02*
X62595D01*
G01X59063Y448063D02*
X62863D01*
G01X158563Y488563D02*
Y484563D01*
G01X308563Y488063D02*
Y484263D01*
G01X348563Y487563D02*
Y483763D01*
G01X498563Y487563D02*
Y483563D01*
G54D18*
X235193Y307465D03*
G54D28*
G01X27559Y88085D02*
Y93085D01*
G01D02*
Y98085D01*
G01X22559Y93085D02*
X27559D01*
G01D02*
X32559D01*
G01X27559Y103084D02*
Y108085D01*
G01D02*
Y113085D01*
G01X22559Y108085D02*
X27559D01*
G01D02*
X32559D01*
G01X27559Y118085D02*
Y123085D01*
G01D02*
Y128085D01*
G01X22559Y123085D02*
X27559D01*
G01D02*
X32559D01*
G01X27559Y133084D02*
Y138085D01*
G01Y148084D02*
Y153085D01*
G01D02*
Y158085D01*
G01X22559Y153085D02*
X27559D01*
G01D02*
X32559D01*
G01X27559Y138085D02*
Y143085D01*
G01X22559Y138085D02*
X27559D01*
G01D02*
X32559D01*
G01X27559Y178084D02*
Y183085D01*
G01Y163084D02*
Y168085D01*
G01D02*
Y173085D01*
G01X22559Y168085D02*
X27559D01*
G01D02*
X32559D01*
G01X27559Y183085D02*
Y188085D01*
G01X22559Y183085D02*
X27559D01*
G01D02*
X32559D01*
G01X27559Y193084D02*
Y198085D01*
G01D02*
Y203085D01*
G01X22559Y198085D02*
X27559D01*
G01D02*
X32559D01*
G01X27559Y208084D02*
Y213085D01*
G01D02*
Y218085D01*
G01X22559Y213085D02*
X27559D01*
G01D02*
X32559D01*
G01X27559Y238084D02*
Y243085D01*
G01Y223084D02*
Y228085D01*
G01D02*
Y233085D01*
G01X22559Y228085D02*
X27559D01*
G01D02*
X32559D01*
G01X27559Y243085D02*
Y248085D01*
G01X22559Y243085D02*
X27559D01*
G01D02*
X32559D01*
G01X27559Y253084D02*
Y258085D01*
G01D02*
Y263085D01*
G01X22559Y258085D02*
X27559D01*
G01D02*
X32559D01*
G01X27559Y278084D02*
Y283085D01*
G01Y293084D02*
Y298085D01*
G01D02*
Y303085D01*
G01X22559Y298085D02*
X27559D01*
G01D02*
X32559D01*
G01X27559Y283085D02*
Y288085D01*
G01X22559Y283085D02*
X27559D01*
G01D02*
X32559D01*
G01X27559Y308084D02*
Y313085D01*
G01D02*
Y318085D01*
G01X22559Y313085D02*
X27559D01*
G01D02*
X32559D01*
G01X27559Y323084D02*
Y328085D01*
G01D02*
Y333085D01*
G01X22559Y328085D02*
X27559D01*
G01D02*
X32559D01*
G01X27559Y338084D02*
Y343085D01*
G01Y353084D02*
Y358085D01*
G01D02*
Y363085D01*
G01X22559Y358085D02*
X27559D01*
G01D02*
X32559D01*
G01X27559Y343085D02*
Y348085D01*
G01X22559Y343085D02*
X27559D01*
G01D02*
X32559D01*
G01X27559Y383084D02*
Y388085D01*
G01Y368084D02*
Y373085D01*
G01D02*
Y378085D01*
G01X22559Y373085D02*
X27559D01*
G01D02*
X32559D01*
G01X27559Y388085D02*
Y393085D01*
G01X22559Y388085D02*
X27559D01*
G01D02*
X32559D01*
G01X27559Y398084D02*
Y403085D01*
G01D02*
Y408085D01*
G01X22559Y403085D02*
X27559D01*
G01D02*
X32559D01*
G01X27559Y413085D02*
Y418085D01*
G01D02*
Y423085D01*
G01X22559Y418085D02*
X27559D01*
G01D02*
X32559D01*
G01X27559Y443085D02*
Y448085D01*
G01Y428084D02*
Y433085D01*
G01D02*
Y438085D01*
G01X22559Y433085D02*
X27559D01*
G01D02*
X32559D01*
G01X27559Y448085D02*
Y453085D01*
G01X22559Y448085D02*
X27559D01*
G01D02*
X32559D01*
G01X153713Y515748D02*
X158713D01*
G01Y510748D02*
Y515748D01*
G01D02*
Y520748D01*
G01Y515748D02*
X163713D01*
G01X188713Y510748D02*
Y515748D01*
G01D02*
Y520748D01*
G01X183713Y515748D02*
X188713D01*
G01D02*
X193713D01*
G01X213713D02*
X218713D01*
G01Y510748D02*
Y515748D01*
G01D02*
Y520748D01*
G01Y515748D02*
X223713D01*
G01X248713Y510748D02*
Y515748D01*
G01D02*
Y520748D01*
G01X243713Y515748D02*
X248713D01*
G01D02*
X253713D01*
G01X278713Y510748D02*
Y515748D01*
G01D02*
Y520748D01*
G01X273713Y515748D02*
X278713D01*
G01D02*
X283713D01*
G01X308713Y510748D02*
Y515748D01*
G01D02*
Y520748D01*
G01X303713Y515748D02*
X308713D01*
G01D02*
X313713D01*
G01X348713Y510748D02*
Y515748D01*
G01D02*
Y520748D01*
G01X343713Y515748D02*
X348713D01*
G01D02*
X353713D01*
G01X378713Y510748D02*
Y515748D01*
G01D02*
Y520748D01*
G01X373713Y515748D02*
X378713D01*
G01D02*
X383713D01*
G01X408713Y510748D02*
Y515748D01*
G01D02*
Y520748D01*
G01X403713Y515748D02*
X408713D01*
G01D02*
X413713D01*
G01X438713Y510748D02*
Y515748D01*
G01D02*
Y520748D01*
G01X433713Y515748D02*
X438713D01*
G01D02*
X443713D01*
G01X463713D02*
X468713D01*
G01Y510748D02*
Y515748D01*
G01D02*
Y520748D01*
G01Y515748D02*
X473713D01*
G01X498713Y510748D02*
Y515748D01*
G01D02*
Y520748D01*
G01X493713Y515748D02*
X498713D01*
G01D02*
X503713D01*
G54D19*
X235193Y303921D03*
M02*
