G04 ================== begin FILE IDENTIFICATION RECORD ==================*
G04 Layout Name:  E:/PCB/LED/LED_V1.0-1012.brd*
G04 Film Name:    GND*
G04 File Format:  Gerber RS274X*
G04 File Origin:  Cadence Allegro 16.6-2015-S108*
G04 Origin Date:  Fri Oct 12 22:50:05 2018*
G04 *
G04 Layer:  VIA CLASS/GND*
G04 Layer:  PIN/GND*
G04 Layer:  ETCH/GND*
G04 Layer:  BOARD GEOMETRY/OUTLINE*
G04 *
G04 Offset:    (0.000 0.000)*
G04 Mirror:    No*
G04 Mode:      Positive*
G04 Rotation:  0*
G04 FullContactRelief:  No*
G04 UndefLineWidth:     8.000*
G04 ================== end FILE IDENTIFICATION RECORD ====================*
%FSLAX55Y55*MOIN*%
%IR0*IPPOS*OFA0.00000B0.00000*MIA0B0*SFA1.00000B1.00000*%
%ADD16C,.18*%
%ADD10C,.23622*%
%ADD20R,.15748X.07874*%
%ADD19R,.07874X.15748*%
%ADD17C,.06*%
%ADD11C,.024*%
%ADD12C,.07*%
%ADD15C,.026*%
%ADD18R,.06X.06*%
%ADD13R,.07X.07*%
%ADD14R,.026X.026*%
%ADD21C,.03*%
%ADD22C,.008*%
%ADD28C,.204004*%
%ADD25C,.260224*%
%ADD30C,.036004*%
%ADD24C,.084004*%
%ADD26C,.094004*%
%ADD29R,.084004X.084004*%
%ADD31R,.094004X.094004*%
%ADD27R,.181484X.102744*%
%ADD23R,.102744X.181484*%
G75*
%LPD*%
G75*
G36*
G01X4100Y438087D02*
G02X5041Y438581I600J0D01*
G03X7221Y438684I1022J1482D01*
G02X7992Y438685I386J-459D01*
G03X10522Y441229I1157J1379D01*
G02X10500Y441979I457J388D01*
G03X7938Y444468I-1437J1084D01*
G02X7188I-375J468D01*
G03X5041Y444545I-1125J-1405D01*
G02X4100Y445039I-341J494D01*
G01Y538907D01*
G02X4400Y539207I300J0D01*
G01X299402D01*
G02X299942Y538346I0J-600D01*
G03X300158Y536438I1621J-783D01*
G02Y535688I-468J-375D01*
G03X302721Y533184I1405J-1125D01*
G02X303492Y533185I386J-459D01*
G03X306022Y535729I1157J1379D01*
G02X306000Y536479I457J388D01*
G03X306184Y538346I-1437J1084D01*
G02X306724Y539207I540J261D01*
G01X489402D01*
G02X489942Y538346I0J-600D01*
G03X490158Y536438I1621J-783D01*
G02Y535688I-468J-375D01*
G03X492721Y533184I1405J-1125D01*
G02X493492Y533185I386J-459D01*
G03X496022Y535729I1157J1379D01*
G02X496000Y536479I457J388D01*
G03X496184Y538346I-1437J1084D01*
G02X496724Y539207I540J261D01*
G01X538907D01*
G02X539207Y538907I0J-300D01*
G01Y4400D01*
G02X538907Y4100I-300J0D01*
G01X4400D01*
G02X4100Y4400I0J300D01*
G01Y438087D01*
G37*
%LPC*%
G75*
G36*
G01X327162Y135860D02*
G02X325464Y134891I-99J-1797D01*
G03X324964Y135766I-533J276D01*
G02X326662Y136735I99J1797D01*
G03X327162Y135860I533J-276D01*
G37*
G36*
G01X243992Y200127D02*
G02X240874I-1559J-4434D01*
G03Y201259I-199J566D01*
G02Y210127I1559J4434D01*
G03Y211259I-199J566D01*
G02X243992I1559J4434D01*
G03Y210127I199J-566D01*
G02Y201259I-1559J-4434D01*
G03Y200127I199J-566D01*
G37*
G36*
G01X174433Y304568D02*
G02Y306558I-1500J995D01*
G03X175433I500J332D01*
G02Y304568I1500J-995D01*
G03X174433I-500J-332D01*
G37*
G36*
G01X354627Y328634D02*
G02Y331752I-4434J1559D01*
G03X355759I566J199D01*
G02X364627I4434J-1559D01*
G03X365759I566J199D01*
G02Y328634I4434J-1559D01*
G03X364627I-566J-199D01*
G02X355759I-4434J1559D01*
G03X354627I-566J-199D01*
G37*
G36*
G01X174433Y419068D02*
G02Y421058I-1500J995D01*
G03X175433I500J332D01*
G02Y419068I1500J-995D01*
G03X174433I-500J-332D01*
G37*
G36*
G01X288651Y129629D02*
G03X288563Y128754I363J-478D01*
G02X286125Y128997I-1350J-1191D01*
G03X286213Y129872I-363J478D01*
G02X286545Y132548I1350J1191D01*
G03X286670Y133423I-339J495D01*
G02X286831Y135876I1393J1140D01*
G03Y136751I-411J438D01*
G02Y139376I1232J1313D01*
G03Y140250I-411J438D01*
G02Y142876I1232J1313D01*
G03Y143750I-411J438D01*
G02Y146376I1232J1313D01*
G03Y147251I-411J438D01*
G02X289295I1232J1313D01*
G03Y146376I411J-438D01*
G02Y143750I-1232J-1313D01*
G03Y142876I411J-437D01*
G02Y140250I-1232J-1313D01*
G03Y139376I411J-438D01*
G02Y136751I-1232J-1312D01*
G03Y135876I411J-438D01*
G02X289081Y133078I-1232J-1312D01*
G03X288956Y132203I339J-495D01*
G02X288651Y129629I-1393J-1140D01*
G37*
G36*
G01X296295Y164250D02*
G03Y163376I411J-438D01*
G02X293831I-1232J-1312D01*
G03Y164250I-411J438D01*
G02X296295I1232J1313D01*
G37*
G36*
G01X489795Y227750D02*
G03Y226876I411J-438D01*
G02X487331I-1232J-1313D01*
G03Y227750I-411J438D01*
G02X489795I1232J1313D01*
G37*
G36*
G01X7688Y253968D02*
G03X8438I375J468D01*
G02X11000Y251479I1125J-1405D01*
G03X11022Y250729I479J-361D01*
G02X8492Y248185I-1372J-1165D01*
G03X7721Y248184I-386J-460D01*
G02X5158Y250688I-1158J1378D01*
G03Y251438I-468J375D01*
G02X7688Y253968I1405J1125D01*
G37*
G36*
G01X324887Y286315D02*
G03X325762Y286307I441J406D01*
G02X325739Y283843I1301J-1244D01*
G03X324864Y283852I-441J-406D01*
G02X324887Y286315I-1301J1244D01*
G37*
G36*
G01X348388Y291344D02*
G03Y290532I442J-406D01*
G02X345738I-1325J-1219D01*
G03Y291344I-442J406D01*
G02X348388I1325J1219D01*
G37*
G36*
G01X237693Y304964D02*
X237593Y304864D01*
Y304624D01*
X237603Y304585D01*
G02X232782I-2411J-664D01*
G01X232793Y304624D01*
Y304864D01*
X232693Y304964D01*
Y309965D01*
X237693D01*
Y304964D01*
G37*
G36*
G01X465438Y335658D02*
G03X464688I-375J-468D01*
G02X462158Y338188I-1125J1405D01*
G03Y338938I-468J375D01*
G02Y341188I1405J1125D01*
G03Y341938I-468J375D01*
G02X464688Y344468I1405J1125D01*
G03X465438I375J468D01*
G02X467688I1125J-1405D01*
G03X468438I375J468D01*
G02X470688I1125J-1405D01*
G03X471438I375J468D01*
G02X473688I1125J-1405D01*
G03X474438I375J468D01*
G02X476688I1125J-1405D01*
G03X477438I375J468D01*
G02X479688I1125J-1405D01*
G03X480438I375J468D01*
G02X482968Y341938I1125J-1405D01*
G03Y341188I468J-375D01*
G02Y338938I-1405J-1125D01*
G03Y338188I468J-375D01*
G02X480438Y335658I-1405J-1125D01*
G03X479688I-375J-468D01*
G02X477438I-1125J1405D01*
G03X476688I-375J-468D01*
G02X474438I-1125J1405D01*
G03X473688I-375J-468D01*
G02X471438I-1125J1405D01*
G03X470688I-375J-468D01*
G02X468438I-1125J1405D01*
G03X467688I-375J-468D01*
G02X465438I-1125J1405D01*
G37*
G36*
G01X427938Y357158D02*
G03X427188I-375J-468D01*
G02X424658Y359688I-1125J1405D01*
G03Y360438I-468J375D01*
G02Y362688I1405J1125D01*
G03Y363438I-468J375D01*
G02Y365688I1405J1125D01*
G03Y366438I-468J375D01*
G02Y368688I1405J1125D01*
G03Y369438I-468J375D01*
G02Y371688I1405J1125D01*
G03Y372438I-468J375D01*
G02X427188Y374968I1405J1125D01*
G03X427938I375J468D01*
G02X430188I1125J-1405D01*
G03X430938I375J468D01*
G02X433468Y372438I1125J-1405D01*
G03Y371688I468J-375D01*
G02Y369438I-1405J-1125D01*
G03Y368688I468J-375D01*
G02Y366438I-1405J-1125D01*
G03Y365688I468J-375D01*
G02Y363438I-1405J-1125D01*
G03Y362688I468J-375D01*
G02Y360438I-1405J-1125D01*
G03Y359688I468J-375D01*
G02X430938Y357158I-1405J-1125D01*
G03X430188I-375J-468D01*
G02X427938I-1125J1405D01*
G37*
G54D28*
X505905Y270956D03*
Y172530D03*
G54D25*
X523622Y19685D03*
X19685Y523622D03*
Y19685D03*
X523622Y523622D03*
G54D30*
X488513Y101693D03*
X492213Y113413D03*
X469996Y254063D03*
X484793Y234563D03*
Y219563D03*
X473513Y101693D03*
X477213Y113413D03*
X447213D03*
X458513Y101693D03*
X462213Y113413D03*
X429933Y232693D03*
X428513Y101693D03*
X443513D03*
X432213Y113413D03*
X413513Y101693D03*
X417213Y113413D03*
X383513Y101693D03*
X387213Y113413D03*
X398513Y101693D03*
X402213Y113413D03*
X368513Y101693D03*
X372213Y113413D03*
X349793Y312333D03*
X343163Y298149D03*
Y284563D03*
X351485Y270985D03*
X353513Y101693D03*
X357213Y113413D03*
X327693Y320693D03*
X322063Y141063D03*
X323513Y101693D03*
X338513D03*
X315389Y346737D03*
X319193Y248933D03*
X303063Y162063D03*
X318563Y144563D03*
X315563Y148063D03*
X312063Y151563D03*
X308563Y155063D03*
X305563Y158563D03*
X300563Y165563D03*
X291563Y159063D03*
X288764Y154563D03*
X287213Y113413D03*
X283513Y101693D03*
X298513D03*
X268693Y360563D03*
X261193Y248063D03*
X272213Y113413D03*
X268513Y101693D03*
X254933Y326693D03*
X246063Y305563D03*
X249563Y288966D03*
X245933Y256563D03*
X242213Y113413D03*
X257213D03*
X253513Y101693D03*
X238693Y249693D03*
X225693Y231193D03*
X227213Y113413D03*
X223513Y101693D03*
X238513D03*
X212213Y113413D03*
X208513Y101693D03*
X184433Y387063D03*
X183107Y362093D03*
X184433Y271433D03*
X182363Y245593D03*
X178933Y202733D03*
Y217063D03*
X184563Y168563D03*
X182563Y140063D03*
X182213Y113413D03*
X178513Y101693D03*
X197213Y113413D03*
X193513Y101693D03*
X159933Y305063D03*
X159433Y203063D03*
X165933D03*
X172433Y202933D03*
X167563Y213033D03*
X167213Y113413D03*
X163513Y101693D03*
X150933Y420433D03*
X153433Y305063D03*
X152933Y203063D03*
X152213Y113413D03*
X148513Y101693D03*
X133513D03*
X137213Y113413D03*
G54D24*
X511496Y238101D03*
Y227196D03*
Y216290D03*
Y205385D03*
X500315Y232649D03*
Y221743D03*
Y210837D03*
Y199932D03*
G54D26*
X498713Y515748D03*
Y466142D03*
X498413Y27559D03*
X468713Y515748D03*
X483713D03*
X468713Y466142D03*
X483713D03*
X483413Y77165D03*
X468413D03*
X483413Y27559D03*
X468413D03*
X453713Y515748D03*
Y466142D03*
X453413Y77165D03*
Y27559D03*
X438713Y515748D03*
Y466142D03*
X438413Y77165D03*
Y27559D03*
X408713Y515748D03*
X423713D03*
X408713Y466142D03*
X423713D03*
X423413Y77165D03*
X408413D03*
X423413Y27559D03*
X408413D03*
X393713Y515748D03*
Y466142D03*
X393413Y77165D03*
Y27559D03*
X378713Y515748D03*
Y466142D03*
X378413Y77165D03*
Y27559D03*
X348713Y515748D03*
X363713D03*
X348713Y466142D03*
X363713D03*
X363413Y77165D03*
X348413D03*
X363413Y27559D03*
X348413D03*
X333713Y515748D03*
X333413Y77165D03*
Y27559D03*
X308713Y515748D03*
Y466142D03*
X308413Y27559D03*
X293713Y515748D03*
Y466142D03*
X293413Y77165D03*
Y27559D03*
X278713Y515748D03*
X263713D03*
Y466142D03*
X278713D03*
X263413Y77165D03*
X278413D03*
Y27559D03*
X263413D03*
X248713Y515748D03*
Y466142D03*
X248413Y77165D03*
Y27559D03*
X233713Y515748D03*
Y466142D03*
X233413Y77165D03*
Y27559D03*
X218713Y515748D03*
X203713D03*
Y466142D03*
X218713D03*
X203413Y77165D03*
X218413D03*
Y27559D03*
X203413D03*
X188713Y515748D03*
Y466142D03*
X188413Y77165D03*
Y27559D03*
X173713Y515748D03*
Y466142D03*
X173413Y77165D03*
Y27559D03*
X143713Y515748D03*
X158713D03*
Y466142D03*
X143413Y77165D03*
X158413D03*
Y27559D03*
X143413D03*
X77165Y448085D03*
Y433085D03*
Y418085D03*
Y388085D03*
Y403085D03*
Y373085D03*
Y358085D03*
Y328085D03*
Y343085D03*
Y313085D03*
Y298085D03*
Y258085D03*
Y243085D03*
Y228085D03*
Y213085D03*
Y198085D03*
Y183085D03*
Y168085D03*
Y153085D03*
Y138085D03*
Y123085D03*
Y108085D03*
X27559Y448085D03*
Y433085D03*
Y418085D03*
Y388085D03*
Y403085D03*
Y373085D03*
Y358085D03*
Y328085D03*
Y343085D03*
Y313085D03*
Y298085D03*
Y283085D03*
Y243085D03*
Y258085D03*
Y228085D03*
Y213085D03*
Y183085D03*
Y198085D03*
Y168085D03*
Y153085D03*
Y123085D03*
Y138085D03*
Y108085D03*
Y93085D03*
G54D29*
X500315Y243554D03*
G54D31*
X498413Y77165D03*
X333713Y466142D03*
X308413Y77165D03*
X143713Y466142D03*
X77165Y283085D03*
Y93085D03*
G54D27*
X501902Y359055D03*
G54D23*
X514500Y340551D03*
X489697D03*
%LPD*%
G75*
G54D10*
X19685Y19685D03*
Y523622D03*
X523622Y19685D03*
Y523622D03*
G54D11*
X9563Y252563D03*
X9649Y249564D03*
X6563Y249563D03*
Y252563D03*
X9063Y443063D03*
X9149Y440064D03*
X6063Y440063D03*
Y443063D03*
X62095Y92935D03*
X63095Y257935D03*
X62595Y282935D03*
X62863Y448063D03*
X114835Y96835D03*
X114791Y111835D03*
Y126835D03*
X115063Y156835D03*
Y141835D03*
X115335Y171835D03*
X115291Y216835D03*
X115335Y231835D03*
Y246835D03*
X114835Y261835D03*
X115335Y286835D03*
X116291Y301835D03*
X115791Y346835D03*
X115835Y361835D03*
X116335Y376835D03*
X115791Y391835D03*
X115835Y406835D03*
Y421835D03*
X133563Y94193D03*
X133513Y101693D03*
X137213Y113413D03*
X148563Y94193D03*
X148513Y101693D03*
X152213Y113413D03*
X138563Y180078D03*
X152933Y203063D03*
X138063Y283063D03*
X153433Y305063D03*
X157433Y420063D03*
X141563Y405063D03*
X150933Y420433D03*
X163563Y94193D03*
X163513Y101693D03*
X167213Y113413D03*
X171433Y137693D03*
X172433Y202933D03*
X167563Y213033D03*
X165933Y203063D03*
X159433D03*
X171193Y241933D03*
X166433Y305063D03*
X172933Y305563D03*
X176933D03*
X159933Y305063D03*
X167193Y362193D03*
X163933Y420063D03*
X172933D03*
X176933D03*
X158563Y484563D03*
X178563Y94193D03*
X193563D03*
X178513Y101693D03*
X193513D03*
X197213Y113413D03*
X182213D03*
X182563Y140063D03*
X194563Y160063D03*
X190563Y168563D03*
X184563D03*
X178933Y202733D03*
Y217063D03*
X194433Y261193D03*
X182363Y245593D03*
X194433Y267193D03*
X184433Y271433D03*
X183107Y362093D03*
X190433Y373563D03*
Y387063D03*
X184433D03*
X208563Y94193D03*
X208513Y101693D03*
X212213Y113413D03*
X223563Y94193D03*
X238563D03*
X223513Y101693D03*
X238513D03*
X227213Y113413D03*
X225693Y237693D03*
Y231193D03*
X239433Y257063D03*
X228043Y243693D03*
Y248693D03*
Y253693D03*
X238563Y243063D03*
X238693Y249693D03*
X238063Y270363D03*
X228063Y279563D03*
X232063Y270563D03*
X228063Y271563D03*
Y275362D03*
X238043Y297933D03*
X237563Y293563D03*
X228063Y283563D03*
Y288063D03*
X232563Y289063D03*
X237063Y288563D03*
X253563Y94193D03*
X253513Y101693D03*
X257213Y113413D03*
X242213D03*
X245933Y256563D03*
X243563Y270363D03*
X249593Y272843D03*
X244063Y288563D03*
X249563Y288966D03*
X246193Y309933D03*
X242693Y310433D03*
X246063Y305563D03*
X258693Y336093D03*
X254933Y326693D03*
X268563Y94193D03*
X268513Y101693D03*
X272213Y113413D03*
X267063Y235063D03*
X261193D03*
X266063Y249563D03*
X261193Y248063D03*
X262563Y272063D03*
X262457Y290669D03*
X267110Y310563D03*
X264563Y336063D03*
X275193Y360563D03*
X268693D03*
X283563Y94193D03*
X298563D03*
X283513Y101693D03*
X298513D03*
X287213Y113413D03*
Y127563D03*
X287563Y131063D03*
X288063Y134563D03*
Y138063D03*
Y141563D03*
Y145063D03*
Y148563D03*
X288764Y154563D03*
X291563Y159063D03*
X295063Y162063D03*
Y165563D03*
X300563D03*
X305563Y158563D03*
X308563Y155063D03*
X312063Y151563D03*
X315563Y148063D03*
X318563Y144563D03*
X303063Y162063D03*
X313193Y235193D03*
X319193D03*
X310418Y258563D03*
X319193Y248933D03*
X315389Y346737D03*
X308563Y484263D03*
X304563Y537563D03*
X304649Y534564D03*
X301563Y534563D03*
Y537563D03*
X323563Y94193D03*
X338563D03*
X323513Y101693D03*
X338513D03*
X325063Y137563D03*
X327063Y134063D03*
X322063Y141063D03*
X327063Y285063D03*
X323563Y285096D03*
X324563Y306418D03*
X340593Y314693D03*
Y320693D03*
X327693D03*
X353563Y94193D03*
X353513Y101693D03*
X357213Y113413D03*
X351485Y270985D03*
X347063Y292563D03*
X343163Y284563D03*
X347063Y289313D03*
X343163Y298149D03*
X349793Y312333D03*
X348563Y483763D03*
X368563Y94193D03*
X368513Y101693D03*
X372213Y113413D03*
X383563Y94193D03*
X398563D03*
X383513Y101693D03*
X398513D03*
X402213Y113413D03*
X387213D03*
X413563Y94193D03*
X413513Y101693D03*
X417213Y113413D03*
X422433Y232693D03*
X412350Y358433D03*
Y373433D03*
Y365933D03*
X428563Y94193D03*
X443563D03*
X428513Y101693D03*
X443513D03*
X432213Y113413D03*
X437933Y206693D03*
X429933Y232693D03*
X430677Y341063D03*
X430463Y330463D03*
X426063Y361563D03*
Y358563D03*
X429063D03*
Y361563D03*
X432063D03*
Y358563D03*
X426063Y373563D03*
Y370563D03*
Y367563D03*
Y364563D03*
X429063D03*
Y367563D03*
Y370563D03*
Y373563D03*
X432063D03*
Y370563D03*
Y367563D03*
Y364563D03*
X458563Y94193D03*
X458513Y101693D03*
X462213Y113413D03*
X447213D03*
X456496Y254063D03*
Y248063D03*
X450063Y318063D03*
X463250Y314063D03*
X463563Y343063D03*
Y340063D03*
Y337063D03*
X473563Y94193D03*
X473513Y101693D03*
X477213Y113413D03*
X484793Y219563D03*
X472563Y235063D03*
X484793Y234563D03*
X469996Y254063D03*
X480250Y314063D03*
X471750D03*
X478563Y340063D03*
X475563D03*
X481563D03*
X466563Y343063D03*
Y340063D03*
X475563Y337063D03*
X478563D03*
Y343063D03*
X475563D03*
X481563Y337063D03*
Y343063D03*
X472563Y337063D03*
X469563D03*
X466563D03*
X469563Y340063D03*
X472563Y343063D03*
Y340063D03*
X469563Y343063D03*
X475563Y368063D03*
Y364063D03*
X488563Y94193D03*
X488513Y101693D03*
X492213Y113413D03*
X488563Y229063D03*
Y225563D03*
X498563Y483563D03*
X494649Y534564D03*
X491563Y534563D03*
X494563Y537563D03*
X491563D03*
G54D20*
X501902Y359055D03*
G54D21*
G01X153413Y27559D02*
X158413D01*
G01X143413Y22559D02*
Y27559D01*
G01D02*
Y32559D01*
G01X138413Y27559D02*
X143413D01*
G01D02*
X148413D01*
G01X143713Y510748D02*
Y515748D01*
G01D02*
Y520748D01*
G01X138713Y515748D02*
X143713D01*
G01D02*
X148713D01*
G01X173413Y22559D02*
Y27559D01*
G01D02*
Y32559D01*
G01X168413Y27559D02*
X173413D01*
G01D02*
X178413D01*
G01X158413Y22559D02*
Y27559D01*
G01D02*
Y32559D01*
G01Y27559D02*
X163413D01*
G01X173713Y510748D02*
Y515748D01*
G01D02*
Y520748D01*
G01X168713Y515748D02*
X173713D01*
G01D02*
X178713D01*
G01X188413Y22559D02*
Y27559D01*
G01D02*
Y32559D01*
G01X183413Y27559D02*
X188413D01*
G01D02*
X193413D01*
G01X218413Y22559D02*
Y27559D01*
G01D02*
Y32559D01*
G01X213413Y27559D02*
X218413D01*
G01D02*
X223413D01*
G01X203413Y22559D02*
Y27559D01*
G01D02*
Y32559D01*
G01X198413Y27559D02*
X203413D01*
G01D02*
X208413D01*
G01X203713Y510748D02*
Y515748D01*
G01D02*
Y520748D01*
G01X198713Y515748D02*
X203713D01*
G01D02*
X208713D01*
G01X233413Y22559D02*
Y27559D01*
G01D02*
Y32559D01*
G01X228413Y27559D02*
X233413D01*
G01D02*
X238413D01*
G01X237433Y215693D02*
X242433D01*
G01X233713Y510748D02*
Y515748D01*
G01D02*
Y520748D01*
G01X228713Y515748D02*
X233713D01*
G01D02*
X238713D01*
G01X258413Y27559D02*
X263413D01*
G01X248413Y22559D02*
Y27559D01*
G01D02*
Y32559D01*
G01X243413Y27559D02*
X248413D01*
G01D02*
X253413D01*
G01X242433Y215693D02*
Y220693D01*
G01Y215693D02*
X247433D01*
G01X258713Y515748D02*
X263713D01*
G01X278413Y22559D02*
Y27559D01*
G01D02*
Y32559D01*
G01X273413Y27559D02*
X278413D01*
G01D02*
X283413D01*
G01X263413Y22559D02*
Y27559D01*
G01D02*
Y32559D01*
G01Y27559D02*
X268413D01*
G01X263713Y510748D02*
Y515748D01*
G01D02*
Y520748D01*
G01Y515748D02*
X268713D01*
G01X293413Y22559D02*
Y27559D01*
G01D02*
Y32559D01*
G01X288413Y27559D02*
X293413D01*
G01D02*
X298413D01*
G01X293713Y510748D02*
Y515748D01*
G01D02*
Y520748D01*
G01X288713Y515748D02*
X293713D01*
G01D02*
X298713D01*
G01X308413Y22559D02*
Y27559D01*
G01D02*
Y32559D01*
G01X303413Y27559D02*
X308413D01*
G01D02*
X313413D01*
G01X333413Y22559D02*
Y27559D01*
G01D02*
Y32559D01*
G01X328413Y27559D02*
X333413D01*
G01D02*
X338413D01*
G01X333713Y510748D02*
Y515748D01*
G01D02*
Y520748D01*
G01X328713Y515748D02*
X333713D01*
G01D02*
X338713D01*
G01X358413Y27559D02*
X363413D01*
G01X348413Y22559D02*
Y27559D01*
G01D02*
Y32559D01*
G01X343413Y27559D02*
X348413D01*
G01D02*
X353413D01*
G01X358713Y515748D02*
X363713D01*
G01X378413Y22559D02*
Y27559D01*
G01D02*
Y32559D01*
G01X373413Y27559D02*
X378413D01*
G01D02*
X383413D01*
G01X363413Y22559D02*
Y27559D01*
G01D02*
Y32559D01*
G01Y27559D02*
X368413D01*
G01X370193Y325193D02*
Y330193D01*
G01D02*
Y335193D01*
G01Y330193D02*
X375193D01*
G01X363713Y510748D02*
Y515748D01*
G01D02*
Y520748D01*
G01Y515748D02*
X368713D01*
G01X393413Y22559D02*
Y27559D01*
G01D02*
Y32559D01*
G01X388413Y27559D02*
X393413D01*
G01D02*
X398413D01*
G01X393713Y510748D02*
Y515748D01*
G01D02*
Y520748D01*
G01X388713Y515748D02*
X393713D01*
G01D02*
X398713D01*
G01X418413Y27559D02*
X423413D01*
G01X408413Y22559D02*
Y27559D01*
G01D02*
Y32559D01*
G01X403413Y27559D02*
X408413D01*
G01D02*
X413413D01*
G01X418713Y515748D02*
X423713D01*
G01X438413Y22559D02*
Y27559D01*
G01D02*
Y32559D01*
G01X433413Y27559D02*
X438413D01*
G01D02*
X443413D01*
G01X423413Y22559D02*
Y27559D01*
G01D02*
Y32559D01*
G01Y27559D02*
X428413D01*
G01X423713Y510748D02*
Y515748D01*
G01D02*
Y520748D01*
G01Y515748D02*
X428713D01*
G01X463413Y27559D02*
X468413D01*
G01X453413Y22559D02*
Y27559D01*
G01D02*
Y32559D01*
G01X448413Y27559D02*
X453413D01*
G01D02*
X458413D01*
G01X453713Y510748D02*
Y515748D01*
G01D02*
Y520748D01*
G01X448713Y515748D02*
X453713D01*
G01D02*
X458713D01*
G01X483413Y22559D02*
Y27559D01*
G01D02*
Y32559D01*
G01X478413Y27559D02*
X483413D01*
G01D02*
X488413D01*
G01X468413Y22559D02*
Y27559D01*
G01D02*
Y32559D01*
G01Y27559D02*
X473413D01*
G01X483713Y510748D02*
Y515748D01*
G01D02*
Y520748D01*
G01X478713Y515748D02*
X483713D01*
G01D02*
X488713D01*
G01X498413Y22559D02*
Y27559D01*
G01D02*
Y32559D01*
G01X493413Y27559D02*
X498413D01*
G01D02*
X503413D01*
G01X495405Y172530D02*
X505905D01*
G01X500315Y195432D02*
Y199932D01*
G01D02*
Y204432D01*
G01X495815Y199932D02*
X500315D01*
G01D02*
X504815D01*
G01X495405Y270956D02*
X505905D01*
G01Y162030D02*
Y172530D01*
G01D02*
Y183030D01*
G01Y172530D02*
X516405D01*
G01X505905Y260456D02*
Y270956D01*
G01D02*
Y281456D01*
G01Y270956D02*
X516405D01*
G01X514500Y331177D02*
Y340551D01*
G01D02*
Y349925D01*
G01X509063Y340551D02*
X514500D01*
G01D02*
X519937D01*
G54D12*
X27559Y93085D03*
Y108085D03*
Y138085D03*
Y123085D03*
Y153085D03*
Y168085D03*
Y198085D03*
Y183085D03*
Y213085D03*
Y228085D03*
Y258085D03*
Y243085D03*
Y283085D03*
Y298085D03*
Y313085D03*
Y343085D03*
Y328085D03*
Y358085D03*
Y373085D03*
Y403085D03*
Y388085D03*
Y418085D03*
Y433085D03*
Y448085D03*
X77165Y108085D03*
Y123085D03*
Y138085D03*
Y153085D03*
Y168085D03*
Y183085D03*
Y198085D03*
Y213085D03*
Y228085D03*
Y243085D03*
Y258085D03*
Y298085D03*
Y313085D03*
Y343085D03*
Y328085D03*
Y358085D03*
Y373085D03*
Y403085D03*
Y388085D03*
Y418085D03*
Y433085D03*
Y448085D03*
X143413Y27559D03*
X158413D03*
Y77165D03*
X143413D03*
X158713Y466142D03*
X143713Y515748D03*
X158713D03*
X173413Y27559D03*
Y77165D03*
X173713Y466142D03*
Y515748D03*
X188413Y27559D03*
Y77165D03*
X188713Y466142D03*
Y515748D03*
X203413Y27559D03*
X218413D03*
Y77165D03*
X203413D03*
X203713Y466142D03*
X218713D03*
Y515748D03*
X203713D03*
X233413Y27559D03*
Y77165D03*
X242433Y195693D03*
Y205693D03*
Y215693D03*
X233713Y466142D03*
Y515748D03*
X248413Y27559D03*
Y77165D03*
X248713Y466142D03*
Y515748D03*
X263413Y27559D03*
X278413D03*
Y77165D03*
X263413D03*
X263713Y466142D03*
X278713D03*
Y515748D03*
X263713D03*
X293413Y27559D03*
Y77165D03*
X293713Y466142D03*
Y515748D03*
X308413Y27559D03*
X308713Y466142D03*
Y515748D03*
X333413Y27559D03*
Y77165D03*
X333713Y515748D03*
X348413Y27559D03*
X363413D03*
X348413Y77165D03*
X363413D03*
X350193Y330193D03*
X360193D03*
X363713Y466142D03*
X348713D03*
X363713Y515748D03*
X348713D03*
X378413Y27559D03*
Y77165D03*
X370193Y330193D03*
X378713Y466142D03*
Y515748D03*
X393413Y27559D03*
Y77165D03*
X393713Y466142D03*
Y515748D03*
X408413Y27559D03*
X423413D03*
X408413Y77165D03*
X423413D03*
X423713Y466142D03*
X408713D03*
X423713Y515748D03*
X408713D03*
X438413Y27559D03*
Y77165D03*
X438713Y466142D03*
Y515748D03*
X453413Y27559D03*
Y77165D03*
X453713Y466142D03*
Y515748D03*
X468413Y27559D03*
X483413D03*
X468413Y77165D03*
X483413D03*
X483713Y466142D03*
X468713D03*
X483713Y515748D03*
X468713D03*
X498413Y27559D03*
X498713Y466142D03*
Y515748D03*
G54D22*
G01X0Y0D02*
Y543307D01*
X543307D01*
Y0D01*
X0D01*
G01D02*
Y543307D01*
X543307D01*
Y0D01*
X0D01*
G54D13*
X77165Y93085D03*
Y283085D03*
X143713Y466142D03*
X308413Y77165D03*
X333713Y466142D03*
X498413Y77165D03*
G54D14*
X235193Y307465D03*
G54D15*
Y303921D03*
G54D16*
X505905Y172530D03*
Y270956D03*
G54D17*
X500315Y199932D03*
Y210837D03*
Y221743D03*
Y232649D03*
X511496Y205385D03*
Y216290D03*
Y227196D03*
Y238101D03*
G54D18*
X500315Y243554D03*
G54D19*
X489697Y340551D03*
X514500D03*
M02*
