G04 ================== begin FILE IDENTIFICATION RECORD ==================*
G04 Layout Name:  E:/PCB/LED/LED_V1.0-1012.brd*
G04 Film Name:    NC_DRILL*
G04 File Format:  Gerber RS274X*
G04 File Origin:  Cadence Allegro 16.6-2015-S108*
G04 Origin Date:  Fri Oct 12 22:50:05 2018*
G04 *
G04 Layer:  MANUFACTURING/NCLEGEND-1-4*
G04 Layer:  DRAWING FORMAT/NCDRILL_LEGEND*
G04 Layer:  MANUFACTURING/NCDRILL_LEGEND*
G04 Layer:  MANUFACTURING/NCDRILL_FIGURE*
G04 Layer:  BOARD GEOMETRY/OUTLINE*
G04 *
G04 Offset:    (0.000 0.000)*
G04 Mirror:    No*
G04 Mode:      Positive*
G04 Rotation:  0*
G04 FullContactRelief:  No*
G04 UndefLineWidth:     8.000*
G04 ================== end FILE IDENTIFICATION RECORD ====================*
%FSLAX55Y55*MOIN*%
%IR0*IPPOS*OFA0.00000B0.00000*MIA0B0*SFA1.00000B1.00000*%
%AMMACRO11*
1,1,.008,.025,0.0*
20,1,.008,.025,0.0,-.025,0.0,0.0*
1,1,.008,-.025,0.0*
1,1,.008,0.0,.025*
20,1,.008,0.0,.025,0.0,-.025,0.0*
1,1,.008,0.0,-.025*
%
%ADD11MACRO11*%
%AMMACRO16*
1,1,.008,.02,0.0*
20,1,.008,.02,0.0,0.0,-.02,0.0*
1,1,.008,0.0,-.02*
20,1,.008,0.0,-.02,-.02,0.0,0.0*
1,1,.008,-.02,0.0*
20,1,.008,-.02,0.0,0.0,.02,0.0*
1,1,.008,0.0,.02*
20,1,.008,0.0,.02,.02,0.0,0.0*
1,1,.008,.02,0.0*
%
%ADD16MACRO16*%
%AMMACRO10*
1,1,.008,.04,0.0*
20,1,.008,.04,0.0,-.04,0.0,0.0*
1,1,.008,-.04,0.0*
1,1,.008,0.0,.04*
20,1,.008,0.0,.04,0.0,-.04,0.0*
1,1,.008,0.0,-.04*
%
%ADD10MACRO10*%
%AMMACRO20*
1,1,.008,-.059055,.019685*
20,1,.008,-.059055,.019685,.059055,.019685,0.0*
1,1,.008,.059055,.019685*
20,1,.008,.059055,.019685,.059055,-.019685,0.0*
1,1,.008,.059055,-.019685*
20,1,.008,.059055,-.019685,-.059055,-.019685,0.0*
1,1,.008,-.059055,-.019685*
20,1,.008,-.059055,-.019685,-.059055,.019685,0.0*
1,1,.008,-.059055,.019685*
1,1,.008,-.006233,-.009842*
20,1,.008,-.006233,-.009842,-.006233,.009843,0.0*
1,1,.008,-.006233,.009843*
20,1,.008,-.006233,.009843,.006234,.009843,0.0*
1,1,.008,.006234,.009843*
1,1,.008,.001641,.000329*
20,1,.008,.001641,.000329,-.006233,.000329,0.0*
1,1,.008,-.006233,.000329*
%
%ADD20MACRO20*%
%AMMACRO13*
1,1,.008,-.019685,.059055*
20,1,.008,-.019685,.059055,.019685,.059055,0.0*
1,1,.008,.019685,.059055*
20,1,.008,.019685,.059055,.019685,-.059055,0.0*
1,1,.008,.019685,-.059055*
20,1,.008,.019685,-.059055,-.019685,-.059055,0.0*
1,1,.008,-.019685,-.059055*
20,1,.008,-.019685,-.059055,-.019685,.059055,0.0*
1,1,.008,-.019685,.059055*
1,1,.008,-.006233,-.009842*
20,1,.008,-.006233,-.009842,-.006233,.009843,0.0*
1,1,.008,-.006233,.009843*
20,1,.008,-.006233,.009843,.006234,.009843,0.0*
1,1,.008,.006234,.009843*
1,1,.008,.001641,.000329*
20,1,.008,.001641,.000329,-.006233,.000329,0.0*
1,1,.008,-.006233,.000329*
%
%ADD13MACRO13*%
%AMMACRO19*
1,1,.008,.019685,.059055*
20,1,.008,.019685,.059055,.019685,-.059055,0.0*
1,1,.008,.019685,-.059055*
20,1,.008,.019685,-.059055,-.019685,-.059055,0.0*
1,1,.008,-.019685,-.059055*
20,1,.008,-.019685,-.059055,-.019685,.059055,0.0*
1,1,.008,-.019685,.059055*
20,1,.008,-.019685,.059055,.019685,.059055,0.0*
1,1,.008,.019685,.059055*
1,1,.008,-.006233,-.009842*
20,1,.008,-.006233,-.009842,-.006233,.009843,0.0*
1,1,.008,-.006233,.009843*
20,1,.008,-.006233,.009843,.006234,.009843,0.0*
1,1,.008,.006234,.009843*
1,1,.008,.001641,.000329*
20,1,.008,.001641,.000329,-.006233,.000329,0.0*
1,1,.008,-.006233,.000329*
%
%ADD19MACRO19*%
%AMMACRO14*
1,1,.008,.059055,.019685*
20,1,.008,.059055,.019685,.059055,-.019685,0.0*
1,1,.008,.059055,-.019685*
20,1,.008,.059055,-.019685,-.059055,-.019685,0.0*
1,1,.008,-.059055,-.019685*
20,1,.008,-.059055,-.019685,-.059055,.019685,0.0*
1,1,.008,-.059055,.019685*
20,1,.008,-.059055,.019685,.059055,.019685,0.0*
1,1,.008,.059055,.019685*
1,1,.008,-.006233,-.009842*
20,1,.008,-.006233,-.009842,-.006233,.009843,0.0*
1,1,.008,-.006233,.009843*
20,1,.008,-.006233,.009843,.006234,.009843,0.0*
1,1,.008,.006234,.009843*
1,1,.008,.001641,.000329*
20,1,.008,.001641,.000329,-.006233,.000329,0.0*
1,1,.008,-.006233,.000329*
%
%ADD14MACRO14*%
%AMMACRO18*
1,1,.008,.0025,0.0*
20,1,.008,.0025,0.0,.010834,0.0,0.0*
1,1,.008,.010834,0.0*
20,1,.008,.010834,0.0,.010834,-.0075,0.0*
1,1,.008,.010834,-.0075*
20,1,.008,.010834,-.0075,.008333,-.010001,0.0*
1,1,.008,.008333,-.010001*
20,1,.008,.008333,-.010001,.005417,-.011667,0.0*
1,1,.008,.005417,-.011667*
20,1,.008,.005417,-.011667,.00125,-.0125,0.0*
1,1,.008,.00125,-.0125*
20,1,.008,.00125,-.0125,-.002916,-.011667,0.0*
1,1,.008,-.002916,-.011667*
20,1,.008,-.002916,-.011667,-.005833,-.010001,0.0*
1,1,.008,-.005833,-.010001*
20,1,.008,-.005833,-.010001,-.008333,-.0075,0.0*
1,1,.008,-.008333,-.0075*
20,1,.008,-.008333,-.0075,-.010001,-.004583,0.0*
1,1,.008,-.010001,-.004583*
20,1,.008,-.010001,-.004583,-.010834,-.00125,0.0*
1,1,.008,-.010834,-.00125*
20,1,.008,-.010834,-.00125,-.010834,.001667,0.0*
1,1,.008,-.010834,.001667*
20,1,.008,-.010834,.001667,-.010001,.004166,0.0*
1,1,.008,-.010001,.004166*
20,1,.008,-.010001,.004166,-.008333,.007084,0.0*
1,1,.008,-.008333,.007084*
20,1,.008,-.008333,.007084,-.005833,.009583,0.0*
1,1,.008,-.005833,.009583*
20,1,.008,-.005833,.009583,-.003334,.01125,0.0*
1,1,.008,-.003334,.01125*
20,1,.008,-.003334,.01125,0.0,.0125,0.0*
1,1,.008,0.0,.0125*
20,1,.008,0.0,.0125,.002916,.0125,0.0*
1,1,.008,.002916,.0125*
20,1,.008,.002916,.0125,.00625,.011667,0.0*
1,1,.008,.00625,.011667*
20,1,.008,.00625,.011667,.00875,.01,0.0*
1,1,.008,.00875,.01*
%
%ADD18MACRO18*%
%AMMACRO17*
1,1,.008,.0175,0.0*
20,1,.008,.0175,0.0,0.0,-.0175,0.0*
1,1,.008,0.0,-.0175*
20,1,.008,0.0,-.0175,-.0175,0.0,0.0*
1,1,.008,-.0175,0.0*
20,1,.008,-.0175,0.0,0.0,.0175,0.0*
1,1,.008,0.0,.0175*
20,1,.008,0.0,.0175,.0175,0.0,0.0*
1,1,.008,.0175,0.0*
1,1,.008,.002333,.000583*
20,1,.008,.002333,.000583,.0035,.001458,0.0*
1,1,.008,.0035,.001458*
20,1,.008,.0035,.001458,.004375,.002916,0.0*
1,1,.008,.004375,.002916*
20,1,.008,.004375,.002916,.004959,.004959,0.0*
1,1,.008,.004959,.004959*
20,1,.008,.004959,.004959,.004375,.006708,0.0*
1,1,.008,.004375,.006708*
20,1,.008,.004375,.006708,.003208,.007875,0.0*
1,1,.008,.003208,.007875*
20,1,.008,.003208,.007875,.001167,.00875,0.0*
1,1,.008,.001167,.00875*
20,1,.008,.001167,.00875,-.006708,.00875,0.0*
1,1,.008,-.006708,.00875*
20,1,.008,-.006708,.00875,-.006708,-.00875,0.0*
1,1,.008,-.006708,-.00875*
20,1,.008,-.006708,-.00875,.002917,-.00875,0.0*
1,1,.008,.002917,-.00875*
20,1,.008,.002917,-.00875,.004959,-.007584,0.0*
1,1,.008,.004959,-.007584*
20,1,.008,.004959,-.007584,.006125,-.005833,0.0*
1,1,.008,.006125,-.005833*
20,1,.008,.006125,-.005833,.006708,-.003792,0.0*
1,1,.008,.006708,-.003792*
20,1,.008,.006708,-.003792,.006125,-.00175,0.0*
1,1,.008,.006125,-.00175*
20,1,.008,.006125,-.00175,.004375,0.0,0.0*
1,1,.008,.004375,0.0*
20,1,.008,.004375,0.0,.002333,.000583,0.0*
1,1,.008,.002333,.000583*
20,1,.008,.002333,.000583,-.006708,.000583,0.0*
1,1,.008,-.006708,.000583*
%
%ADD17MACRO17*%
%AMMACRO15*
1,1,.008,.05,0.0*
20,1,.008,.05,0.0,0.0,-.05,0.0*
1,1,.008,0.0,-.05*
20,1,.008,0.0,-.05,-.05,0.0,0.0*
1,1,.008,-.05,0.0*
20,1,.008,-.05,0.0,0.0,.05,0.0*
1,1,.008,0.0,.05*
20,1,.008,0.0,.05,.05,0.0,0.0*
1,1,.008,.05,0.0*
1,1,.008,-.011666,-.025*
20,1,.008,-.011666,-.025,-.011666,.008332,0.0*
1,1,.008,-.011666,.008332*
1,1,.008,-.011666,.001667*
20,1,.008,-.011666,.001667,-.007501,.005,0.0*
1,1,.008,-.007501,.005*
20,1,.008,-.007501,.005,-.003333,.007499,0.0*
1,1,.008,-.003333,.007499*
20,1,.008,-.003333,.007499,.0025,.008332,0.0*
1,1,.008,.0025,.008332*
20,1,.008,.0025,.008332,.006666,.007499,0.0*
1,1,.008,.006666,.007499*
20,1,.008,.006666,.007499,.011666,.005,0.0*
1,1,.008,.011666,.005*
%
%ADD15MACRO15*%
%AMMACRO12*
1,1,.008,.019685,0.0*
20,1,.008,.019685,0.0,0.0,-.019685,0.0*
1,1,.008,0.0,-.019685*
20,1,.008,0.0,-.019685,-.019685,0.0,0.0*
1,1,.008,-.019685,0.0*
20,1,.008,-.019685,0.0,0.0,.019685,0.0*
1,1,.008,0.0,.019685*
20,1,.008,0.0,.019685,.019685,0.0,0.0*
1,1,.008,.019685,0.0*
1,1,.008,-.007217,-.009842*
20,1,.008,-.007217,-.009842,-.007217,.009843,0.0*
1,1,.008,-.007217,.009843*
1,1,.008,.00525,.009843*
20,1,.008,.00525,.009843,-.007217,-.002296,0.0*
1,1,.008,-.007217,-.002296*
1,1,.008,.007218,-.009842*
20,1,.008,.007218,-.009842,-.00164,.003281,0.0*
1,1,.008,-.00164,.003281*
%
%ADD12MACRO12*%
%ADD21C,.006*%
%ADD22C,.008*%
G75*
%LPD*%
G75*
G54D10*
X19685Y19685D03*
Y523622D03*
X63563Y-215437D03*
X523622Y19685D03*
Y523622D03*
G54D20*
X501902Y359055D03*
G54D11*
X9563Y252563D03*
X9649Y249564D03*
X6563Y249563D03*
Y252563D03*
X9063Y443063D03*
X9149Y440064D03*
X6063Y440063D03*
Y443063D03*
X63563Y-125437D03*
X62095Y92935D03*
X63095Y257935D03*
X62595Y282935D03*
X62863Y448063D03*
X114835Y96835D03*
X114791Y111835D03*
Y126835D03*
X115063Y156835D03*
Y141835D03*
X115335Y171835D03*
X115291Y216835D03*
X115335Y231835D03*
Y246835D03*
X114835Y261835D03*
X115335Y286835D03*
X116291Y301835D03*
X115791Y346835D03*
X115835Y361835D03*
X116335Y376835D03*
X115791Y391835D03*
X115835Y406835D03*
Y421835D03*
X133563Y94193D03*
X133513Y101693D03*
X137213Y113413D03*
X148563Y94193D03*
X148513Y101693D03*
X152213Y113413D03*
X138563Y180078D03*
X152933Y203063D03*
X138063Y283063D03*
X153433Y305063D03*
X157433Y420063D03*
X141563Y405063D03*
X150933Y420433D03*
X163563Y94193D03*
X163513Y101693D03*
X167213Y113413D03*
X171433Y137693D03*
X172433Y202933D03*
X167563Y213033D03*
X165933Y203063D03*
X159433D03*
X171193Y241933D03*
X166433Y305063D03*
X172933Y305563D03*
X176933D03*
X159933Y305063D03*
X167193Y362193D03*
X163933Y420063D03*
X172933D03*
X176933D03*
X158563Y484563D03*
X178563Y94193D03*
X193563D03*
X178513Y101693D03*
X193513D03*
X197213Y113413D03*
X182213D03*
X182563Y140063D03*
X194563Y160063D03*
X190563Y168563D03*
X184563D03*
X178933Y202733D03*
Y217063D03*
X194433Y261193D03*
X182363Y245593D03*
X194433Y267193D03*
X184433Y271433D03*
X183107Y362093D03*
X190433Y373563D03*
Y387063D03*
X184433D03*
X208563Y94193D03*
X208513Y101693D03*
X212213Y113413D03*
X223563Y94193D03*
X238563D03*
X223513Y101693D03*
X238513D03*
X227213Y113413D03*
X225693Y237693D03*
Y231193D03*
X239433Y257063D03*
X228043Y243693D03*
Y248693D03*
Y253693D03*
X238563Y243063D03*
X238693Y249693D03*
X238063Y270363D03*
X228063Y279563D03*
X232063Y270563D03*
X228063Y271563D03*
Y275362D03*
X238043Y297933D03*
X237563Y293563D03*
X228063Y283563D03*
Y288063D03*
X232563Y289063D03*
X237063Y288563D03*
X253563Y94193D03*
X253513Y101693D03*
X257213Y113413D03*
X242213D03*
X245933Y256563D03*
X243563Y270363D03*
X249593Y272843D03*
X244063Y288563D03*
X249563Y288966D03*
X246193Y309933D03*
X242693Y310433D03*
X246063Y305563D03*
X258693Y336093D03*
X254933Y326693D03*
X268563Y94193D03*
X268513Y101693D03*
X272213Y113413D03*
X267063Y235063D03*
X261193D03*
X266063Y249563D03*
X261193Y248063D03*
X262563Y272063D03*
X262457Y290669D03*
X267110Y310563D03*
X264563Y336063D03*
X275193Y360563D03*
X268693D03*
X283563Y94193D03*
X298563D03*
X283513Y101693D03*
X298513D03*
X287213Y113413D03*
Y127563D03*
X287563Y131063D03*
X288063Y134563D03*
Y138063D03*
Y141563D03*
Y145063D03*
Y148563D03*
X288764Y154563D03*
X291563Y159063D03*
X295063Y162063D03*
Y165563D03*
X300563D03*
X305563Y158563D03*
X308563Y155063D03*
X312063Y151563D03*
X315563Y148063D03*
X318563Y144563D03*
X303063Y162063D03*
X313193Y235193D03*
X319193D03*
X310418Y258563D03*
X319193Y248933D03*
X315389Y346737D03*
X308563Y484263D03*
X304563Y537563D03*
X304649Y534564D03*
X301563Y534563D03*
Y537563D03*
X323563Y94193D03*
X338563D03*
X323513Y101693D03*
X338513D03*
X325063Y137563D03*
X327063Y134063D03*
X322063Y141063D03*
X327063Y285063D03*
X323563Y285096D03*
X324563Y306418D03*
X340593Y314693D03*
Y320693D03*
X327693D03*
X353563Y94193D03*
X353513Y101693D03*
X357213Y113413D03*
X351485Y270985D03*
X347063Y292563D03*
X343163Y284563D03*
X347063Y289313D03*
X343163Y298149D03*
X349793Y312333D03*
X348563Y483763D03*
X368563Y94193D03*
X368513Y101693D03*
X372213Y113413D03*
X383563Y94193D03*
X398563D03*
X383513Y101693D03*
X398513D03*
X402213Y113413D03*
X387213D03*
X413563Y94193D03*
X413513Y101693D03*
X417213Y113413D03*
X422433Y232693D03*
X412350Y358433D03*
Y373433D03*
Y365933D03*
X428563Y94193D03*
X443563D03*
X428513Y101693D03*
X443513D03*
X432213Y113413D03*
X437933Y206693D03*
X429933Y232693D03*
X430677Y341063D03*
X430463Y330463D03*
X426063Y361563D03*
Y358563D03*
X429063D03*
Y361563D03*
X432063D03*
Y358563D03*
X426063Y373563D03*
Y370563D03*
Y367563D03*
Y364563D03*
X429063D03*
Y367563D03*
Y370563D03*
Y373563D03*
X432063D03*
Y370563D03*
Y367563D03*
Y364563D03*
X458563Y94193D03*
X458513Y101693D03*
X462213Y113413D03*
X447213D03*
X456496Y254063D03*
Y248063D03*
X450063Y318063D03*
X463250Y314063D03*
X463563Y343063D03*
Y340063D03*
Y337063D03*
X473563Y94193D03*
X473513Y101693D03*
X477213Y113413D03*
X484793Y219563D03*
X472563Y235063D03*
X484793Y234563D03*
X469996Y254063D03*
X480250Y314063D03*
X471750D03*
X478563Y340063D03*
X475563D03*
X481563D03*
X466563Y343063D03*
Y340063D03*
X475563Y337063D03*
X478563D03*
Y343063D03*
X475563D03*
X481563Y337063D03*
Y343063D03*
X472563Y337063D03*
X469563D03*
X466563D03*
X469563Y340063D03*
X472563Y343063D03*
Y340063D03*
X469563Y343063D03*
X475563Y368063D03*
Y364063D03*
X488563Y94193D03*
X488513Y101693D03*
X492213Y113413D03*
X488563Y229063D03*
Y225563D03*
X498563Y483563D03*
X494649Y534564D03*
X491563Y534563D03*
X494563Y537563D03*
X491563D03*
G54D21*
G01X36963Y-111937D02*
Y-102937D01*
X42663D01*
G01X40563Y-107287D02*
X36963D01*
G01X47513Y-102937D02*
X51113D01*
G01X49313D02*
Y-111937D01*
G01X47513D02*
X51113D01*
G01X59713Y-107437D02*
X62713D01*
Y-110137D01*
X61813Y-111037D01*
X60763Y-111637D01*
X59263Y-111937D01*
X57763Y-111637D01*
X56713Y-111037D01*
X55813Y-110137D01*
X55213Y-109087D01*
X54913Y-107887D01*
Y-106837D01*
X55213Y-105937D01*
X55813Y-104887D01*
X56713Y-103987D01*
X57613Y-103387D01*
X58813Y-102937D01*
X59863D01*
X61063Y-103237D01*
X61963Y-103837D01*
G01X65013Y-102937D02*
Y-109387D01*
X65613Y-110737D01*
X66813Y-111637D01*
X68313Y-111937D01*
X69813Y-111637D01*
X71013Y-110737D01*
X71613Y-109387D01*
Y-102937D01*
G01X74813Y-111937D02*
Y-102937D01*
X78563D01*
X79763Y-103387D01*
X80513Y-103987D01*
X80813Y-105187D01*
X80513Y-106387D01*
X79613Y-107137D01*
X78563Y-107587D01*
X74813D01*
G01X78563D02*
X80813Y-111937D01*
G01X90313D02*
X84313D01*
Y-102937D01*
X90313D01*
G01X87913Y-107287D02*
X84313D01*
G01X116313Y-273937D02*
Y-264937D01*
X114513Y-266737D01*
G01Y-273937D02*
X118113D01*
G01X125813D02*
Y-264937D01*
X124013Y-266737D01*
G01Y-273937D02*
X127613D01*
G01X135313D02*
X136363Y-273787D01*
X137563Y-273337D01*
X138313Y-272587D01*
X138613Y-271537D01*
X138313Y-270487D01*
X137413Y-269587D01*
X136063Y-269137D01*
X134563D01*
X133663Y-268837D01*
X132913Y-268087D01*
X132613Y-267037D01*
X133063Y-265987D01*
X134113Y-265237D01*
X135313Y-264937D01*
X136513Y-265237D01*
X137563Y-265987D01*
X138013Y-267037D01*
X137713Y-268087D01*
X136963Y-268837D01*
X136063Y-269137D01*
X134563D01*
X133213Y-269587D01*
X132313Y-270487D01*
X132013Y-271537D01*
X132313Y-272587D01*
X133063Y-273337D01*
X134263Y-273787D01*
X135313Y-273937D01*
G01X144813Y-274237D02*
X144513Y-274087D01*
Y-273787D01*
X144813Y-273637D01*
X145113Y-273787D01*
Y-274087D01*
X144813Y-274237D01*
G01X154313Y-273937D02*
Y-264937D01*
X152513Y-266737D01*
G01Y-273937D02*
X156113D01*
G01X163813D02*
Y-264937D01*
X162013Y-266737D01*
G01Y-273937D02*
X165613D01*
G01X171063Y-267937D02*
X175563Y-273937D01*
G01Y-267937D02*
X171063Y-273937D01*
G01X179513Y-272137D02*
X180413Y-273187D01*
X181613Y-273787D01*
X182963Y-273937D01*
X184163Y-273787D01*
X185363Y-273037D01*
X186113Y-272137D01*
X186263Y-271237D01*
X185963Y-270187D01*
X184913Y-269437D01*
X183863Y-269137D01*
X182513D01*
G01X183863D02*
X184763Y-268687D01*
X185513Y-267937D01*
X185813Y-267037D01*
X185513Y-266137D01*
X184763Y-265387D01*
X183413Y-264937D01*
X182063Y-265087D01*
X180713Y-265687D01*
G01X189763Y-272887D02*
X190813Y-273637D01*
X192013Y-273937D01*
X193213Y-273637D01*
X194263Y-272737D01*
X195013Y-271387D01*
X195313Y-270037D01*
Y-268387D01*
X195013Y-267037D01*
X194263Y-265837D01*
X193363Y-265237D01*
X192313Y-264937D01*
X191113Y-265237D01*
X190213Y-265837D01*
X189613Y-266737D01*
X189313Y-267937D01*
X189613Y-268987D01*
X190363Y-270037D01*
X191263Y-270637D01*
X192313Y-270787D01*
X193513Y-270487D01*
X194413Y-269737D01*
X195313Y-268387D01*
G01X201813Y-274237D02*
X201513Y-274087D01*
Y-273787D01*
X201813Y-273637D01*
X202113Y-273787D01*
Y-274087D01*
X201813Y-274237D01*
G01X208013Y-272137D02*
X208913Y-273187D01*
X210113Y-273787D01*
X211463Y-273937D01*
X212663Y-273787D01*
X213863Y-273037D01*
X214613Y-272137D01*
X214763Y-271237D01*
X214463Y-270187D01*
X213413Y-269437D01*
X212363Y-269137D01*
X211013D01*
G01X212363D02*
X213263Y-268687D01*
X214013Y-267937D01*
X214313Y-267037D01*
X214013Y-266137D01*
X213263Y-265387D01*
X211913Y-264937D01*
X210563Y-265087D01*
X209213Y-265687D01*
G01X220513Y-273937D02*
X220813Y-271987D01*
X221263Y-270337D01*
X221863Y-268837D01*
X222613Y-267187D01*
X223813Y-264937D01*
X217813D01*
G01X116313Y-255937D02*
Y-246937D01*
X114513Y-248737D01*
G01Y-255937D02*
X118113D01*
G01X125813D02*
Y-246937D01*
X124013Y-248737D01*
G01Y-255937D02*
X127613D01*
G01X135313D02*
X136363Y-255787D01*
X137563Y-255337D01*
X138313Y-254587D01*
X138613Y-253537D01*
X138313Y-252487D01*
X137413Y-251587D01*
X136063Y-251137D01*
X134563D01*
X133663Y-250837D01*
X132913Y-250087D01*
X132613Y-249037D01*
X133063Y-247987D01*
X134113Y-247237D01*
X135313Y-246937D01*
X136513Y-247237D01*
X137563Y-247987D01*
X138013Y-249037D01*
X137713Y-250087D01*
X136963Y-250837D01*
X136063Y-251137D01*
X134563D01*
X133213Y-251587D01*
X132313Y-252487D01*
X132013Y-253537D01*
X132313Y-254587D01*
X133063Y-255337D01*
X134263Y-255787D01*
X135313Y-255937D01*
G01X144813Y-256237D02*
X144513Y-256087D01*
Y-255787D01*
X144813Y-255637D01*
X145113Y-255787D01*
Y-256087D01*
X144813Y-256237D01*
G01X154313Y-255937D02*
Y-246937D01*
X152513Y-248737D01*
G01Y-255937D02*
X156113D01*
G01X163813D02*
Y-246937D01*
X162013Y-248737D01*
G01Y-255937D02*
X165613D01*
G01X171063Y-249937D02*
X175563Y-255937D01*
G01Y-249937D02*
X171063Y-255937D01*
G01X179513Y-254137D02*
X180413Y-255187D01*
X181613Y-255787D01*
X182963Y-255937D01*
X184163Y-255787D01*
X185363Y-255037D01*
X186113Y-254137D01*
X186263Y-253237D01*
X185963Y-252187D01*
X184913Y-251437D01*
X183863Y-251137D01*
X182513D01*
G01X183863D02*
X184763Y-250687D01*
X185513Y-249937D01*
X185813Y-249037D01*
X185513Y-248137D01*
X184763Y-247387D01*
X183413Y-246937D01*
X182063Y-247087D01*
X180713Y-247687D01*
G01X189763Y-254887D02*
X190813Y-255637D01*
X192013Y-255937D01*
X193213Y-255637D01*
X194263Y-254737D01*
X195013Y-253387D01*
X195313Y-252037D01*
Y-250387D01*
X195013Y-249037D01*
X194263Y-247837D01*
X193363Y-247237D01*
X192313Y-246937D01*
X191113Y-247237D01*
X190213Y-247837D01*
X189613Y-248737D01*
X189313Y-249937D01*
X189613Y-250987D01*
X190363Y-252037D01*
X191263Y-252637D01*
X192313Y-252787D01*
X193513Y-252487D01*
X194413Y-251737D01*
X195313Y-250387D01*
G01X201813Y-256237D02*
X201513Y-256087D01*
Y-255787D01*
X201813Y-255637D01*
X202113Y-255787D01*
Y-256087D01*
X201813Y-256237D01*
G01X208013Y-254137D02*
X208913Y-255187D01*
X210113Y-255787D01*
X211463Y-255937D01*
X212663Y-255787D01*
X213863Y-255037D01*
X214613Y-254137D01*
X214763Y-253237D01*
X214463Y-252187D01*
X213413Y-251437D01*
X212363Y-251137D01*
X211013D01*
G01X212363D02*
X213263Y-250687D01*
X214013Y-249937D01*
X214313Y-249037D01*
X214013Y-248137D01*
X213263Y-247387D01*
X211913Y-246937D01*
X210563Y-247087D01*
X209213Y-247687D01*
G01X220513Y-255937D02*
X220813Y-253987D01*
X221263Y-252337D01*
X221863Y-250837D01*
X222613Y-249187D01*
X223813Y-246937D01*
X217813D01*
G01X149563Y-237937D02*
Y-228937D01*
X147763Y-230737D01*
G01Y-237937D02*
X151363D01*
G01X156213Y-230437D02*
X157113Y-229537D01*
X158163Y-229087D01*
X159363Y-228937D01*
X160863Y-229237D01*
X161913Y-229987D01*
X162213Y-230887D01*
X162063Y-231787D01*
X161463Y-232537D01*
X158463Y-234037D01*
X157113Y-235087D01*
X156213Y-236587D01*
X155913Y-237937D01*
X162213D01*
G01X165713Y-234187D02*
X166763Y-233137D01*
X167663Y-232537D01*
X168863Y-232237D01*
X169913Y-232537D01*
X170663Y-233137D01*
X171263Y-234037D01*
X171413Y-235087D01*
X171263Y-235987D01*
X170663Y-236887D01*
X169763Y-237637D01*
X168713Y-237937D01*
X167513Y-237637D01*
X166463Y-236737D01*
X165863Y-235387D01*
X165713Y-233887D01*
X166013Y-231937D01*
X166463Y-230887D01*
X167213Y-229837D01*
X168263Y-229087D01*
X169313Y-228937D01*
X170363Y-229237D01*
X171113Y-229987D01*
G01X178063Y-238237D02*
X177763Y-238087D01*
Y-237787D01*
X178063Y-237637D01*
X178363Y-237787D01*
Y-238087D01*
X178063Y-238237D01*
G01X187563Y-228937D02*
X186363Y-229237D01*
X185463Y-229987D01*
X184863Y-230887D01*
X184413Y-232087D01*
X184263Y-233437D01*
X184413Y-234787D01*
X184863Y-235987D01*
X185463Y-236887D01*
X186363Y-237637D01*
X187563Y-237937D01*
X188763Y-237637D01*
X189663Y-236887D01*
X190263Y-235987D01*
X190713Y-234787D01*
X190863Y-233437D01*
X190713Y-232087D01*
X190263Y-230887D01*
X189663Y-229987D01*
X188763Y-229237D01*
X187563Y-228937D01*
G01X144813Y-219937D02*
Y-210937D01*
X143013Y-212737D01*
G01Y-219937D02*
X146613D01*
G01X151463Y-212437D02*
X152363Y-211537D01*
X153413Y-211087D01*
X154613Y-210937D01*
X156113Y-211237D01*
X157163Y-211987D01*
X157463Y-212887D01*
X157313Y-213787D01*
X156713Y-214537D01*
X153713Y-216037D01*
X152363Y-217087D01*
X151463Y-218587D01*
X151163Y-219937D01*
X157463D01*
G01X160513Y-218587D02*
X161413Y-219337D01*
X162463Y-219787D01*
X163813Y-219937D01*
X165163Y-219637D01*
X166213Y-219037D01*
X166963Y-217987D01*
X167113Y-216787D01*
X166813Y-215587D01*
X166063Y-214837D01*
X165013Y-214237D01*
X163963Y-214087D01*
X162913Y-214237D01*
X161563Y-214837D01*
X162013Y-210937D01*
X166063D01*
G01X173313Y-220237D02*
X173013Y-220087D01*
Y-219787D01*
X173313Y-219637D01*
X173613Y-219787D01*
Y-220087D01*
X173313Y-220237D01*
G01X180263Y-218887D02*
X181313Y-219637D01*
X182513Y-219937D01*
X183713Y-219637D01*
X184763Y-218737D01*
X185513Y-217387D01*
X185813Y-216037D01*
Y-214387D01*
X185513Y-213037D01*
X184763Y-211837D01*
X183863Y-211237D01*
X182813Y-210937D01*
X181613Y-211237D01*
X180713Y-211837D01*
X180113Y-212737D01*
X179813Y-213937D01*
X180113Y-214987D01*
X180863Y-216037D01*
X181763Y-216637D01*
X182813Y-216787D01*
X184013Y-216487D01*
X184913Y-215737D01*
X185813Y-214387D01*
G01X192313Y-219937D02*
X193363Y-219787D01*
X194563Y-219337D01*
X195313Y-218587D01*
X195613Y-217537D01*
X195313Y-216487D01*
X194413Y-215587D01*
X193063Y-215137D01*
X191563D01*
X190663Y-214837D01*
X189913Y-214087D01*
X189613Y-213037D01*
X190063Y-211987D01*
X191113Y-211237D01*
X192313Y-210937D01*
X193513Y-211237D01*
X194563Y-211987D01*
X195013Y-213037D01*
X194713Y-214087D01*
X193963Y-214837D01*
X193063Y-215137D01*
X191563D01*
X190213Y-215587D01*
X189313Y-216487D01*
X189013Y-217537D01*
X189313Y-218587D01*
X190063Y-219337D01*
X191263Y-219787D01*
X192313Y-219937D01*
G01X156113Y-201937D02*
Y-192937D01*
X150563Y-199387D01*
X158063D01*
G01X163813Y-201937D02*
X164863Y-201787D01*
X166063Y-201337D01*
X166813Y-200587D01*
X167113Y-199537D01*
X166813Y-198487D01*
X165913Y-197587D01*
X164563Y-197137D01*
X163063D01*
X162163Y-196837D01*
X161413Y-196087D01*
X161113Y-195037D01*
X161563Y-193987D01*
X162613Y-193237D01*
X163813Y-192937D01*
X165013Y-193237D01*
X166063Y-193987D01*
X166513Y-195037D01*
X166213Y-196087D01*
X165463Y-196837D01*
X164563Y-197137D01*
X163063D01*
X161713Y-197587D01*
X160813Y-198487D01*
X160513Y-199537D01*
X160813Y-200587D01*
X161563Y-201337D01*
X162763Y-201787D01*
X163813Y-201937D01*
G01X173313Y-202237D02*
X173013Y-202087D01*
Y-201787D01*
X173313Y-201637D01*
X173613Y-201787D01*
Y-202087D01*
X173313Y-202237D01*
G01X182813Y-192937D02*
X181613Y-193237D01*
X180713Y-193987D01*
X180113Y-194887D01*
X179663Y-196087D01*
X179513Y-197437D01*
X179663Y-198787D01*
X180113Y-199987D01*
X180713Y-200887D01*
X181613Y-201637D01*
X182813Y-201937D01*
X184013Y-201637D01*
X184913Y-200887D01*
X185513Y-199987D01*
X185963Y-198787D01*
X186113Y-197437D01*
X185963Y-196087D01*
X185513Y-194887D01*
X184913Y-193987D01*
X184013Y-193237D01*
X182813Y-192937D01*
G01X156113Y-183937D02*
Y-174937D01*
X150563Y-181387D01*
X158063D01*
G01X163813Y-174937D02*
X162613Y-175237D01*
X161713Y-175987D01*
X161113Y-176887D01*
X160663Y-178087D01*
X160513Y-179437D01*
X160663Y-180787D01*
X161113Y-181987D01*
X161713Y-182887D01*
X162613Y-183637D01*
X163813Y-183937D01*
X165013Y-183637D01*
X165913Y-182887D01*
X166513Y-181987D01*
X166963Y-180787D01*
X167113Y-179437D01*
X166963Y-178087D01*
X166513Y-176887D01*
X165913Y-175987D01*
X165013Y-175237D01*
X163813Y-174937D01*
G01X173313Y-184237D02*
X173013Y-184087D01*
Y-183787D01*
X173313Y-183637D01*
X173613Y-183787D01*
Y-184087D01*
X173313Y-184237D01*
G01X182813Y-174937D02*
X181613Y-175237D01*
X180713Y-175987D01*
X180113Y-176887D01*
X179663Y-178087D01*
X179513Y-179437D01*
X179663Y-180787D01*
X180113Y-181987D01*
X180713Y-182887D01*
X181613Y-183637D01*
X182813Y-183937D01*
X184013Y-183637D01*
X184913Y-182887D01*
X185513Y-181987D01*
X185963Y-180787D01*
X186113Y-179437D01*
X185963Y-178087D01*
X185513Y-176887D01*
X184913Y-175987D01*
X184013Y-175237D01*
X182813Y-174937D01*
G01X154313Y-147937D02*
Y-138937D01*
X152513Y-140737D01*
G01Y-147937D02*
X156113D01*
G01X160963Y-144187D02*
X162013Y-143137D01*
X162913Y-142537D01*
X164113Y-142237D01*
X165163Y-142537D01*
X165913Y-143137D01*
X166513Y-144037D01*
X166663Y-145087D01*
X166513Y-145987D01*
X165913Y-146887D01*
X165013Y-147637D01*
X163963Y-147937D01*
X162763Y-147637D01*
X161713Y-146737D01*
X161113Y-145387D01*
X160963Y-143887D01*
X161263Y-141937D01*
X161713Y-140887D01*
X162463Y-139837D01*
X163513Y-139087D01*
X164563Y-138937D01*
X165613Y-139237D01*
X166363Y-139987D01*
G01X173313Y-148237D02*
X173013Y-148087D01*
Y-147787D01*
X173313Y-147637D01*
X173613Y-147787D01*
Y-148087D01*
X173313Y-148237D01*
G01X182813Y-138937D02*
X181613Y-139237D01*
X180713Y-139987D01*
X180113Y-140887D01*
X179663Y-142087D01*
X179513Y-143437D01*
X179663Y-144787D01*
X180113Y-145987D01*
X180713Y-146887D01*
X181613Y-147637D01*
X182813Y-147937D01*
X184013Y-147637D01*
X184913Y-146887D01*
X185513Y-145987D01*
X185963Y-144787D01*
X186113Y-143437D01*
X185963Y-142087D01*
X185513Y-140887D01*
X184913Y-139987D01*
X184013Y-139237D01*
X182813Y-138937D01*
G01X151013Y-164137D02*
X151913Y-165187D01*
X153113Y-165787D01*
X154463Y-165937D01*
X155663Y-165787D01*
X156863Y-165037D01*
X157613Y-164137D01*
X157763Y-163237D01*
X157463Y-162187D01*
X156413Y-161437D01*
X155363Y-161137D01*
X154013D01*
G01X155363D02*
X156263Y-160687D01*
X157013Y-159937D01*
X157313Y-159037D01*
X157013Y-158137D01*
X156263Y-157387D01*
X154913Y-156937D01*
X153563Y-157087D01*
X152213Y-157687D01*
G01X165613Y-165937D02*
Y-156937D01*
X160063Y-163387D01*
X167563D01*
G01X173313Y-166237D02*
X173013Y-166087D01*
Y-165787D01*
X173313Y-165637D01*
X173613Y-165787D01*
Y-166087D01*
X173313Y-166237D01*
G01X182813Y-156937D02*
X181613Y-157237D01*
X180713Y-157987D01*
X180113Y-158887D01*
X179663Y-160087D01*
X179513Y-161437D01*
X179663Y-162787D01*
X180113Y-163987D01*
X180713Y-164887D01*
X181613Y-165637D01*
X182813Y-165937D01*
X184013Y-165637D01*
X184913Y-164887D01*
X185513Y-163987D01*
X185963Y-162787D01*
X186113Y-161437D01*
X185963Y-160087D01*
X185513Y-158887D01*
X184913Y-157987D01*
X184013Y-157237D01*
X182813Y-156937D01*
G01X154313Y-129937D02*
Y-120937D01*
X152513Y-122737D01*
G01Y-129937D02*
X156113D01*
G01X160963Y-122437D02*
X161863Y-121537D01*
X162913Y-121087D01*
X164113Y-120937D01*
X165613Y-121237D01*
X166663Y-121987D01*
X166963Y-122887D01*
X166813Y-123787D01*
X166213Y-124537D01*
X163213Y-126037D01*
X161863Y-127087D01*
X160963Y-128587D01*
X160663Y-129937D01*
X166963D01*
G01X173313Y-130237D02*
X173013Y-130087D01*
Y-129787D01*
X173313Y-129637D01*
X173613Y-129787D01*
Y-130087D01*
X173313Y-130237D01*
G01X182813Y-120937D02*
X181613Y-121237D01*
X180713Y-121987D01*
X180113Y-122887D01*
X179663Y-124087D01*
X179513Y-125437D01*
X179663Y-126787D01*
X180113Y-127987D01*
X180713Y-128887D01*
X181613Y-129637D01*
X182813Y-129937D01*
X184013Y-129637D01*
X184913Y-128887D01*
X185513Y-127987D01*
X185963Y-126787D01*
X186113Y-125437D01*
X185963Y-124087D01*
X185513Y-122887D01*
X184913Y-121987D01*
X184013Y-121237D01*
X182813Y-120937D01*
G01X151163Y-110737D02*
X152363Y-111487D01*
X153713Y-111937D01*
X154913D01*
X156113Y-111487D01*
X157013Y-110737D01*
X157463Y-109687D01*
X157163Y-108637D01*
X156413Y-107737D01*
X155063Y-107137D01*
X153263Y-106837D01*
X152213Y-106237D01*
X151763Y-105187D01*
X152063Y-104137D01*
X152813Y-103387D01*
X153863Y-102937D01*
X154913D01*
X155963Y-103237D01*
X156863Y-103987D01*
G01X162013Y-102937D02*
X165613D01*
G01X163813D02*
Y-111937D01*
G01X162013D02*
X165613D01*
G01X170463Y-102937D02*
X176163D01*
X170463Y-111937D01*
X176163D01*
G01X185813D02*
X179813D01*
Y-102937D01*
X185813D01*
G01X183413Y-107287D02*
X179813D01*
G01X161013Y-68937D02*
Y-59937D01*
X164013D01*
X165213Y-60387D01*
X166113Y-60987D01*
X166863Y-61887D01*
X167463Y-62937D01*
X167613Y-64437D01*
X167463Y-65937D01*
X166863Y-66987D01*
X166113Y-67887D01*
X165213Y-68487D01*
X164013Y-68937D01*
X161013D01*
G01X170813D02*
Y-59937D01*
X174563D01*
X175763Y-60387D01*
X176513Y-60987D01*
X176813Y-62187D01*
X176513Y-63387D01*
X175613Y-64137D01*
X174563Y-64587D01*
X170813D01*
G01X174563D02*
X176813Y-68937D01*
G01X181513Y-59937D02*
X185113D01*
G01X183313D02*
Y-68937D01*
G01X181513D02*
X185113D01*
G01X189813Y-59937D02*
Y-68937D01*
X195813D01*
G01X199313Y-59937D02*
Y-68937D01*
X205313D01*
G01X224613Y-60687D02*
X223713Y-60237D01*
X222663Y-59937D01*
X221463D01*
X220113Y-60387D01*
X219063Y-61137D01*
X218313Y-62037D01*
X217713Y-63537D01*
X217563Y-64887D01*
X217863Y-66237D01*
X218313Y-67137D01*
X219213Y-68037D01*
X220263Y-68637D01*
X221313Y-68937D01*
X222363D01*
X223413Y-68637D01*
X224313Y-68187D01*
X225063Y-67587D01*
G01X227663Y-68937D02*
Y-59937D01*
G01X233963D02*
Y-68937D01*
G01Y-64437D02*
X227663D01*
G01X236563Y-68937D02*
X240313Y-59937D01*
X244063Y-68937D01*
G01X242713Y-65787D02*
X237913D01*
G01X246813Y-68937D02*
Y-59937D01*
X250563D01*
X251763Y-60387D01*
X252513Y-60987D01*
X252813Y-62187D01*
X252513Y-63387D01*
X251613Y-64137D01*
X250563Y-64587D01*
X246813D01*
G01X250563D02*
X252813Y-68937D01*
G01X259313Y-59937D02*
Y-68937D01*
G01X255863Y-59937D02*
X262763D01*
G01X268813Y-69237D02*
X268513Y-69087D01*
Y-68787D01*
X268813Y-68637D01*
X269113Y-68787D01*
Y-69087D01*
X268813Y-69237D01*
G01Y-65187D02*
X268513Y-65037D01*
Y-64737D01*
X268813Y-64587D01*
X269113Y-64737D01*
Y-65037D01*
X268813Y-65187D01*
G01X287813Y-59937D02*
Y-68937D01*
G01X284363Y-59937D02*
X291263D01*
G01X297313Y-68937D02*
X296113Y-68787D01*
X295063Y-68187D01*
X294163Y-67287D01*
X293563Y-66237D01*
X293263Y-65037D01*
Y-63837D01*
X293563Y-62637D01*
X294163Y-61587D01*
X295063Y-60687D01*
X296113Y-60087D01*
X297313Y-59937D01*
X298513Y-60087D01*
X299563Y-60687D01*
X300463Y-61587D01*
X301063Y-62637D01*
X301363Y-63837D01*
Y-65037D01*
X301063Y-66237D01*
X300463Y-67287D01*
X299563Y-68187D01*
X298513Y-68787D01*
X297313Y-68937D01*
G01X303813D02*
Y-59937D01*
X307413D01*
X308613Y-60387D01*
X309513Y-61437D01*
X309813Y-62637D01*
X309513Y-63837D01*
X308763Y-64737D01*
X307413Y-65187D01*
X303813D01*
G01X325813Y-59937D02*
Y-68937D01*
G01X323713Y-62937D02*
X327913D01*
G01X335313Y-68937D02*
X334413Y-68787D01*
X333513Y-68187D01*
X332913Y-67137D01*
X332613Y-65937D01*
X332913Y-64737D01*
X333513Y-63687D01*
X334413Y-63087D01*
X335313Y-62937D01*
X336213Y-63087D01*
X337113Y-63687D01*
X337713Y-64737D01*
X337863Y-65937D01*
X337713Y-67137D01*
X337113Y-68187D01*
X336213Y-68787D01*
X335313Y-68937D01*
G01X355513Y-64137D02*
X356113Y-63687D01*
X356563Y-62937D01*
X356863Y-61887D01*
X356563Y-60987D01*
X355963Y-60387D01*
X354913Y-59937D01*
X350863D01*
Y-68937D01*
X355813D01*
X356863Y-68337D01*
X357463Y-67437D01*
X357763Y-66387D01*
X357463Y-65337D01*
X356563Y-64437D01*
X355513Y-64137D01*
X350863D01*
G01X363813Y-68937D02*
X362613Y-68787D01*
X361563Y-68187D01*
X360663Y-67287D01*
X360063Y-66237D01*
X359763Y-65037D01*
Y-63837D01*
X360063Y-62637D01*
X360663Y-61587D01*
X361563Y-60687D01*
X362613Y-60087D01*
X363813Y-59937D01*
X365013Y-60087D01*
X366063Y-60687D01*
X366963Y-61587D01*
X367563Y-62637D01*
X367863Y-63837D01*
Y-65037D01*
X367563Y-66237D01*
X366963Y-67287D01*
X366063Y-68187D01*
X365013Y-68787D01*
X363813Y-68937D01*
G01X373313Y-59937D02*
Y-68937D01*
G01X369863Y-59937D02*
X376763D01*
G01X382813D02*
Y-68937D01*
G01X379363Y-59937D02*
X386263D01*
G01X392313Y-68937D02*
X391113Y-68787D01*
X390063Y-68187D01*
X389163Y-67287D01*
X388563Y-66237D01*
X388263Y-65037D01*
Y-63837D01*
X388563Y-62637D01*
X389163Y-61587D01*
X390063Y-60687D01*
X391113Y-60087D01*
X392313Y-59937D01*
X393513Y-60087D01*
X394563Y-60687D01*
X395463Y-61587D01*
X396063Y-62637D01*
X396363Y-63837D01*
Y-65037D01*
X396063Y-66237D01*
X395463Y-67287D01*
X394563Y-68187D01*
X393513Y-68787D01*
X392313Y-68937D01*
G01X397913D02*
Y-59937D01*
X401813Y-67437D01*
X405713Y-59937D01*
Y-68937D01*
G01X184313Y-93937D02*
X188063Y-84937D01*
X191813Y-93937D01*
G01X190463Y-90787D02*
X185663D01*
G01X194563Y-84937D02*
Y-93937D01*
X200563D01*
G01X204063Y-84937D02*
Y-93937D01*
X210063D01*
G01X222763Y-84937D02*
Y-91387D01*
X223363Y-92737D01*
X224563Y-93637D01*
X226063Y-93937D01*
X227563Y-93637D01*
X228763Y-92737D01*
X229363Y-91387D01*
Y-84937D01*
G01X232113Y-93937D02*
Y-84937D01*
X239013Y-93937D01*
Y-84937D01*
G01X243263D02*
X246863D01*
G01X245063D02*
Y-93937D01*
G01X243263D02*
X246863D01*
G01X254563Y-84937D02*
Y-93937D01*
G01X251113Y-84937D02*
X258013D01*
G01X260913Y-92737D02*
X262113Y-93487D01*
X263463Y-93937D01*
X264663D01*
X265863Y-93487D01*
X266763Y-92737D01*
X267213Y-91687D01*
X266913Y-90637D01*
X266163Y-89737D01*
X264813Y-89137D01*
X263013Y-88837D01*
X261963Y-88237D01*
X261513Y-87187D01*
X261813Y-86137D01*
X262563Y-85387D01*
X263613Y-84937D01*
X264663D01*
X265713Y-85237D01*
X266613Y-85987D01*
G01X279313Y-93937D02*
X283063Y-84937D01*
X286813Y-93937D01*
G01X285463Y-90787D02*
X280663D01*
G01X289563Y-93937D02*
Y-84937D01*
X293313D01*
X294513Y-85387D01*
X295263Y-85987D01*
X295563Y-87187D01*
X295263Y-88387D01*
X294363Y-89137D01*
X293313Y-89587D01*
X289563D01*
G01X293313D02*
X295563Y-93937D01*
G01X305063D02*
X299063D01*
Y-84937D01*
X305063D01*
G01X302663Y-89287D02*
X299063D01*
G01X319263Y-84937D02*
X322863D01*
G01X321063D02*
Y-93937D01*
G01X319263D02*
X322863D01*
G01X327113D02*
Y-84937D01*
X334013Y-93937D01*
Y-84937D01*
G01X345663Y-93937D02*
Y-84937D01*
X349563Y-92437D01*
X353463Y-84937D01*
Y-93937D01*
G01X357263Y-84937D02*
X360863D01*
G01X359063D02*
Y-93937D01*
G01X357263D02*
X360863D01*
G01X365563Y-84937D02*
Y-93937D01*
X371563D01*
G01X374913Y-92737D02*
X376113Y-93487D01*
X377463Y-93937D01*
X378663D01*
X379863Y-93487D01*
X380763Y-92737D01*
X381213Y-91687D01*
X380913Y-90637D01*
X380163Y-89737D01*
X378813Y-89137D01*
X377013Y-88837D01*
X375963Y-88237D01*
X375513Y-87187D01*
X375813Y-86137D01*
X376563Y-85387D01*
X377613Y-84937D01*
X378663D01*
X379713Y-85237D01*
X380613Y-85987D01*
G01X271913Y-270937D02*
X275513D01*
G01X273563Y-268987D02*
Y-272887D01*
G01X283063Y-264937D02*
X281863Y-265237D01*
X280963Y-265987D01*
X280363Y-266887D01*
X279913Y-268087D01*
X279763Y-269437D01*
X279913Y-270787D01*
X280363Y-271987D01*
X280963Y-272887D01*
X281863Y-273637D01*
X283063Y-273937D01*
X284263Y-273637D01*
X285163Y-272887D01*
X285763Y-271987D01*
X286213Y-270787D01*
X286363Y-269437D01*
X286213Y-268087D01*
X285763Y-266887D01*
X285163Y-265987D01*
X284263Y-265237D01*
X283063Y-264937D01*
G01X292563Y-274237D02*
X292263Y-274087D01*
Y-273787D01*
X292563Y-273637D01*
X292863Y-273787D01*
Y-274087D01*
X292563Y-274237D01*
G01X302063Y-264937D02*
X300863Y-265237D01*
X299963Y-265987D01*
X299363Y-266887D01*
X298913Y-268087D01*
X298763Y-269437D01*
X298913Y-270787D01*
X299363Y-271987D01*
X299963Y-272887D01*
X300863Y-273637D01*
X302063Y-273937D01*
X303263Y-273637D01*
X304163Y-272887D01*
X304763Y-271987D01*
X305213Y-270787D01*
X305363Y-269437D01*
X305213Y-268087D01*
X304763Y-266887D01*
X304163Y-265987D01*
X303263Y-265237D01*
X302063Y-264937D01*
G01X308863Y-274237D02*
X314263Y-264937D01*
G01X319113Y-270937D02*
X323013D01*
G01X330563Y-264937D02*
X329363Y-265237D01*
X328463Y-265987D01*
X327863Y-266887D01*
X327413Y-268087D01*
X327263Y-269437D01*
X327413Y-270787D01*
X327863Y-271987D01*
X328463Y-272887D01*
X329363Y-273637D01*
X330563Y-273937D01*
X331763Y-273637D01*
X332663Y-272887D01*
X333263Y-271987D01*
X333713Y-270787D01*
X333863Y-269437D01*
X333713Y-268087D01*
X333263Y-266887D01*
X332663Y-265987D01*
X331763Y-265237D01*
X330563Y-264937D01*
G01X340063Y-274237D02*
X339763Y-274087D01*
Y-273787D01*
X340063Y-273637D01*
X340363Y-273787D01*
Y-274087D01*
X340063Y-274237D01*
G01X349563Y-264937D02*
X348363Y-265237D01*
X347463Y-265987D01*
X346863Y-266887D01*
X346413Y-268087D01*
X346263Y-269437D01*
X346413Y-270787D01*
X346863Y-271987D01*
X347463Y-272887D01*
X348363Y-273637D01*
X349563Y-273937D01*
X350763Y-273637D01*
X351663Y-272887D01*
X352263Y-271987D01*
X352713Y-270787D01*
X352863Y-269437D01*
X352713Y-268087D01*
X352263Y-266887D01*
X351663Y-265987D01*
X350763Y-265237D01*
X349563Y-264937D01*
G01X271913Y-252937D02*
X275513D01*
G01X273563Y-250987D02*
Y-254887D01*
G01X283063Y-246937D02*
X281863Y-247237D01*
X280963Y-247987D01*
X280363Y-248887D01*
X279913Y-250087D01*
X279763Y-251437D01*
X279913Y-252787D01*
X280363Y-253987D01*
X280963Y-254887D01*
X281863Y-255637D01*
X283063Y-255937D01*
X284263Y-255637D01*
X285163Y-254887D01*
X285763Y-253987D01*
X286213Y-252787D01*
X286363Y-251437D01*
X286213Y-250087D01*
X285763Y-248887D01*
X285163Y-247987D01*
X284263Y-247237D01*
X283063Y-246937D01*
G01X292563Y-256237D02*
X292263Y-256087D01*
Y-255787D01*
X292563Y-255637D01*
X292863Y-255787D01*
Y-256087D01*
X292563Y-256237D01*
G01X302063Y-246937D02*
X300863Y-247237D01*
X299963Y-247987D01*
X299363Y-248887D01*
X298913Y-250087D01*
X298763Y-251437D01*
X298913Y-252787D01*
X299363Y-253987D01*
X299963Y-254887D01*
X300863Y-255637D01*
X302063Y-255937D01*
X303263Y-255637D01*
X304163Y-254887D01*
X304763Y-253987D01*
X305213Y-252787D01*
X305363Y-251437D01*
X305213Y-250087D01*
X304763Y-248887D01*
X304163Y-247987D01*
X303263Y-247237D01*
X302063Y-246937D01*
G01X308863Y-256237D02*
X314263Y-246937D01*
G01X319113Y-252937D02*
X323013D01*
G01X330563Y-246937D02*
X329363Y-247237D01*
X328463Y-247987D01*
X327863Y-248887D01*
X327413Y-250087D01*
X327263Y-251437D01*
X327413Y-252787D01*
X327863Y-253987D01*
X328463Y-254887D01*
X329363Y-255637D01*
X330563Y-255937D01*
X331763Y-255637D01*
X332663Y-254887D01*
X333263Y-253987D01*
X333713Y-252787D01*
X333863Y-251437D01*
X333713Y-250087D01*
X333263Y-248887D01*
X332663Y-247987D01*
X331763Y-247237D01*
X330563Y-246937D01*
G01X340063Y-256237D02*
X339763Y-256087D01*
Y-255787D01*
X340063Y-255637D01*
X340363Y-255787D01*
Y-256087D01*
X340063Y-256237D01*
G01X349563Y-246937D02*
X348363Y-247237D01*
X347463Y-247987D01*
X346863Y-248887D01*
X346413Y-250087D01*
X346263Y-251437D01*
X346413Y-252787D01*
X346863Y-253987D01*
X347463Y-254887D01*
X348363Y-255637D01*
X349563Y-255937D01*
X350763Y-255637D01*
X351663Y-254887D01*
X352263Y-253987D01*
X352713Y-252787D01*
X352863Y-251437D01*
X352713Y-250087D01*
X352263Y-248887D01*
X351663Y-247987D01*
X350763Y-247237D01*
X349563Y-246937D01*
G01X271913Y-234937D02*
X275513D01*
G01X273563Y-232987D02*
Y-236887D01*
G01X283063Y-228937D02*
X281863Y-229237D01*
X280963Y-229987D01*
X280363Y-230887D01*
X279913Y-232087D01*
X279763Y-233437D01*
X279913Y-234787D01*
X280363Y-235987D01*
X280963Y-236887D01*
X281863Y-237637D01*
X283063Y-237937D01*
X284263Y-237637D01*
X285163Y-236887D01*
X285763Y-235987D01*
X286213Y-234787D01*
X286363Y-233437D01*
X286213Y-232087D01*
X285763Y-230887D01*
X285163Y-229987D01*
X284263Y-229237D01*
X283063Y-228937D01*
G01X292563Y-238237D02*
X292263Y-238087D01*
Y-237787D01*
X292563Y-237637D01*
X292863Y-237787D01*
Y-238087D01*
X292563Y-238237D01*
G01X302063Y-228937D02*
X300863Y-229237D01*
X299963Y-229987D01*
X299363Y-230887D01*
X298913Y-232087D01*
X298763Y-233437D01*
X298913Y-234787D01*
X299363Y-235987D01*
X299963Y-236887D01*
X300863Y-237637D01*
X302063Y-237937D01*
X303263Y-237637D01*
X304163Y-236887D01*
X304763Y-235987D01*
X305213Y-234787D01*
X305363Y-233437D01*
X305213Y-232087D01*
X304763Y-230887D01*
X304163Y-229987D01*
X303263Y-229237D01*
X302063Y-228937D01*
G01X308863Y-238237D02*
X314263Y-228937D01*
G01X319113Y-234937D02*
X323013D01*
G01X330563Y-228937D02*
X329363Y-229237D01*
X328463Y-229987D01*
X327863Y-230887D01*
X327413Y-232087D01*
X327263Y-233437D01*
X327413Y-234787D01*
X327863Y-235987D01*
X328463Y-236887D01*
X329363Y-237637D01*
X330563Y-237937D01*
X331763Y-237637D01*
X332663Y-236887D01*
X333263Y-235987D01*
X333713Y-234787D01*
X333863Y-233437D01*
X333713Y-232087D01*
X333263Y-230887D01*
X332663Y-229987D01*
X331763Y-229237D01*
X330563Y-228937D01*
G01X340063Y-238237D02*
X339763Y-238087D01*
Y-237787D01*
X340063Y-237637D01*
X340363Y-237787D01*
Y-238087D01*
X340063Y-238237D01*
G01X349563Y-228937D02*
X348363Y-229237D01*
X347463Y-229987D01*
X346863Y-230887D01*
X346413Y-232087D01*
X346263Y-233437D01*
X346413Y-234787D01*
X346863Y-235987D01*
X347463Y-236887D01*
X348363Y-237637D01*
X349563Y-237937D01*
X350763Y-237637D01*
X351663Y-236887D01*
X352263Y-235987D01*
X352713Y-234787D01*
X352863Y-233437D01*
X352713Y-232087D01*
X352263Y-230887D01*
X351663Y-229987D01*
X350763Y-229237D01*
X349563Y-228937D01*
G01X271913Y-216937D02*
X275513D01*
G01X273563Y-214987D02*
Y-218887D01*
G01X283063Y-210937D02*
X281863Y-211237D01*
X280963Y-211987D01*
X280363Y-212887D01*
X279913Y-214087D01*
X279763Y-215437D01*
X279913Y-216787D01*
X280363Y-217987D01*
X280963Y-218887D01*
X281863Y-219637D01*
X283063Y-219937D01*
X284263Y-219637D01*
X285163Y-218887D01*
X285763Y-217987D01*
X286213Y-216787D01*
X286363Y-215437D01*
X286213Y-214087D01*
X285763Y-212887D01*
X285163Y-211987D01*
X284263Y-211237D01*
X283063Y-210937D01*
G01X292563Y-220237D02*
X292263Y-220087D01*
Y-219787D01*
X292563Y-219637D01*
X292863Y-219787D01*
Y-220087D01*
X292563Y-220237D01*
G01X302063Y-210937D02*
X300863Y-211237D01*
X299963Y-211987D01*
X299363Y-212887D01*
X298913Y-214087D01*
X298763Y-215437D01*
X298913Y-216787D01*
X299363Y-217987D01*
X299963Y-218887D01*
X300863Y-219637D01*
X302063Y-219937D01*
X303263Y-219637D01*
X304163Y-218887D01*
X304763Y-217987D01*
X305213Y-216787D01*
X305363Y-215437D01*
X305213Y-214087D01*
X304763Y-212887D01*
X304163Y-211987D01*
X303263Y-211237D01*
X302063Y-210937D01*
G01X308863Y-220237D02*
X314263Y-210937D01*
G01X319113Y-216937D02*
X323013D01*
G01X330563Y-210937D02*
X329363Y-211237D01*
X328463Y-211987D01*
X327863Y-212887D01*
X327413Y-214087D01*
X327263Y-215437D01*
X327413Y-216787D01*
X327863Y-217987D01*
X328463Y-218887D01*
X329363Y-219637D01*
X330563Y-219937D01*
X331763Y-219637D01*
X332663Y-218887D01*
X333263Y-217987D01*
X333713Y-216787D01*
X333863Y-215437D01*
X333713Y-214087D01*
X333263Y-212887D01*
X332663Y-211987D01*
X331763Y-211237D01*
X330563Y-210937D01*
G01X340063Y-220237D02*
X339763Y-220087D01*
Y-219787D01*
X340063Y-219637D01*
X340363Y-219787D01*
Y-220087D01*
X340063Y-220237D01*
G01X349563Y-210937D02*
X348363Y-211237D01*
X347463Y-211987D01*
X346863Y-212887D01*
X346413Y-214087D01*
X346263Y-215437D01*
X346413Y-216787D01*
X346863Y-217987D01*
X347463Y-218887D01*
X348363Y-219637D01*
X349563Y-219937D01*
X350763Y-219637D01*
X351663Y-218887D01*
X352263Y-217987D01*
X352713Y-216787D01*
X352863Y-215437D01*
X352713Y-214087D01*
X352263Y-212887D01*
X351663Y-211987D01*
X350763Y-211237D01*
X349563Y-210937D01*
G01X271913Y-198937D02*
X275513D01*
G01X273563Y-196987D02*
Y-200887D01*
G01X283063Y-192937D02*
X281863Y-193237D01*
X280963Y-193987D01*
X280363Y-194887D01*
X279913Y-196087D01*
X279763Y-197437D01*
X279913Y-198787D01*
X280363Y-199987D01*
X280963Y-200887D01*
X281863Y-201637D01*
X283063Y-201937D01*
X284263Y-201637D01*
X285163Y-200887D01*
X285763Y-199987D01*
X286213Y-198787D01*
X286363Y-197437D01*
X286213Y-196087D01*
X285763Y-194887D01*
X285163Y-193987D01*
X284263Y-193237D01*
X283063Y-192937D01*
G01X292563Y-202237D02*
X292263Y-202087D01*
Y-201787D01*
X292563Y-201637D01*
X292863Y-201787D01*
Y-202087D01*
X292563Y-202237D01*
G01X302063Y-192937D02*
X300863Y-193237D01*
X299963Y-193987D01*
X299363Y-194887D01*
X298913Y-196087D01*
X298763Y-197437D01*
X298913Y-198787D01*
X299363Y-199987D01*
X299963Y-200887D01*
X300863Y-201637D01*
X302063Y-201937D01*
X303263Y-201637D01*
X304163Y-200887D01*
X304763Y-199987D01*
X305213Y-198787D01*
X305363Y-197437D01*
X305213Y-196087D01*
X304763Y-194887D01*
X304163Y-193987D01*
X303263Y-193237D01*
X302063Y-192937D01*
G01X308863Y-202237D02*
X314263Y-192937D01*
G01X319113Y-198937D02*
X323013D01*
G01X330563Y-192937D02*
X329363Y-193237D01*
X328463Y-193987D01*
X327863Y-194887D01*
X327413Y-196087D01*
X327263Y-197437D01*
X327413Y-198787D01*
X327863Y-199987D01*
X328463Y-200887D01*
X329363Y-201637D01*
X330563Y-201937D01*
X331763Y-201637D01*
X332663Y-200887D01*
X333263Y-199987D01*
X333713Y-198787D01*
X333863Y-197437D01*
X333713Y-196087D01*
X333263Y-194887D01*
X332663Y-193987D01*
X331763Y-193237D01*
X330563Y-192937D01*
G01X340063Y-202237D02*
X339763Y-202087D01*
Y-201787D01*
X340063Y-201637D01*
X340363Y-201787D01*
Y-202087D01*
X340063Y-202237D01*
G01X349563Y-192937D02*
X348363Y-193237D01*
X347463Y-193987D01*
X346863Y-194887D01*
X346413Y-196087D01*
X346263Y-197437D01*
X346413Y-198787D01*
X346863Y-199987D01*
X347463Y-200887D01*
X348363Y-201637D01*
X349563Y-201937D01*
X350763Y-201637D01*
X351663Y-200887D01*
X352263Y-199987D01*
X352713Y-198787D01*
X352863Y-197437D01*
X352713Y-196087D01*
X352263Y-194887D01*
X351663Y-193987D01*
X350763Y-193237D01*
X349563Y-192937D01*
G01X271913Y-180937D02*
X275513D01*
G01X273563Y-178987D02*
Y-182887D01*
G01X279763Y-182137D02*
X280663Y-183187D01*
X281863Y-183787D01*
X283213Y-183937D01*
X284413Y-183787D01*
X285613Y-183037D01*
X286363Y-182137D01*
X286513Y-181237D01*
X286213Y-180187D01*
X285163Y-179437D01*
X284113Y-179137D01*
X282763D01*
G01X284113D02*
X285013Y-178687D01*
X285763Y-177937D01*
X286063Y-177037D01*
X285763Y-176137D01*
X285013Y-175387D01*
X283663Y-174937D01*
X282313Y-175087D01*
X280963Y-175687D01*
G01X292563Y-184237D02*
X292263Y-184087D01*
Y-183787D01*
X292563Y-183637D01*
X292863Y-183787D01*
Y-184087D01*
X292563Y-184237D01*
G01X302063Y-174937D02*
X300863Y-175237D01*
X299963Y-175987D01*
X299363Y-176887D01*
X298913Y-178087D01*
X298763Y-179437D01*
X298913Y-180787D01*
X299363Y-181987D01*
X299963Y-182887D01*
X300863Y-183637D01*
X302063Y-183937D01*
X303263Y-183637D01*
X304163Y-182887D01*
X304763Y-181987D01*
X305213Y-180787D01*
X305363Y-179437D01*
X305213Y-178087D01*
X304763Y-176887D01*
X304163Y-175987D01*
X303263Y-175237D01*
X302063Y-174937D01*
G01X308863Y-184237D02*
X314263Y-174937D01*
G01X319113Y-180937D02*
X323013D01*
G01X327263Y-182137D02*
X328163Y-183187D01*
X329363Y-183787D01*
X330713Y-183937D01*
X331913Y-183787D01*
X333113Y-183037D01*
X333863Y-182137D01*
X334013Y-181237D01*
X333713Y-180187D01*
X332663Y-179437D01*
X331613Y-179137D01*
X330263D01*
G01X331613D02*
X332513Y-178687D01*
X333263Y-177937D01*
X333563Y-177037D01*
X333263Y-176137D01*
X332513Y-175387D01*
X331163Y-174937D01*
X329813Y-175087D01*
X328463Y-175687D01*
G01X340063Y-184237D02*
X339763Y-184087D01*
Y-183787D01*
X340063Y-183637D01*
X340363Y-183787D01*
Y-184087D01*
X340063Y-184237D01*
G01X349563Y-174937D02*
X348363Y-175237D01*
X347463Y-175987D01*
X346863Y-176887D01*
X346413Y-178087D01*
X346263Y-179437D01*
X346413Y-180787D01*
X346863Y-181987D01*
X347463Y-182887D01*
X348363Y-183637D01*
X349563Y-183937D01*
X350763Y-183637D01*
X351663Y-182887D01*
X352263Y-181987D01*
X352713Y-180787D01*
X352863Y-179437D01*
X352713Y-178087D01*
X352263Y-176887D01*
X351663Y-175987D01*
X350763Y-175237D01*
X349563Y-174937D01*
G01X271913Y-144937D02*
X275513D01*
G01X273563Y-142987D02*
Y-146887D01*
G01X283063Y-138937D02*
X281863Y-139237D01*
X280963Y-139987D01*
X280363Y-140887D01*
X279913Y-142087D01*
X279763Y-143437D01*
X279913Y-144787D01*
X280363Y-145987D01*
X280963Y-146887D01*
X281863Y-147637D01*
X283063Y-147937D01*
X284263Y-147637D01*
X285163Y-146887D01*
X285763Y-145987D01*
X286213Y-144787D01*
X286363Y-143437D01*
X286213Y-142087D01*
X285763Y-140887D01*
X285163Y-139987D01*
X284263Y-139237D01*
X283063Y-138937D01*
G01X292563Y-148237D02*
X292263Y-148087D01*
Y-147787D01*
X292563Y-147637D01*
X292863Y-147787D01*
Y-148087D01*
X292563Y-148237D01*
G01X302063Y-138937D02*
X300863Y-139237D01*
X299963Y-139987D01*
X299363Y-140887D01*
X298913Y-142087D01*
X298763Y-143437D01*
X298913Y-144787D01*
X299363Y-145987D01*
X299963Y-146887D01*
X300863Y-147637D01*
X302063Y-147937D01*
X303263Y-147637D01*
X304163Y-146887D01*
X304763Y-145987D01*
X305213Y-144787D01*
X305363Y-143437D01*
X305213Y-142087D01*
X304763Y-140887D01*
X304163Y-139987D01*
X303263Y-139237D01*
X302063Y-138937D01*
G01X308863Y-148237D02*
X314263Y-138937D01*
G01X319113Y-144937D02*
X323013D01*
G01X330563Y-138937D02*
X329363Y-139237D01*
X328463Y-139987D01*
X327863Y-140887D01*
X327413Y-142087D01*
X327263Y-143437D01*
X327413Y-144787D01*
X327863Y-145987D01*
X328463Y-146887D01*
X329363Y-147637D01*
X330563Y-147937D01*
X331763Y-147637D01*
X332663Y-146887D01*
X333263Y-145987D01*
X333713Y-144787D01*
X333863Y-143437D01*
X333713Y-142087D01*
X333263Y-140887D01*
X332663Y-139987D01*
X331763Y-139237D01*
X330563Y-138937D01*
G01X340063Y-148237D02*
X339763Y-148087D01*
Y-147787D01*
X340063Y-147637D01*
X340363Y-147787D01*
Y-148087D01*
X340063Y-148237D01*
G01X349563Y-138937D02*
X348363Y-139237D01*
X347463Y-139987D01*
X346863Y-140887D01*
X346413Y-142087D01*
X346263Y-143437D01*
X346413Y-144787D01*
X346863Y-145987D01*
X347463Y-146887D01*
X348363Y-147637D01*
X349563Y-147937D01*
X350763Y-147637D01*
X351663Y-146887D01*
X352263Y-145987D01*
X352713Y-144787D01*
X352863Y-143437D01*
X352713Y-142087D01*
X352263Y-140887D01*
X351663Y-139987D01*
X350763Y-139237D01*
X349563Y-138937D01*
G01X271913Y-162937D02*
X275513D01*
G01X273563Y-160987D02*
Y-164887D01*
G01X283063Y-156937D02*
X281863Y-157237D01*
X280963Y-157987D01*
X280363Y-158887D01*
X279913Y-160087D01*
X279763Y-161437D01*
X279913Y-162787D01*
X280363Y-163987D01*
X280963Y-164887D01*
X281863Y-165637D01*
X283063Y-165937D01*
X284263Y-165637D01*
X285163Y-164887D01*
X285763Y-163987D01*
X286213Y-162787D01*
X286363Y-161437D01*
X286213Y-160087D01*
X285763Y-158887D01*
X285163Y-157987D01*
X284263Y-157237D01*
X283063Y-156937D01*
G01X292563Y-166237D02*
X292263Y-166087D01*
Y-165787D01*
X292563Y-165637D01*
X292863Y-165787D01*
Y-166087D01*
X292563Y-166237D01*
G01X302063Y-156937D02*
X300863Y-157237D01*
X299963Y-157987D01*
X299363Y-158887D01*
X298913Y-160087D01*
X298763Y-161437D01*
X298913Y-162787D01*
X299363Y-163987D01*
X299963Y-164887D01*
X300863Y-165637D01*
X302063Y-165937D01*
X303263Y-165637D01*
X304163Y-164887D01*
X304763Y-163987D01*
X305213Y-162787D01*
X305363Y-161437D01*
X305213Y-160087D01*
X304763Y-158887D01*
X304163Y-157987D01*
X303263Y-157237D01*
X302063Y-156937D01*
G01X308863Y-166237D02*
X314263Y-156937D01*
G01X319113Y-162937D02*
X323013D01*
G01X330563Y-156937D02*
X329363Y-157237D01*
X328463Y-157987D01*
X327863Y-158887D01*
X327413Y-160087D01*
X327263Y-161437D01*
X327413Y-162787D01*
X327863Y-163987D01*
X328463Y-164887D01*
X329363Y-165637D01*
X330563Y-165937D01*
X331763Y-165637D01*
X332663Y-164887D01*
X333263Y-163987D01*
X333713Y-162787D01*
X333863Y-161437D01*
X333713Y-160087D01*
X333263Y-158887D01*
X332663Y-157987D01*
X331763Y-157237D01*
X330563Y-156937D01*
G01X340063Y-166237D02*
X339763Y-166087D01*
Y-165787D01*
X340063Y-165637D01*
X340363Y-165787D01*
Y-166087D01*
X340063Y-166237D01*
G01X349563Y-156937D02*
X348363Y-157237D01*
X347463Y-157987D01*
X346863Y-158887D01*
X346413Y-160087D01*
X346263Y-161437D01*
X346413Y-162787D01*
X346863Y-163987D01*
X347463Y-164887D01*
X348363Y-165637D01*
X349563Y-165937D01*
X350763Y-165637D01*
X351663Y-164887D01*
X352263Y-163987D01*
X352713Y-162787D01*
X352863Y-161437D01*
X352713Y-160087D01*
X352263Y-158887D01*
X351663Y-157987D01*
X350763Y-157237D01*
X349563Y-156937D01*
G01X271913Y-126937D02*
X275513D01*
G01X273563Y-124987D02*
Y-128887D01*
G01X279763Y-128137D02*
X280663Y-129187D01*
X281863Y-129787D01*
X283213Y-129937D01*
X284413Y-129787D01*
X285613Y-129037D01*
X286363Y-128137D01*
X286513Y-127237D01*
X286213Y-126187D01*
X285163Y-125437D01*
X284113Y-125137D01*
X282763D01*
G01X284113D02*
X285013Y-124687D01*
X285763Y-123937D01*
X286063Y-123037D01*
X285763Y-122137D01*
X285013Y-121387D01*
X283663Y-120937D01*
X282313Y-121087D01*
X280963Y-121687D01*
G01X292563Y-130237D02*
X292263Y-130087D01*
Y-129787D01*
X292563Y-129637D01*
X292863Y-129787D01*
Y-130087D01*
X292563Y-130237D01*
G01X302063Y-120937D02*
X300863Y-121237D01*
X299963Y-121987D01*
X299363Y-122887D01*
X298913Y-124087D01*
X298763Y-125437D01*
X298913Y-126787D01*
X299363Y-127987D01*
X299963Y-128887D01*
X300863Y-129637D01*
X302063Y-129937D01*
X303263Y-129637D01*
X304163Y-128887D01*
X304763Y-127987D01*
X305213Y-126787D01*
X305363Y-125437D01*
X305213Y-124087D01*
X304763Y-122887D01*
X304163Y-121987D01*
X303263Y-121237D01*
X302063Y-120937D01*
G01X308863Y-130237D02*
X314263Y-120937D01*
G01X319113Y-126937D02*
X323013D01*
G01X327263Y-128137D02*
X328163Y-129187D01*
X329363Y-129787D01*
X330713Y-129937D01*
X331913Y-129787D01*
X333113Y-129037D01*
X333863Y-128137D01*
X334013Y-127237D01*
X333713Y-126187D01*
X332663Y-125437D01*
X331613Y-125137D01*
X330263D01*
G01X331613D02*
X332513Y-124687D01*
X333263Y-123937D01*
X333563Y-123037D01*
X333263Y-122137D01*
X332513Y-121387D01*
X331163Y-120937D01*
X329813Y-121087D01*
X328463Y-121687D01*
G01X340063Y-130237D02*
X339763Y-130087D01*
Y-129787D01*
X340063Y-129637D01*
X340363Y-129787D01*
Y-130087D01*
X340063Y-130237D01*
G01X349563Y-120937D02*
X348363Y-121237D01*
X347463Y-121987D01*
X346863Y-122887D01*
X346413Y-124087D01*
X346263Y-125437D01*
X346413Y-126787D01*
X346863Y-127987D01*
X347463Y-128887D01*
X348363Y-129637D01*
X349563Y-129937D01*
X350763Y-129637D01*
X351663Y-128887D01*
X352263Y-127987D01*
X352713Y-126787D01*
X352863Y-125437D01*
X352713Y-124087D01*
X352263Y-122887D01*
X351663Y-121987D01*
X350763Y-121237D01*
X349563Y-120937D01*
G01X273563Y-102937D02*
Y-111937D01*
G01X270113Y-102937D02*
X277013D01*
G01X283063Y-111937D02*
X281863Y-111787D01*
X280813Y-111187D01*
X279913Y-110287D01*
X279313Y-109237D01*
X279013Y-108037D01*
Y-106837D01*
X279313Y-105637D01*
X279913Y-104587D01*
X280813Y-103687D01*
X281863Y-103087D01*
X283063Y-102937D01*
X284263Y-103087D01*
X285313Y-103687D01*
X286213Y-104587D01*
X286813Y-105637D01*
X287113Y-106837D01*
Y-108037D01*
X286813Y-109237D01*
X286213Y-110287D01*
X285313Y-111187D01*
X284263Y-111787D01*
X283063Y-111937D01*
G01X289563Y-102937D02*
Y-111937D01*
X295563D01*
G01X305063D02*
X299063D01*
Y-102937D01*
X305063D01*
G01X302663Y-107287D02*
X299063D01*
G01X308563Y-111937D02*
Y-102937D01*
X312313D01*
X313513Y-103387D01*
X314263Y-103987D01*
X314563Y-105187D01*
X314263Y-106387D01*
X313363Y-107137D01*
X312313Y-107587D01*
X308563D01*
G01X312313D02*
X314563Y-111937D01*
G01X317313D02*
X321063Y-102937D01*
X324813Y-111937D01*
G01X323463Y-108787D02*
X318663D01*
G01X327113Y-111937D02*
Y-102937D01*
X334013Y-111937D01*
Y-102937D01*
G01X343363Y-103687D02*
X342463Y-103237D01*
X341413Y-102937D01*
X340213D01*
X338863Y-103387D01*
X337813Y-104137D01*
X337063Y-105037D01*
X336463Y-106537D01*
X336313Y-107887D01*
X336613Y-109237D01*
X337063Y-110137D01*
X337963Y-111037D01*
X339013Y-111637D01*
X340063Y-111937D01*
X341113D01*
X342163Y-111637D01*
X343063Y-111187D01*
X343813Y-110587D01*
G01X352563Y-111937D02*
X346563D01*
Y-102937D01*
X352563D01*
G01X350163Y-107287D02*
X346563D01*
G01X404063Y-273937D02*
Y-264937D01*
X407663D01*
X408863Y-265387D01*
X409763Y-266437D01*
X410063Y-267637D01*
X409763Y-268837D01*
X409013Y-269737D01*
X407663Y-270187D01*
X404063D01*
G01X413563Y-264937D02*
Y-273937D01*
X419563D01*
G01X422313D02*
X426063Y-264937D01*
X429813Y-273937D01*
G01X428463Y-270787D02*
X423663D01*
G01X435563Y-264937D02*
Y-273937D01*
G01X432113Y-264937D02*
X439013D01*
G01X448063Y-273937D02*
X442063D01*
Y-264937D01*
X448063D01*
G01X445663Y-269287D02*
X442063D01*
G01X451263Y-273937D02*
Y-264937D01*
X454263D01*
X455463Y-265387D01*
X456363Y-265987D01*
X457113Y-266887D01*
X457713Y-267937D01*
X457863Y-269437D01*
X457713Y-270937D01*
X457113Y-271987D01*
X456363Y-272887D01*
X455463Y-273487D01*
X454263Y-273937D01*
X451263D01*
G01X404063Y-255937D02*
Y-246937D01*
X407663D01*
X408863Y-247387D01*
X409763Y-248437D01*
X410063Y-249637D01*
X409763Y-250837D01*
X409013Y-251737D01*
X407663Y-252187D01*
X404063D01*
G01X413563Y-246937D02*
Y-255937D01*
X419563D01*
G01X422313D02*
X426063Y-246937D01*
X429813Y-255937D01*
G01X428463Y-252787D02*
X423663D01*
G01X435563Y-246937D02*
Y-255937D01*
G01X432113Y-246937D02*
X439013D01*
G01X448063Y-255937D02*
X442063D01*
Y-246937D01*
X448063D01*
G01X445663Y-251287D02*
X442063D01*
G01X451263Y-255937D02*
Y-246937D01*
X454263D01*
X455463Y-247387D01*
X456363Y-247987D01*
X457113Y-248887D01*
X457713Y-249937D01*
X457863Y-251437D01*
X457713Y-252937D01*
X457113Y-253987D01*
X456363Y-254887D01*
X455463Y-255487D01*
X454263Y-255937D01*
X451263D01*
G01X404063Y-237937D02*
Y-228937D01*
X407663D01*
X408863Y-229387D01*
X409763Y-230437D01*
X410063Y-231637D01*
X409763Y-232837D01*
X409013Y-233737D01*
X407663Y-234187D01*
X404063D01*
G01X413563Y-228937D02*
Y-237937D01*
X419563D01*
G01X422313D02*
X426063Y-228937D01*
X429813Y-237937D01*
G01X428463Y-234787D02*
X423663D01*
G01X435563Y-228937D02*
Y-237937D01*
G01X432113Y-228937D02*
X439013D01*
G01X448063Y-237937D02*
X442063D01*
Y-228937D01*
X448063D01*
G01X445663Y-233287D02*
X442063D01*
G01X451263Y-237937D02*
Y-228937D01*
X454263D01*
X455463Y-229387D01*
X456363Y-229987D01*
X457113Y-230887D01*
X457713Y-231937D01*
X457863Y-233437D01*
X457713Y-234937D01*
X457113Y-235987D01*
X456363Y-236887D01*
X455463Y-237487D01*
X454263Y-237937D01*
X451263D01*
G01X404063Y-219937D02*
Y-210937D01*
X407663D01*
X408863Y-211387D01*
X409763Y-212437D01*
X410063Y-213637D01*
X409763Y-214837D01*
X409013Y-215737D01*
X407663Y-216187D01*
X404063D01*
G01X413563Y-210937D02*
Y-219937D01*
X419563D01*
G01X422313D02*
X426063Y-210937D01*
X429813Y-219937D01*
G01X428463Y-216787D02*
X423663D01*
G01X435563Y-210937D02*
Y-219937D01*
G01X432113Y-210937D02*
X439013D01*
G01X448063Y-219937D02*
X442063D01*
Y-210937D01*
X448063D01*
G01X445663Y-215287D02*
X442063D01*
G01X451263Y-219937D02*
Y-210937D01*
X454263D01*
X455463Y-211387D01*
X456363Y-211987D01*
X457113Y-212887D01*
X457713Y-213937D01*
X457863Y-215437D01*
X457713Y-216937D01*
X457113Y-217987D01*
X456363Y-218887D01*
X455463Y-219487D01*
X454263Y-219937D01*
X451263D01*
G01X404063Y-201937D02*
Y-192937D01*
X407663D01*
X408863Y-193387D01*
X409763Y-194437D01*
X410063Y-195637D01*
X409763Y-196837D01*
X409013Y-197737D01*
X407663Y-198187D01*
X404063D01*
G01X413563Y-192937D02*
Y-201937D01*
X419563D01*
G01X422313D02*
X426063Y-192937D01*
X429813Y-201937D01*
G01X428463Y-198787D02*
X423663D01*
G01X435563Y-192937D02*
Y-201937D01*
G01X432113Y-192937D02*
X439013D01*
G01X448063Y-201937D02*
X442063D01*
Y-192937D01*
X448063D01*
G01X445663Y-197287D02*
X442063D01*
G01X451263Y-201937D02*
Y-192937D01*
X454263D01*
X455463Y-193387D01*
X456363Y-193987D01*
X457113Y-194887D01*
X457713Y-195937D01*
X457863Y-197437D01*
X457713Y-198937D01*
X457113Y-199987D01*
X456363Y-200887D01*
X455463Y-201487D01*
X454263Y-201937D01*
X451263D01*
G01X404063Y-183937D02*
Y-174937D01*
X407663D01*
X408863Y-175387D01*
X409763Y-176437D01*
X410063Y-177637D01*
X409763Y-178837D01*
X409013Y-179737D01*
X407663Y-180187D01*
X404063D01*
G01X413563Y-174937D02*
Y-183937D01*
X419563D01*
G01X422313D02*
X426063Y-174937D01*
X429813Y-183937D01*
G01X428463Y-180787D02*
X423663D01*
G01X435563Y-174937D02*
Y-183937D01*
G01X432113Y-174937D02*
X439013D01*
G01X448063Y-183937D02*
X442063D01*
Y-174937D01*
X448063D01*
G01X445663Y-179287D02*
X442063D01*
G01X451263Y-183937D02*
Y-174937D01*
X454263D01*
X455463Y-175387D01*
X456363Y-175987D01*
X457113Y-176887D01*
X457713Y-177937D01*
X457863Y-179437D01*
X457713Y-180937D01*
X457113Y-181987D01*
X456363Y-182887D01*
X455463Y-183487D01*
X454263Y-183937D01*
X451263D01*
G01X404063Y-147937D02*
Y-138937D01*
X407663D01*
X408863Y-139387D01*
X409763Y-140437D01*
X410063Y-141637D01*
X409763Y-142837D01*
X409013Y-143737D01*
X407663Y-144187D01*
X404063D01*
G01X413563Y-138937D02*
Y-147937D01*
X419563D01*
G01X422313D02*
X426063Y-138937D01*
X429813Y-147937D01*
G01X428463Y-144787D02*
X423663D01*
G01X435563Y-138937D02*
Y-147937D01*
G01X432113Y-138937D02*
X439013D01*
G01X448063Y-147937D02*
X442063D01*
Y-138937D01*
X448063D01*
G01X445663Y-143287D02*
X442063D01*
G01X451263Y-147937D02*
Y-138937D01*
X454263D01*
X455463Y-139387D01*
X456363Y-139987D01*
X457113Y-140887D01*
X457713Y-141937D01*
X457863Y-143437D01*
X457713Y-144937D01*
X457113Y-145987D01*
X456363Y-146887D01*
X455463Y-147487D01*
X454263Y-147937D01*
X451263D01*
G01X404063Y-165937D02*
Y-156937D01*
X407663D01*
X408863Y-157387D01*
X409763Y-158437D01*
X410063Y-159637D01*
X409763Y-160837D01*
X409013Y-161737D01*
X407663Y-162187D01*
X404063D01*
G01X413563Y-156937D02*
Y-165937D01*
X419563D01*
G01X422313D02*
X426063Y-156937D01*
X429813Y-165937D01*
G01X428463Y-162787D02*
X423663D01*
G01X435563Y-156937D02*
Y-165937D01*
G01X432113Y-156937D02*
X439013D01*
G01X448063Y-165937D02*
X442063D01*
Y-156937D01*
X448063D01*
G01X445663Y-161287D02*
X442063D01*
G01X451263Y-165937D02*
Y-156937D01*
X454263D01*
X455463Y-157387D01*
X456363Y-157987D01*
X457113Y-158887D01*
X457713Y-159937D01*
X457863Y-161437D01*
X457713Y-162937D01*
X457113Y-163987D01*
X456363Y-164887D01*
X455463Y-165487D01*
X454263Y-165937D01*
X451263D01*
G01X404063Y-129937D02*
Y-120937D01*
X407663D01*
X408863Y-121387D01*
X409763Y-122437D01*
X410063Y-123637D01*
X409763Y-124837D01*
X409013Y-125737D01*
X407663Y-126187D01*
X404063D01*
G01X413563Y-120937D02*
Y-129937D01*
X419563D01*
G01X422313D02*
X426063Y-120937D01*
X429813Y-129937D01*
G01X428463Y-126787D02*
X423663D01*
G01X435563Y-120937D02*
Y-129937D01*
G01X432113Y-120937D02*
X439013D01*
G01X448063Y-129937D02*
X442063D01*
Y-120937D01*
X448063D01*
G01X445663Y-125287D02*
X442063D01*
G01X451263Y-129937D02*
Y-120937D01*
X454263D01*
X455463Y-121387D01*
X456363Y-121987D01*
X457113Y-122887D01*
X457713Y-123937D01*
X457863Y-125437D01*
X457713Y-126937D01*
X457113Y-127987D01*
X456363Y-128887D01*
X455463Y-129487D01*
X454263Y-129937D01*
X451263D01*
G01X404063Y-111937D02*
Y-102937D01*
X407663D01*
X408863Y-103387D01*
X409763Y-104437D01*
X410063Y-105637D01*
X409763Y-106837D01*
X409013Y-107737D01*
X407663Y-108187D01*
X404063D01*
G01X413563Y-102937D02*
Y-111937D01*
X419563D01*
G01X422313D02*
X426063Y-102937D01*
X429813Y-111937D01*
G01X428463Y-108787D02*
X423663D01*
G01X435563Y-102937D02*
Y-111937D01*
G01X432113Y-102937D02*
X439013D01*
G01X448063Y-111937D02*
X442063D01*
Y-102937D01*
X448063D01*
G01X445663Y-107287D02*
X442063D01*
G01X451263Y-111937D02*
Y-102937D01*
X454263D01*
X455463Y-103387D01*
X456363Y-103987D01*
X457113Y-104887D01*
X457713Y-105937D01*
X457863Y-107437D01*
X457713Y-108937D01*
X457113Y-109987D01*
X456363Y-110887D01*
X455463Y-111487D01*
X454263Y-111937D01*
X451263D01*
G01X504463Y-266437D02*
X505363Y-265537D01*
X506413Y-265087D01*
X507613Y-264937D01*
X509113Y-265237D01*
X510163Y-265987D01*
X510463Y-266887D01*
X510313Y-267787D01*
X509713Y-268537D01*
X506713Y-270037D01*
X505363Y-271087D01*
X504463Y-272587D01*
X504163Y-273937D01*
X510463D01*
G01X507313Y-255937D02*
Y-246937D01*
X505513Y-248737D01*
G01Y-255937D02*
X509113D01*
G01X504463Y-230437D02*
X505363Y-229537D01*
X506413Y-229087D01*
X507613Y-228937D01*
X509113Y-229237D01*
X510163Y-229987D01*
X510463Y-230887D01*
X510313Y-231787D01*
X509713Y-232537D01*
X506713Y-234037D01*
X505363Y-235087D01*
X504463Y-236587D01*
X504163Y-237937D01*
X510463D01*
G01X509113Y-219937D02*
Y-210937D01*
X503563Y-217387D01*
X511063D01*
G01X497813Y-201937D02*
Y-192937D01*
X496013Y-194737D01*
G01Y-201937D02*
X499613D01*
G01X509113D02*
Y-192937D01*
X503563Y-199387D01*
X511063D01*
G01X518613Y-201937D02*
Y-192937D01*
X513063Y-199387D01*
X520563D01*
G01X504463Y-180187D02*
X505513Y-179137D01*
X506413Y-178537D01*
X507613Y-178237D01*
X508663Y-178537D01*
X509413Y-179137D01*
X510013Y-180037D01*
X510163Y-181087D01*
X510013Y-181987D01*
X509413Y-182887D01*
X508513Y-183637D01*
X507463Y-183937D01*
X506263Y-183637D01*
X505213Y-182737D01*
X504613Y-181387D01*
X504463Y-179887D01*
X504763Y-177937D01*
X505213Y-176887D01*
X505963Y-175837D01*
X507013Y-175087D01*
X508063Y-174937D01*
X509113Y-175237D01*
X509863Y-175987D01*
G01X504463Y-140437D02*
X505363Y-139537D01*
X506413Y-139087D01*
X507613Y-138937D01*
X509113Y-139237D01*
X510163Y-139987D01*
X510463Y-140887D01*
X510313Y-141787D01*
X509713Y-142537D01*
X506713Y-144037D01*
X505363Y-145087D01*
X504463Y-146587D01*
X504163Y-147937D01*
X510463D01*
G01X504763Y-164887D02*
X505813Y-165637D01*
X507013Y-165937D01*
X508213Y-165637D01*
X509263Y-164737D01*
X510013Y-163387D01*
X510313Y-162037D01*
Y-160387D01*
X510013Y-159037D01*
X509263Y-157837D01*
X508363Y-157237D01*
X507313Y-156937D01*
X506113Y-157237D01*
X505213Y-157837D01*
X504613Y-158737D01*
X504313Y-159937D01*
X504613Y-160987D01*
X505363Y-162037D01*
X506263Y-162637D01*
X507313Y-162787D01*
X508513Y-162487D01*
X509413Y-161737D01*
X510313Y-160387D01*
G01X494963Y-122437D02*
X495863Y-121537D01*
X496913Y-121087D01*
X498113Y-120937D01*
X499613Y-121237D01*
X500663Y-121987D01*
X500963Y-122887D01*
X500813Y-123787D01*
X500213Y-124537D01*
X497213Y-126037D01*
X495863Y-127087D01*
X494963Y-128587D01*
X494663Y-129937D01*
X500963D01*
G01X507313D02*
X508363Y-129787D01*
X509563Y-129337D01*
X510313Y-128587D01*
X510613Y-127537D01*
X510313Y-126487D01*
X509413Y-125587D01*
X508063Y-125137D01*
X506563D01*
X505663Y-124837D01*
X504913Y-124087D01*
X504613Y-123037D01*
X505063Y-121987D01*
X506113Y-121237D01*
X507313Y-120937D01*
X508513Y-121237D01*
X509563Y-121987D01*
X510013Y-123037D01*
X509713Y-124087D01*
X508963Y-124837D01*
X508063Y-125137D01*
X506563D01*
X505213Y-125587D01*
X504313Y-126487D01*
X504013Y-127537D01*
X504313Y-128587D01*
X505063Y-129337D01*
X506263Y-129787D01*
X507313Y-129937D01*
G01X518613D02*
Y-120937D01*
X513063Y-127387D01*
X520563D01*
G01X497813Y-111937D02*
X496613Y-111787D01*
X495563Y-111187D01*
X494663Y-110287D01*
X494063Y-109237D01*
X493763Y-108037D01*
Y-106837D01*
X494063Y-105637D01*
X494663Y-104587D01*
X495563Y-103687D01*
X496613Y-103087D01*
X497813Y-102937D01*
X499013Y-103087D01*
X500063Y-103687D01*
X500963Y-104587D01*
X501563Y-105637D01*
X501863Y-106837D01*
Y-108037D01*
X501563Y-109237D01*
X500963Y-110287D01*
X500063Y-111187D01*
X499013Y-111787D01*
X497813Y-111937D01*
G01X499013Y-109537D02*
X500813Y-111937D01*
G01X507313Y-102937D02*
Y-111937D01*
G01X503863Y-102937D02*
X510763D01*
G01X516813Y-111937D02*
Y-107887D01*
X513813Y-102937D01*
G01X519813D02*
X516813Y-107887D01*
G54D12*
X27559Y93085D03*
Y108085D03*
Y138085D03*
Y123085D03*
Y153085D03*
Y168085D03*
Y198085D03*
Y183085D03*
Y213085D03*
Y228085D03*
Y258085D03*
Y243085D03*
Y283085D03*
Y298085D03*
Y313085D03*
Y343085D03*
Y328085D03*
Y358085D03*
Y373085D03*
Y403085D03*
Y388085D03*
Y418085D03*
Y433085D03*
Y448085D03*
X63563Y-197437D03*
X77165Y93085D03*
Y108085D03*
Y123085D03*
Y138085D03*
Y153085D03*
Y168085D03*
Y183085D03*
Y198085D03*
Y213085D03*
Y228085D03*
Y243085D03*
Y258085D03*
Y283085D03*
Y298085D03*
Y313085D03*
Y343085D03*
Y328085D03*
Y358085D03*
Y373085D03*
Y403085D03*
Y388085D03*
Y418085D03*
Y433085D03*
Y448085D03*
X143413Y27559D03*
X158413D03*
Y77165D03*
X143413D03*
X158713Y466142D03*
X143713D03*
Y515748D03*
X158713D03*
X173413Y27559D03*
Y77165D03*
X173713Y466142D03*
Y515748D03*
X188413Y27559D03*
Y77165D03*
X188713Y466142D03*
Y515748D03*
X203413Y27559D03*
X218413D03*
Y77165D03*
X203413D03*
X203713Y466142D03*
X218713D03*
Y515748D03*
X203713D03*
X233413Y27559D03*
Y77165D03*
X233713Y466142D03*
Y515748D03*
X248413Y27559D03*
Y77165D03*
X248713Y466142D03*
Y515748D03*
X263413Y27559D03*
X278413D03*
Y77165D03*
X263413D03*
X263713Y466142D03*
X278713D03*
Y515748D03*
X263713D03*
X293413Y27559D03*
Y77165D03*
X293713Y466142D03*
Y515748D03*
X308413Y27559D03*
Y77165D03*
X308713Y466142D03*
Y515748D03*
X333413Y27559D03*
Y77165D03*
X333713Y466142D03*
Y515748D03*
X348413Y27559D03*
X363413D03*
X348413Y77165D03*
X363413D03*
X363713Y466142D03*
X348713D03*
X363713Y515748D03*
X348713D03*
X378413Y27559D03*
Y77165D03*
X378713Y466142D03*
Y515748D03*
X393413Y27559D03*
Y77165D03*
X393713Y466142D03*
Y515748D03*
X408413Y27559D03*
X423413D03*
X408413Y77165D03*
X423413D03*
X423713Y466142D03*
X408713D03*
X423713Y515748D03*
X408713D03*
X438413Y27559D03*
Y77165D03*
X438713Y466142D03*
Y515748D03*
X453413Y27559D03*
Y77165D03*
X453713Y466142D03*
Y515748D03*
X468413Y27559D03*
X483413D03*
X468413Y77165D03*
X483413D03*
X483713Y466142D03*
X468713D03*
X483713Y515748D03*
X468713D03*
X498413Y27559D03*
Y77165D03*
X498713Y466142D03*
Y515748D03*
G54D22*
G01X0Y0D02*
Y543307D01*
X543307D01*
Y0D01*
X0D01*
G01D02*
Y543307D01*
X543307D01*
Y0D01*
X0D01*
G01X30063Y-278437D02*
Y-55437D01*
X536063D01*
Y-278437D01*
X30063D01*
G01Y-260437D02*
X536063D01*
G01X30063Y-242437D02*
X536063D01*
G01X30063Y-224437D02*
X536063D01*
G01X30063Y-206437D02*
X536063D01*
G01X30063Y-188437D02*
X536063D01*
G01X30063Y-152437D02*
X536063D01*
G01X30063Y-170437D02*
X536063D01*
G01X30063Y-134437D02*
X536063D01*
G01X30063Y-116437D02*
X536063D01*
G01X30063Y-98437D02*
X536063D01*
G01X30063Y-80437D02*
X536063D01*
G01X97063Y-98437D02*
Y-278437D01*
G01X240063Y-98437D02*
Y-278437D01*
G01X383063Y-98437D02*
Y-278437D01*
G01X478563Y-98437D02*
Y-278437D01*
G54D13*
X63563Y-269437D03*
G54D14*
Y-251437D03*
G54D15*
Y-233437D03*
X505905Y172530D03*
Y270956D03*
G54D16*
X63563Y-179437D03*
X242433Y195693D03*
Y205693D03*
Y215693D03*
X350193Y330193D03*
X360193D03*
X370193D03*
G54D17*
X63563Y-161437D03*
X500315Y199932D03*
Y210837D03*
Y221743D03*
Y232649D03*
Y243554D03*
X511496Y205385D03*
Y216290D03*
Y227196D03*
Y238101D03*
G54D18*
X63563Y-143437D03*
X235193Y307465D03*
Y303921D03*
G54D19*
X489697Y340551D03*
X514500D03*
M02*
