G04 ================== begin FILE IDENTIFICATION RECORD ==================*
G04 Layout Name:  E:/PCB/LED/LED_V1.0-1012.brd*
G04 Film Name:    SPT*
G04 File Format:  Gerber RS274X*
G04 File Origin:  Cadence Allegro 16.6-2015-S108*
G04 Origin Date:  Fri Oct 12 22:50:05 2018*
G04 *
G04 Layer:  DRAWING FORMAT/PASTEMASK_TOP*
G04 Layer:  PACKAGE GEOMETRY/PASTEMASK_TOP*
G04 Layer:  BOARD GEOMETRY/OUTLINE*
G04 Layer:  PIN/PASTEMASK_TOP*
G04 *
G04 Offset:    (0.000 0.000)*
G04 Mirror:    No*
G04 Mode:      Positive*
G04 Rotation:  0*
G04 FullContactRelief:  No*
G04 UndefLineWidth:     8.000*
G04 ================== end FILE IDENTIFICATION RECORD ====================*
%FSLAX55Y55*MOIN*%
%IR0*IPPOS*OFA0.00000B0.00000*MIA0B0*SFA1.00000B1.00000*%
%ADD22R,.052X.16*%
%ADD14R,.02X.022*%
%ADD16R,.022X.02*%
%ADD23R,.05X.04*%
%ADD13O,.024X.08*%
%ADD20O,.08X.024*%
%ADD11R,.04X.027*%
%ADD15R,.05X.055*%
%ADD21R,.04402X.02402*%
%ADD19R,.031X.031*%
%ADD12R,.032X.032*%
%ADD17R,.04724X.011811*%
%ADD18R,.011811X.04724*%
%ADD10R,.03228X.03228*%
%ADD24R,.035429X.04724*%
%ADD25C,.008*%
G75*
%LPD*%
G75*
G54D10*
X87195Y93085D03*
X93395D03*
X87195Y108085D03*
X93395D03*
X87195Y123085D03*
X93395D03*
X87195Y138085D03*
X93395D03*
X87825Y153085D03*
X94025D03*
X87195Y168085D03*
X93395D03*
X87195Y183085D03*
X93395D03*
X87195Y198085D03*
X93395D03*
X87195Y213085D03*
X93395D03*
X87195Y228085D03*
X93395D03*
X87195Y243085D03*
X93395D03*
X87195Y258085D03*
X93395D03*
X87195Y283085D03*
X93395D03*
X87195Y298085D03*
X93395D03*
X87195Y313085D03*
X93395D03*
X87195Y328085D03*
X93395D03*
X87195Y343085D03*
X93395D03*
X87195Y358085D03*
X93395D03*
X87195Y373085D03*
X93395D03*
X87195Y388085D03*
X93395D03*
X87195Y403085D03*
X93395D03*
X87195Y418085D03*
X93395D03*
X87195Y433085D03*
X93395D03*
X87195Y448085D03*
X93395D03*
X120195Y89335D03*
X126395D03*
X120195Y104335D03*
X126395D03*
X120195Y119335D03*
X126395D03*
X120195Y134335D03*
X126395D03*
X120195Y149335D03*
X126395D03*
X120195Y164335D03*
X126395D03*
X120195Y179335D03*
X126395D03*
X120195Y194335D03*
X126395D03*
X120195Y209335D03*
X126395D03*
X120195Y224335D03*
X126395D03*
X120195Y239335D03*
X126395D03*
X120195Y254335D03*
X126395D03*
X120195Y279335D03*
X126395D03*
X120195Y294335D03*
X126395D03*
X120195Y309335D03*
X126395D03*
X120195Y324335D03*
X126395D03*
X120195Y339335D03*
X126395D03*
X120195Y354335D03*
X126395D03*
X120195Y369335D03*
X126395D03*
X120195Y384335D03*
X126395D03*
X120195Y399335D03*
X126395D03*
X120195Y414335D03*
X126395D03*
X120195Y429335D03*
X126395D03*
X120195Y444335D03*
X126395D03*
X152213Y101693D03*
X137213D03*
X143413D03*
X152213Y109193D03*
X143413D03*
X137213D03*
X152933Y199033D03*
Y192833D03*
X153433Y301293D03*
Y295093D03*
X150933Y416293D03*
Y410093D03*
X143713Y442963D03*
Y449163D03*
X167213Y101693D03*
X173413D03*
X158413D03*
X173413Y109193D03*
X167213D03*
X158413D03*
X172433Y199033D03*
Y192833D03*
X165933Y199033D03*
Y192833D03*
X159433Y199033D03*
Y192833D03*
X172433Y206833D03*
Y213033D03*
X177433Y245593D03*
Y251793D03*
X172933Y301293D03*
Y295093D03*
X166433Y301293D03*
Y295093D03*
X159933Y301293D03*
Y295093D03*
X177433Y362093D03*
Y368293D03*
X176933Y416293D03*
Y410093D03*
X170433Y416293D03*
Y410093D03*
X163933Y416293D03*
Y410093D03*
X157433Y416293D03*
Y410093D03*
X158713Y443593D03*
X173713D03*
X158713Y449793D03*
X173713D03*
X197213Y101693D03*
X182213D03*
X188413D03*
X197213Y109193D03*
X188413D03*
X182213D03*
X177933Y141833D03*
Y148033D03*
X178933Y199033D03*
Y192833D03*
Y206833D03*
Y213033D03*
X179433Y301293D03*
Y295093D03*
X188713Y443593D03*
Y449793D03*
X212213Y101693D03*
X218413D03*
X203413D03*
X218413Y109193D03*
X212213D03*
X203413D03*
X203713Y443593D03*
X218713D03*
X203713Y449793D03*
X218713D03*
X227213Y101693D03*
X233413D03*
Y109193D03*
X227213D03*
X233713Y443593D03*
Y449793D03*
X257213Y101693D03*
X242213D03*
X248413D03*
X257213Y109193D03*
X248413D03*
X242213D03*
X248793Y249693D03*
X242593D03*
X245933Y260493D03*
X242463Y243063D03*
X248663D03*
X245933Y266693D03*
X248713Y443593D03*
Y449793D03*
X272213Y101693D03*
X278413D03*
X263413D03*
X278413Y109193D03*
X272213D03*
X263413D03*
X268693Y350593D03*
Y356793D03*
X275193D03*
Y350593D03*
X263713Y443593D03*
X278713D03*
X263713Y449793D03*
X278713D03*
X287213Y101693D03*
X293413D03*
Y109193D03*
X287213D03*
X293713Y443593D03*
Y449793D03*
X302213Y101693D03*
X308413D03*
Y109193D03*
X302213D03*
X315389Y330293D03*
Y324093D03*
Y336593D03*
Y342793D03*
X308713Y443593D03*
Y449793D03*
X327213Y101693D03*
X333413D03*
Y109193D03*
X327213D03*
X336963Y281063D03*
X341093Y270985D03*
X336963Y301563D03*
Y294563D03*
Y288063D03*
X337293Y308193D03*
X331093D03*
X333713Y443593D03*
Y449793D03*
X357213Y101693D03*
X342213D03*
X348413D03*
X357213Y109193D03*
X348413D03*
X342213D03*
X343163Y281063D03*
X347293Y270985D03*
X343163Y301563D03*
Y294563D03*
Y288063D03*
X343593Y308193D03*
X349793D03*
X348713Y443593D03*
Y449793D03*
X372213Y101693D03*
X378413D03*
X363413D03*
X378413Y109193D03*
X372213D03*
X363413D03*
X363713Y443593D03*
X378713D03*
X363713Y449793D03*
X378713D03*
X402213Y101693D03*
X387213D03*
X393413D03*
X402213Y109193D03*
X393413D03*
X387213D03*
X393713Y443593D03*
Y449793D03*
X417213Y101693D03*
X423413D03*
X408413D03*
X423413Y109193D03*
X417213D03*
X408413D03*
X408713Y443593D03*
Y449793D03*
X432213Y101693D03*
X438413D03*
Y109193D03*
X432213D03*
X425880Y330463D03*
Y336663D03*
Y342963D03*
Y349163D03*
X423713Y443593D03*
X438713D03*
X423713Y449793D03*
X438713D03*
X462213Y101693D03*
X447213D03*
X453413D03*
X462213Y109193D03*
X453413D03*
X447213D03*
X453880Y330463D03*
Y336663D03*
X453713Y443593D03*
Y449793D03*
X477213Y101693D03*
X483413D03*
X468413D03*
X483413Y109193D03*
X477213D03*
X468413D03*
X484793Y215874D03*
X478593D03*
X484793Y238374D03*
X478593D03*
X484793Y230874D03*
X478593D03*
X484793Y223374D03*
X478593D03*
X468713Y443593D03*
X483713D03*
X468713Y449793D03*
X483713D03*
X492213Y101693D03*
X498413D03*
Y109193D03*
X492213D03*
X498713Y443593D03*
Y449793D03*
G54D11*
X100695Y93085D03*
X110895Y89335D03*
Y96835D03*
X100695Y108085D03*
X110895Y111835D03*
Y104335D03*
X100695Y123085D03*
X110895Y126835D03*
Y119335D03*
Y134335D03*
X100695Y138085D03*
X110895Y141835D03*
X100825Y153085D03*
X111025Y156835D03*
Y149335D03*
X100695Y168085D03*
X110895Y171835D03*
Y164335D03*
X100695Y183085D03*
X110895Y186835D03*
Y179335D03*
X100695Y198085D03*
X110895Y194335D03*
Y201835D03*
X100695Y213085D03*
X110895Y216835D03*
Y209335D03*
X100695Y228085D03*
X110895Y231835D03*
Y224335D03*
Y239335D03*
X100695Y243085D03*
X110895Y246835D03*
X100695Y258085D03*
X110895Y254335D03*
Y261835D03*
Y279335D03*
X100695Y283085D03*
X110895Y286835D03*
X100695Y298085D03*
X110895Y294335D03*
Y301835D03*
X100695Y313085D03*
X110895Y316835D03*
Y309335D03*
X100695Y328085D03*
X110895Y331835D03*
Y324335D03*
Y339335D03*
X100695Y343085D03*
X110895Y346835D03*
X100695Y358085D03*
X110895Y361835D03*
Y354335D03*
X100695Y373085D03*
X110895Y376835D03*
Y369335D03*
X100695Y388085D03*
X110895Y391835D03*
Y384335D03*
X100695Y403085D03*
X110895Y399335D03*
Y406835D03*
X100695Y418085D03*
X110895Y421835D03*
Y414335D03*
X100695Y433085D03*
X110895Y436835D03*
Y429335D03*
Y444335D03*
X100695Y448085D03*
X110895Y451835D03*
G54D20*
X444563Y205063D03*
Y210063D03*
Y215063D03*
Y220063D03*
Y225063D03*
Y230063D03*
Y235063D03*
Y240063D03*
X466563Y205063D03*
Y210063D03*
Y215063D03*
Y220063D03*
Y225063D03*
Y230063D03*
Y235063D03*
Y240063D03*
G54D12*
X137413Y94193D03*
X143413D03*
X152413D03*
X167413D03*
X173413D03*
X158413D03*
X171433Y141693D03*
Y147693D03*
X171193Y245693D03*
Y251693D03*
Y362193D03*
Y368193D03*
X197413Y94193D03*
X182413D03*
X188413D03*
X190563Y158063D03*
X184563D03*
X190563Y164563D03*
X184563D03*
X190433Y267193D03*
X184433D03*
X190433Y261193D03*
X184433D03*
X190433Y383193D03*
X184433D03*
X190433Y377193D03*
X184433D03*
X212413Y94193D03*
X218413D03*
X203413D03*
X227413D03*
X233413D03*
X235693Y237693D03*
X229693D03*
X235693Y231193D03*
X229693D03*
X242413Y94193D03*
X248413D03*
X257413D03*
X239433Y260693D03*
Y266693D03*
X247193Y292193D03*
X241193D03*
X249693Y303933D03*
Y309933D03*
X258693Y326693D03*
Y332693D03*
X263413Y94193D03*
X272413D03*
X278413D03*
X267063Y238563D03*
X261193Y238563D03*
X267063Y244563D03*
X261193Y244563D03*
X264563Y326563D03*
Y332563D03*
X287413Y94193D03*
X293413D03*
X302413D03*
X308413D03*
X319193Y239193D03*
X313193D03*
X319193Y245193D03*
X313193D03*
X327413Y94193D03*
X333413D03*
X331193Y314693D03*
X337193D03*
X331193Y320693D03*
X337193D03*
X357413Y94193D03*
X342413D03*
X348413D03*
X363413D03*
X372413D03*
X378413D03*
X402413D03*
X387413D03*
X393413D03*
X417413D03*
X423413D03*
X408413D03*
X418693Y232693D03*
Y238693D03*
X421750Y358433D03*
X415750D03*
X421750Y373433D03*
X415750D03*
X421750Y365933D03*
X415750D03*
X432413Y94193D03*
X438413D03*
X434193Y206693D03*
Y212693D03*
X426693Y206693D03*
Y212693D03*
X433693Y238693D03*
Y232693D03*
X426193D03*
Y238693D03*
X447413Y94193D03*
X453413D03*
X462413D03*
X460496Y248063D03*
Y254063D03*
X453880Y318063D03*
Y324063D03*
X468413Y94193D03*
X477413D03*
X483413D03*
X466496Y248063D03*
Y254063D03*
X492413Y94193D03*
X498413D03*
G54D21*
X445081Y341063D03*
Y337323D03*
X434678D03*
Y341063D03*
X445081Y344803D03*
X434678D03*
G54D13*
X141563Y158063D03*
X146563D03*
X151563D03*
X156563D03*
X141563Y180063D03*
X146563D03*
X151563D03*
X156563D03*
X141563Y261063D03*
X146563D03*
X151563D03*
X156563D03*
X141563Y283063D03*
X146563D03*
X151563D03*
X156563D03*
X141563Y377063D03*
X146563D03*
X151563D03*
X156563D03*
X141563Y399063D03*
X146563D03*
X151563D03*
X156563D03*
X161563Y158063D03*
X166563D03*
X176563D03*
X171563D03*
X161563Y180063D03*
X166563D03*
X171563D03*
X176563D03*
X161563Y261063D03*
X166563D03*
X176563D03*
X171563D03*
X161563Y283063D03*
X166563D03*
X171563D03*
X176563D03*
X161563Y377063D03*
X166563D03*
X176563D03*
X171563D03*
X161563Y399063D03*
X166563D03*
X171563D03*
X176563D03*
G54D22*
X437024Y366063D03*
X447735D03*
G54D23*
X463250Y318433D03*
Y326433D03*
X480250Y318433D03*
X471750D03*
X480250Y326433D03*
X471750D03*
G54D14*
X230843Y248693D03*
X234543D03*
X230843Y243693D03*
X234543D03*
X230843Y253693D03*
X234543D03*
X240843Y297933D03*
X244543D03*
X438030Y351063D03*
X441730D03*
G54D24*
X458137Y366013D03*
X471522D03*
G54D15*
X233543Y275362D03*
X239843D03*
X233543Y284024D03*
X239843D03*
G54D25*
G01X0Y0D02*
Y543307D01*
X543307D01*
Y0D01*
X0D01*
G01D02*
Y543307D01*
X543307D01*
Y0D01*
X0D01*
G54D16*
X246693Y272843D03*
Y276543D03*
Y286543D03*
Y282843D03*
X242693Y307543D03*
Y303843D03*
G54D17*
X258252Y261142D03*
Y263110D03*
Y265079D03*
Y267047D03*
Y269016D03*
Y270984D03*
Y272953D03*
Y274921D03*
Y276890D03*
Y278858D03*
Y280827D03*
Y282795D03*
Y284764D03*
Y286732D03*
Y288701D03*
Y290669D03*
Y292638D03*
Y294606D03*
Y296575D03*
Y298542D03*
Y300512D03*
Y302480D03*
Y304449D03*
Y306417D03*
Y308386D03*
X319276Y278859D03*
Y276890D03*
Y274922D03*
Y272953D03*
Y270985D03*
Y269016D03*
Y267048D03*
Y265079D03*
Y263111D03*
Y261142D03*
Y300512D03*
Y298544D03*
Y296575D03*
Y294607D03*
Y292638D03*
Y290670D03*
Y288701D03*
Y286733D03*
Y284764D03*
Y282796D03*
Y280827D03*
Y308386D03*
Y306418D03*
Y304449D03*
Y302481D03*
G54D18*
X278922Y254252D03*
X276953D03*
X274985D03*
X273016D03*
X271048D03*
X269079D03*
X267111D03*
X265142D03*
Y315276D03*
X267110D03*
X269079D03*
X271047D03*
X273016D03*
X274984D03*
X276953D03*
X278921D03*
X298607Y254252D03*
X296638D03*
X294670D03*
X292701D03*
X290733D03*
X288764D03*
X286796D03*
X284827D03*
X282859D03*
X280890D03*
Y315276D03*
X282858D03*
X284827D03*
X286795D03*
X288763D03*
X290732D03*
X292700D03*
X294668D03*
X296637D03*
X298606D03*
X312386Y254252D03*
X310418D03*
X308449D03*
X306481D03*
X304512D03*
X302544D03*
X300575D03*
X300574Y315276D03*
X302542D03*
X304511D03*
X306480D03*
X308448D03*
X310417D03*
X312386D03*
G54D19*
X328740Y270985D03*
X334646D03*
M02*
