G04 ================== begin FILE IDENTIFICATION RECORD ==================*
G04 Layout Name:  E:/PCB/LED/LED_V1.0-1012.brd*
G04 Film Name:    SSB*
G04 File Format:  Gerber RS274X*
G04 File Origin:  Cadence Allegro 16.6-2015-S108*
G04 Origin Date:  Fri Oct 12 22:50:05 2018*
G04 *
G04 Layer:  DRAWING FORMAT/SILKCREEN-BOTTOM*
G04 Layer:  REF DES/SILKSCREEN_BOTTOM*
G04 Layer:  PACKAGE GEOMETRY/SILKSCREEN_BOTTOM*
G04 Layer:  BOARD GEOMETRY/SILKSCREEN_BOTTOM*
G04 Layer:  BOARD GEOMETRY/OUTLINE*
G04 *
G04 Offset:    (0.000 0.000)*
G04 Mirror:    No*
G04 Mode:      Positive*
G04 Rotation:  0*
G04 FullContactRelief:  No*
G04 UndefLineWidth:     8.000*
G04 ================== end FILE IDENTIFICATION RECORD ====================*
%FSLAX55Y55*MOIN*%
%IR0*IPPOS*OFA0.00000B0.00000*MIA0B0*SFA1.00000B1.00000*%
%ADD10C,.004*%
%ADD11C,.006*%
%ADD12C,.008*%
G75*
%LPD*%
G75*
G54D10*
G01X8725Y254585D02*
X5476Y254581D01*
Y260289D01*
G01D02*
X8725Y260285D01*
G01X8225Y445085D02*
X4976Y445081D01*
Y450789D01*
G01D02*
X8225Y450785D01*
G01X13725Y260285D02*
X17075D01*
Y254585D01*
X13725D01*
G01X13225Y450785D02*
X16575D01*
Y445085D01*
X13225D01*
G01X311913Y530082D02*
Y526732D01*
X306213D01*
Y530082D01*
G01Y535082D02*
X306209Y538331D01*
X311917D01*
G01D02*
X311913Y535082D01*
G01X501913Y530082D02*
Y526732D01*
X496213D01*
Y530082D01*
G01Y535082D02*
X496209Y538331D01*
X501917D01*
G01D02*
X501913Y535082D01*
G54D11*
G01X17480Y262013D02*
Y265113D01*
X16521D01*
X16215Y264958D01*
X16023Y264751D01*
X15946Y264338D01*
X16023Y263925D01*
X16253Y263666D01*
X16521Y263511D01*
X17480D01*
G01X16521D02*
X15946Y262013D01*
G01X13613D02*
Y265113D01*
X14073Y264493D01*
G01Y262013D02*
X13153D01*
G01X10053D02*
Y265113D01*
X11471Y262891D01*
X9555D01*
G01X7413Y265113D02*
X7720Y265010D01*
X7950Y264751D01*
X8103Y264441D01*
X8218Y264028D01*
X8256Y263563D01*
X8218Y263098D01*
X8103Y262685D01*
X7950Y262375D01*
X7720Y262116D01*
X7413Y262013D01*
X7106Y262116D01*
X6876Y262375D01*
X6723Y262685D01*
X6608Y263098D01*
X6570Y263563D01*
X6608Y264028D01*
X6723Y264441D01*
X6876Y264751D01*
X7106Y265010D01*
X7413Y265113D01*
G01X15980Y452513D02*
Y455613D01*
X15021D01*
X14715Y455458D01*
X14523Y455251D01*
X14446Y454838D01*
X14523Y454425D01*
X14753Y454166D01*
X15021Y454011D01*
X15980D01*
G01X15021D02*
X14446Y452513D01*
G01X12113D02*
Y455613D01*
X12573Y454993D01*
G01Y452513D02*
X11653D01*
G01X8553D02*
Y455613D01*
X9971Y453391D01*
X8055D01*
G01X5913Y452513D02*
Y455613D01*
X6373Y454993D01*
G01Y452513D02*
X5453D01*
G01X56873Y87355D02*
X57143Y87510D01*
X57458Y87613D01*
X57818D01*
X58223Y87458D01*
X58538Y87200D01*
X58763Y86890D01*
X58943Y86373D01*
X58988Y85908D01*
X58898Y85443D01*
X58763Y85133D01*
X58493Y84823D01*
X58178Y84616D01*
X57863Y84513D01*
X57548D01*
X57233Y84616D01*
X56963Y84771D01*
X56738Y84978D01*
G01X54653Y84513D02*
X54563Y85185D01*
X54428Y85753D01*
X54248Y86270D01*
X54023Y86838D01*
X53663Y87613D01*
X55463D01*
G01X52118Y87096D02*
X51848Y87406D01*
X51533Y87561D01*
X51173Y87613D01*
X50723Y87510D01*
X50408Y87251D01*
X50318Y86941D01*
X50363Y86631D01*
X50543Y86373D01*
X51443Y85856D01*
X51848Y85495D01*
X52118Y84978D01*
X52208Y84513D01*
X50318D01*
G01X52595Y96435D02*
X47795D01*
G03Y89435I3675J-3500D01*
G01X52595D01*
G01X53595Y261435D02*
X48795D01*
G03Y254435I3675J-3500D01*
G01X53595D01*
G01X57873Y266355D02*
X58143Y266510D01*
X58458Y266613D01*
X58818D01*
X59223Y266458D01*
X59538Y266200D01*
X59763Y265890D01*
X59943Y265373D01*
X59988Y264908D01*
X59898Y264443D01*
X59763Y264133D01*
X59493Y263823D01*
X59178Y263616D01*
X58863Y263513D01*
X58548D01*
X58233Y263616D01*
X57963Y263771D01*
X57738Y263978D01*
G01X55653Y263513D02*
X55563Y264185D01*
X55428Y264753D01*
X55248Y265270D01*
X55023Y265838D01*
X54663Y266613D01*
X56463D01*
G01X52263Y263513D02*
Y266613D01*
X52803Y265993D01*
G01Y263513D02*
X51723D01*
G01X56873Y276855D02*
X57143Y277010D01*
X57458Y277113D01*
X57818D01*
X58223Y276958D01*
X58538Y276700D01*
X58763Y276390D01*
X58943Y275873D01*
X58988Y275408D01*
X58898Y274943D01*
X58763Y274633D01*
X58493Y274323D01*
X58178Y274116D01*
X57863Y274013D01*
X57548D01*
X57233Y274116D01*
X56963Y274271D01*
X56738Y274478D01*
G01X54653Y274013D02*
X54563Y274685D01*
X54428Y275253D01*
X54248Y275770D01*
X54023Y276338D01*
X53663Y277113D01*
X55463D01*
G01X52253Y274633D02*
X51983Y274271D01*
X51623Y274065D01*
X51218Y274013D01*
X50858Y274065D01*
X50498Y274323D01*
X50273Y274633D01*
X50228Y274943D01*
X50318Y275305D01*
X50633Y275563D01*
X50948Y275666D01*
X51353D01*
G01X50948D02*
X50678Y275821D01*
X50453Y276080D01*
X50363Y276390D01*
X50453Y276700D01*
X50678Y276958D01*
X51083Y277113D01*
X51488Y277061D01*
X51893Y276855D01*
G01X53095Y286435D02*
X48295D01*
G03Y279435I3675J-3500D01*
G01X53095D01*
G01X56873Y441855D02*
X57143Y442010D01*
X57458Y442113D01*
X57818D01*
X58223Y441958D01*
X58538Y441700D01*
X58763Y441390D01*
X58943Y440873D01*
X58988Y440408D01*
X58898Y439943D01*
X58763Y439633D01*
X58493Y439323D01*
X58178Y439116D01*
X57863Y439013D01*
X57548D01*
X57233Y439116D01*
X56963Y439271D01*
X56738Y439478D01*
G01X54653Y439013D02*
X54563Y439685D01*
X54428Y440253D01*
X54248Y440770D01*
X54023Y441338D01*
X53663Y442113D01*
X55463D01*
G01X50723Y439013D02*
Y442113D01*
X52388Y439891D01*
X50138D01*
G01X53363Y451563D02*
X48563D01*
G03Y444563I3675J-3500D01*
G01X53363D01*
G01X55995Y96435D02*
X60795D01*
G02Y89435I-3675J-3500D01*
G01X55995D01*
G01X56995Y261435D02*
X61795D01*
G02Y254435I-3675J-3500D01*
G01X56995D01*
G01X56495Y286435D02*
X61295D01*
G02Y279435I-3675J-3500D01*
G01X56495D01*
G01X56763Y451563D02*
X61563D01*
G02Y444563I-3675J-3500D01*
G01X56763D01*
G01X153355Y490753D02*
X153510Y490483D01*
X153613Y490168D01*
Y489808D01*
X153458Y489403D01*
X153200Y489088D01*
X152890Y488863D01*
X152373Y488683D01*
X151908Y488638D01*
X151443Y488728D01*
X151133Y488863D01*
X150823Y489133D01*
X150616Y489448D01*
X150513Y489763D01*
Y490078D01*
X150616Y490393D01*
X150771Y490663D01*
X150978Y490888D01*
G01X151805Y492208D02*
X152166Y492523D01*
X152373Y492793D01*
X152476Y493153D01*
X152373Y493468D01*
X152166Y493693D01*
X151856Y493873D01*
X151495Y493918D01*
X151185Y493873D01*
X150875Y493693D01*
X150616Y493423D01*
X150513Y493108D01*
X150616Y492748D01*
X150926Y492433D01*
X151391Y492253D01*
X151908Y492208D01*
X152580Y492298D01*
X152941Y492433D01*
X153303Y492658D01*
X153561Y492973D01*
X153613Y493288D01*
X153510Y493603D01*
X153251Y493828D01*
G01X150513Y496273D02*
X151185Y496363D01*
X151753Y496498D01*
X152270Y496678D01*
X152838Y496903D01*
X153613Y497263D01*
Y495463D01*
G01X162063Y490863D02*
Y486063D01*
G02X155063I-3500J3675D01*
G01Y490863D01*
G01X162063Y494263D02*
Y499063D01*
G03X155063I-3500J-3675D01*
G01Y494263D01*
G01X302855Y489753D02*
X303010Y489483D01*
X303113Y489168D01*
Y488808D01*
X302958Y488403D01*
X302700Y488088D01*
X302390Y487863D01*
X301873Y487683D01*
X301408Y487638D01*
X300943Y487728D01*
X300633Y487863D01*
X300323Y488133D01*
X300116Y488448D01*
X300013Y488763D01*
Y489078D01*
X300116Y489393D01*
X300271Y489663D01*
X300478Y489888D01*
G01X301305Y491208D02*
X301666Y491523D01*
X301873Y491793D01*
X301976Y492153D01*
X301873Y492468D01*
X301666Y492693D01*
X301356Y492873D01*
X300995Y492918D01*
X300685Y492873D01*
X300375Y492693D01*
X300116Y492423D01*
X300013Y492108D01*
X300116Y491748D01*
X300426Y491433D01*
X300891Y491253D01*
X301408Y491208D01*
X302080Y491298D01*
X302441Y491433D01*
X302803Y491658D01*
X303061Y491973D01*
X303113Y492288D01*
X303010Y492603D01*
X302751Y492828D01*
G01X300013Y495363D02*
X300065Y495678D01*
X300220Y496038D01*
X300478Y496263D01*
X300840Y496353D01*
X301201Y496263D01*
X301511Y495993D01*
X301666Y495588D01*
Y495138D01*
X301770Y494868D01*
X302028Y494643D01*
X302390Y494553D01*
X302751Y494688D01*
X303010Y495003D01*
X303113Y495363D01*
X303010Y495723D01*
X302751Y496038D01*
X302390Y496173D01*
X302028Y496083D01*
X301770Y495858D01*
X301666Y495588D01*
Y495138D01*
X301511Y494733D01*
X301201Y494463D01*
X300840Y494373D01*
X300478Y494463D01*
X300220Y494688D01*
X300065Y495048D01*
X300013Y495363D01*
G01X312063Y490363D02*
Y485563D01*
G02X305063I-3500J3675D01*
G01Y490363D01*
G01X312063Y493763D02*
Y498563D01*
G03X305063I-3500J-3675D01*
G01Y493763D01*
G01X313513Y527146D02*
X316613D01*
Y528105D01*
X316458Y528411D01*
X316251Y528603D01*
X315838Y528680D01*
X315425Y528603D01*
X315166Y528373D01*
X315011Y528105D01*
Y527146D01*
G01Y528105D02*
X313513Y528680D01*
G01Y531013D02*
X316613D01*
X315993Y530553D01*
G01X313513D02*
Y531473D01*
G01X314133Y533270D02*
X313771Y533500D01*
X313565Y533806D01*
X313513Y534151D01*
X313565Y534458D01*
X313823Y534765D01*
X314133Y534956D01*
X314443Y534995D01*
X314805Y534918D01*
X315063Y534650D01*
X315166Y534381D01*
Y534036D01*
G01Y534381D02*
X315321Y534611D01*
X315580Y534803D01*
X315890Y534880D01*
X316200Y534803D01*
X316458Y534611D01*
X316613Y534266D01*
X316561Y533921D01*
X316355Y533576D01*
G01X313513Y537213D02*
X313565Y537481D01*
X313720Y537788D01*
X313978Y537980D01*
X314340Y538056D01*
X314701Y537980D01*
X315011Y537750D01*
X315166Y537405D01*
Y537021D01*
X315270Y536791D01*
X315528Y536600D01*
X315890Y536523D01*
X316251Y536638D01*
X316510Y536906D01*
X316613Y537213D01*
X316510Y537520D01*
X316251Y537788D01*
X315890Y537903D01*
X315528Y537826D01*
X315270Y537635D01*
X315166Y537405D01*
Y537021D01*
X315011Y536676D01*
X314701Y536446D01*
X314340Y536370D01*
X313978Y536446D01*
X313720Y536638D01*
X313565Y536945D01*
X313513Y537213D01*
G01X342855Y488753D02*
X343010Y488483D01*
X343113Y488168D01*
Y487808D01*
X342958Y487403D01*
X342700Y487088D01*
X342390Y486863D01*
X341873Y486683D01*
X341408Y486638D01*
X340943Y486728D01*
X340633Y486863D01*
X340323Y487133D01*
X340116Y487448D01*
X340013Y487763D01*
Y488078D01*
X340116Y488393D01*
X340271Y488663D01*
X340478Y488888D01*
G01X341305Y490208D02*
X341666Y490523D01*
X341873Y490793D01*
X341976Y491153D01*
X341873Y491468D01*
X341666Y491693D01*
X341356Y491873D01*
X340995Y491918D01*
X340685Y491873D01*
X340375Y491693D01*
X340116Y491423D01*
X340013Y491108D01*
X340116Y490748D01*
X340426Y490433D01*
X340891Y490253D01*
X341408Y490208D01*
X342080Y490298D01*
X342441Y490433D01*
X342803Y490658D01*
X343061Y490973D01*
X343113Y491288D01*
X343010Y491603D01*
X342751Y491828D01*
G01X340375Y493598D02*
X340116Y493913D01*
X340013Y494273D01*
X340116Y494633D01*
X340426Y494948D01*
X340891Y495173D01*
X341356Y495263D01*
X341925D01*
X342390Y495173D01*
X342803Y494948D01*
X343010Y494678D01*
X343113Y494363D01*
X343010Y494003D01*
X342803Y493733D01*
X342493Y493553D01*
X342080Y493463D01*
X341718Y493553D01*
X341356Y493778D01*
X341150Y494048D01*
X341098Y494363D01*
X341201Y494723D01*
X341460Y494993D01*
X341925Y495263D01*
G01X352063Y489863D02*
Y485063D01*
G02X345063I-3500J3675D01*
G01Y489863D01*
G01X352063Y493263D02*
Y498063D01*
G03X345063I-3500J-3675D01*
G01Y493263D01*
G01X502063Y489863D02*
Y485063D01*
G02X495063I-3500J3675D01*
G01Y489863D01*
G01X492355Y488753D02*
X492510Y488483D01*
X492613Y488168D01*
Y487808D01*
X492458Y487403D01*
X492200Y487088D01*
X491890Y486863D01*
X491373Y486683D01*
X490908Y486638D01*
X490443Y486728D01*
X490133Y486863D01*
X489823Y487133D01*
X489616Y487448D01*
X489513Y487763D01*
Y488078D01*
X489616Y488393D01*
X489771Y488663D01*
X489978Y488888D01*
G01X489513Y490973D02*
X490185Y491063D01*
X490753Y491198D01*
X491270Y491378D01*
X491838Y491603D01*
X492613Y491963D01*
Y490163D01*
G01Y494363D02*
X492510Y494003D01*
X492251Y493733D01*
X491941Y493553D01*
X491528Y493418D01*
X491063Y493373D01*
X490598Y493418D01*
X490185Y493553D01*
X489875Y493733D01*
X489616Y494003D01*
X489513Y494363D01*
X489616Y494723D01*
X489875Y494993D01*
X490185Y495173D01*
X490598Y495308D01*
X491063Y495353D01*
X491528Y495308D01*
X491941Y495173D01*
X492251Y494993D01*
X492510Y494723D01*
X492613Y494363D01*
G01X502063Y493263D02*
Y498063D01*
G03X495063I-3500J-3675D01*
G01Y493263D01*
G01X503013Y527146D02*
X506113D01*
Y528105D01*
X505958Y528411D01*
X505751Y528603D01*
X505338Y528680D01*
X504925Y528603D01*
X504666Y528373D01*
X504511Y528105D01*
Y527146D01*
G01Y528105D02*
X503013Y528680D01*
G01Y531013D02*
X506113D01*
X505493Y530553D01*
G01X503013D02*
Y531473D01*
G01X503633Y533270D02*
X503271Y533500D01*
X503065Y533806D01*
X503013Y534151D01*
X503065Y534458D01*
X503323Y534765D01*
X503633Y534956D01*
X503943Y534995D01*
X504305Y534918D01*
X504563Y534650D01*
X504666Y534381D01*
Y534036D01*
G01Y534381D02*
X504821Y534611D01*
X505080Y534803D01*
X505390Y534880D01*
X505700Y534803D01*
X505958Y534611D01*
X506113Y534266D01*
X506061Y533921D01*
X505855Y533576D01*
G01X503375Y536561D02*
X503116Y536830D01*
X503013Y537136D01*
X503116Y537443D01*
X503426Y537711D01*
X503891Y537903D01*
X504356Y537980D01*
X504925D01*
X505390Y537903D01*
X505803Y537711D01*
X506010Y537481D01*
X506113Y537213D01*
X506010Y536906D01*
X505803Y536676D01*
X505493Y536523D01*
X505080Y536446D01*
X504718Y536523D01*
X504356Y536715D01*
X504150Y536945D01*
X504098Y537213D01*
X504201Y537520D01*
X504460Y537750D01*
X504925Y537980D01*
G54D12*
G01X0Y0D02*
Y543307D01*
X543307D01*
Y0D01*
X0D01*
G01D02*
Y543307D01*
X543307D01*
Y0D01*
X0D01*
M02*
