G04 ================== begin FILE IDENTIFICATION RECORD ==================*
G04 Layout Name:  E:/PCB/LED/LED_V1.0-1012.brd*
G04 Film Name:    TOP*
G04 File Format:  Gerber RS274X*
G04 File Origin:  Cadence Allegro 16.6-2015-S108*
G04 Origin Date:  Fri Oct 12 22:50:05 2018*
G04 *
G04 Layer:  BOARD GEOMETRY/OUTLINE*
G04 Layer:  VIA CLASS/TOP*
G04 Layer:  PIN/TOP*
G04 Layer:  ETCH/TOP*
G04 *
G04 Offset:    (0.000 0.000)*
G04 Mirror:    No*
G04 Mode:      Positive*
G04 Rotation:  0*
G04 FullContactRelief:  No*
G04 UndefLineWidth:     8.000*
G04 ================== end FILE IDENTIFICATION RECORD ====================*
%FSLAX55Y55*MOIN*%
%IR0*IPPOS*OFA0.00000B0.00000*MIA0B0*SFA1.00000B1.00000*%
%ADD29R,.052X.16*%
%ADD32C,.18*%
%ADD10C,.23622*%
%ADD36R,.15748X.07874*%
%ADD35R,.07874X.15748*%
%ADD19R,.02X.022*%
%ADD23R,.022X.02*%
%ADD30R,.05X.04*%
%ADD18O,.024X.08*%
%ADD27O,.08X.024*%
%ADD16R,.04X.027*%
%ADD20R,.05X.055*%
%ADD28R,.04402X.02402*%
%ADD12C,.04*%
%ADD33C,.06*%
%ADD11C,.024*%
%ADD13C,.07*%
%ADD22C,.026*%
%ADD26R,.031X.031*%
%ADD17R,.032X.032*%
%ADD34R,.06X.06*%
%ADD14R,.07X.07*%
%ADD24R,.04724X.011811*%
%ADD21R,.026X.026*%
%ADD25R,.011811X.04724*%
%ADD15R,.03228X.03228*%
%ADD31R,.035429X.04724*%
%ADD37C,.008*%
%ADD38C,.01*%
%ADD39C,.02*%
%ADD40C,.03*%
%ADD41R,.102744X.181484*%
G75*
%LPD*%
G75*
G36*
G01X228563Y269063D02*
X226063Y271563D01*
Y288063D01*
X228563Y290563D01*
X237063D01*
X238063Y289563D01*
X245563D01*
X248063Y287063D01*
Y286063D01*
X247563Y285563D01*
X245563D01*
X241563Y281563D01*
X238063D01*
X237563Y282063D01*
Y286563D01*
X236563Y287563D01*
X230563D01*
X230063Y287063D01*
Y278563D01*
X230563Y278063D01*
X235563D01*
X236063Y277563D01*
Y272563D01*
X237063Y271563D01*
X243063D01*
X245563Y274063D01*
X250063D01*
X250563Y273563D01*
Y271063D01*
X248563Y269063D01*
X228563D01*
G37*
G36*
G01X420063Y375563D02*
X420563Y376063D01*
X439563D01*
X440063Y375563D01*
Y358563D01*
X428563Y347063D01*
X424063D01*
X420063Y351063D01*
Y375563D01*
G37*
G36*
G01X442563Y339563D02*
X442063Y340063D01*
Y342063D01*
X442563Y342563D01*
X458063D01*
X468313Y352813D01*
X499813D01*
X502188Y350438D01*
Y328688D01*
X498063Y324563D01*
X461063D01*
X459063Y326563D01*
Y332563D01*
X457063Y334563D01*
X452563D01*
X447563Y339563D01*
X442563D01*
G37*
G36*
G01X442563Y343563D02*
X440563Y345563D01*
Y353063D01*
X445063Y357563D01*
Y374563D01*
X445563Y375063D01*
X455563D01*
X460063Y370563D01*
Y356063D01*
X447563Y343563D01*
X442563D01*
G37*
%LPC*%
G75*
G54D41*
X489697Y340551D03*
%LPD*%
G75*
G54D10*
X19685Y19685D03*
Y523622D03*
X523622Y19685D03*
Y523622D03*
G54D11*
X9563Y252563D03*
X9649Y249564D03*
X6563Y249563D03*
Y252563D03*
X9063Y443063D03*
X9149Y440064D03*
X6063Y440063D03*
Y443063D03*
X62095Y92935D03*
X63095Y257935D03*
X62595Y282935D03*
X62863Y448063D03*
X114835Y96835D03*
X114791Y111835D03*
Y126835D03*
X115063Y156835D03*
Y141835D03*
X115335Y171835D03*
X115291Y216835D03*
X115335Y231835D03*
Y246835D03*
X114835Y261835D03*
X115335Y286835D03*
X116291Y301835D03*
X115791Y346835D03*
X115835Y361835D03*
X116335Y376835D03*
X115791Y391835D03*
X115835Y406835D03*
Y421835D03*
X133563Y94193D03*
X133513Y101693D03*
X137213Y113413D03*
X148563Y94193D03*
X148513Y101693D03*
X152213Y113413D03*
X138563Y180078D03*
X152933Y203063D03*
X138063Y283063D03*
X153433Y305063D03*
X157433Y420063D03*
X141563Y405063D03*
X150933Y420433D03*
X163563Y94193D03*
X163513Y101693D03*
X167213Y113413D03*
X171433Y137693D03*
X172433Y202933D03*
X167563Y213033D03*
X165933Y203063D03*
X159433D03*
X171193Y241933D03*
X166433Y305063D03*
X172933Y305563D03*
X176933D03*
X159933Y305063D03*
X167193Y362193D03*
X163933Y420063D03*
X172933D03*
X176933D03*
X158563Y484563D03*
X178563Y94193D03*
X193563D03*
X178513Y101693D03*
X193513D03*
X197213Y113413D03*
X182213D03*
X182563Y140063D03*
X194563Y160063D03*
X190563Y168563D03*
X184563D03*
X178933Y202733D03*
Y217063D03*
X194433Y261193D03*
X182363Y245593D03*
X194433Y267193D03*
X184433Y271433D03*
X183107Y362093D03*
X190433Y373563D03*
Y387063D03*
X184433D03*
X208563Y94193D03*
X208513Y101693D03*
X212213Y113413D03*
X223563Y94193D03*
X238563D03*
X223513Y101693D03*
X238513D03*
X227213Y113413D03*
X225693Y237693D03*
Y231193D03*
X239433Y257063D03*
X228043Y243693D03*
Y248693D03*
Y253693D03*
X238563Y243063D03*
X238693Y249693D03*
X238063Y270363D03*
X228063Y279563D03*
X232063Y270563D03*
X228063Y271563D03*
Y275362D03*
X238043Y297933D03*
X237563Y293563D03*
X228063Y283563D03*
Y288063D03*
X232563Y289063D03*
X237063Y288563D03*
X253563Y94193D03*
X253513Y101693D03*
X257213Y113413D03*
X242213D03*
X245933Y256563D03*
X243563Y270363D03*
X249593Y272843D03*
X244063Y288563D03*
X249563Y288966D03*
X246193Y309933D03*
X242693Y310433D03*
X246063Y305563D03*
X258693Y336093D03*
X254933Y326693D03*
X268563Y94193D03*
X268513Y101693D03*
X272213Y113413D03*
X267063Y235063D03*
X261193D03*
X266063Y249563D03*
X261193Y248063D03*
X262563Y272063D03*
X262457Y290669D03*
X267110Y310563D03*
X264563Y336063D03*
X275193Y360563D03*
X268693D03*
X283563Y94193D03*
X298563D03*
X283513Y101693D03*
X298513D03*
X287213Y113413D03*
Y127563D03*
X287563Y131063D03*
X288063Y134563D03*
Y138063D03*
Y141563D03*
Y145063D03*
Y148563D03*
X288764Y154563D03*
X291563Y159063D03*
X295063Y162063D03*
Y165563D03*
X300563D03*
X305563Y158563D03*
X308563Y155063D03*
X312063Y151563D03*
X315563Y148063D03*
X318563Y144563D03*
X303063Y162063D03*
X313193Y235193D03*
X319193D03*
X310418Y258563D03*
X319193Y248933D03*
X315389Y346737D03*
X308563Y484263D03*
X304563Y537563D03*
X304649Y534564D03*
X301563Y534563D03*
Y537563D03*
X323563Y94193D03*
X338563D03*
X323513Y101693D03*
X338513D03*
X325063Y137563D03*
X327063Y134063D03*
X322063Y141063D03*
X327063Y285063D03*
X323563Y285096D03*
X324563Y306418D03*
X340593Y314693D03*
Y320693D03*
X327693D03*
X353563Y94193D03*
X353513Y101693D03*
X357213Y113413D03*
X351485Y270985D03*
X347063Y292563D03*
X343163Y284563D03*
X347063Y289313D03*
X343163Y298149D03*
X349793Y312333D03*
X348563Y483763D03*
X368563Y94193D03*
X368513Y101693D03*
X372213Y113413D03*
X383563Y94193D03*
X398563D03*
X383513Y101693D03*
X398513D03*
X402213Y113413D03*
X387213D03*
X413563Y94193D03*
X413513Y101693D03*
X417213Y113413D03*
X422433Y232693D03*
X412350Y358433D03*
Y373433D03*
Y365933D03*
X428563Y94193D03*
X443563D03*
X428513Y101693D03*
X443513D03*
X432213Y113413D03*
X437933Y206693D03*
X429933Y232693D03*
X430677Y341063D03*
X430463Y330463D03*
X426063Y361563D03*
Y358563D03*
X429063D03*
Y361563D03*
X432063D03*
Y358563D03*
X426063Y373563D03*
Y370563D03*
Y367563D03*
Y364563D03*
X429063D03*
Y367563D03*
Y370563D03*
Y373563D03*
X432063D03*
Y370563D03*
Y367563D03*
Y364563D03*
X458563Y94193D03*
X458513Y101693D03*
X462213Y113413D03*
X447213D03*
X456496Y254063D03*
Y248063D03*
X450063Y318063D03*
X463250Y314063D03*
X463563Y343063D03*
Y340063D03*
Y337063D03*
X473563Y94193D03*
X473513Y101693D03*
X477213Y113413D03*
X484793Y219563D03*
X472563Y235063D03*
X484793Y234563D03*
X469996Y254063D03*
X480250Y314063D03*
X471750D03*
X478563Y340063D03*
X475563D03*
X481563D03*
X466563Y343063D03*
Y340063D03*
X475563Y337063D03*
X478563D03*
Y343063D03*
X475563D03*
X481563Y337063D03*
Y343063D03*
X472563Y337063D03*
X469563D03*
X466563D03*
X469563Y340063D03*
X472563Y343063D03*
Y340063D03*
X469563Y343063D03*
X475563Y368063D03*
Y364063D03*
X488563Y94193D03*
X488513Y101693D03*
X492213Y113413D03*
X488563Y229063D03*
Y225563D03*
X498563Y483563D03*
X494649Y534564D03*
X491563Y534563D03*
X494563Y537563D03*
X491563D03*
G54D20*
X233543Y275362D03*
X239843D03*
X233543Y284024D03*
X239843D03*
G54D21*
X235193Y307465D03*
G54D12*
X34063Y34563D03*
X34563Y508563D03*
X520063Y502063D03*
G54D30*
X463250Y318433D03*
Y326433D03*
X480250Y318433D03*
X471750D03*
X480250Y326433D03*
X471750D03*
G54D40*
G01X484260Y340551D02*
X489697D01*
G01Y331177D02*
Y340551D01*
G01D02*
Y349925D01*
G01Y340551D02*
X495134D01*
G54D31*
X458137Y366013D03*
X471522D03*
G54D22*
X235193Y303921D03*
G54D13*
X27559Y93085D03*
Y108085D03*
Y138085D03*
Y123085D03*
Y153085D03*
Y168085D03*
Y198085D03*
Y183085D03*
Y213085D03*
Y228085D03*
Y258085D03*
Y243085D03*
Y283085D03*
Y298085D03*
Y313085D03*
Y343085D03*
Y328085D03*
Y358085D03*
Y373085D03*
Y403085D03*
Y388085D03*
Y418085D03*
Y433085D03*
Y448085D03*
X77165Y108085D03*
Y123085D03*
Y138085D03*
Y153085D03*
Y168085D03*
Y183085D03*
Y198085D03*
Y213085D03*
Y228085D03*
Y243085D03*
Y258085D03*
Y298085D03*
Y313085D03*
Y343085D03*
Y328085D03*
Y358085D03*
Y373085D03*
Y403085D03*
Y388085D03*
Y418085D03*
Y433085D03*
Y448085D03*
X143413Y27559D03*
X158413D03*
Y77165D03*
X143413D03*
X158713Y466142D03*
X143713Y515748D03*
X158713D03*
X173413Y27559D03*
Y77165D03*
X173713Y466142D03*
Y515748D03*
X188413Y27559D03*
Y77165D03*
X188713Y466142D03*
Y515748D03*
X203413Y27559D03*
X218413D03*
Y77165D03*
X203413D03*
X203713Y466142D03*
X218713D03*
Y515748D03*
X203713D03*
X233413Y27559D03*
Y77165D03*
X242433Y195693D03*
Y205693D03*
Y215693D03*
X233713Y466142D03*
Y515748D03*
X248413Y27559D03*
Y77165D03*
X248713Y466142D03*
Y515748D03*
X263413Y27559D03*
X278413D03*
Y77165D03*
X263413D03*
X263713Y466142D03*
X278713D03*
Y515748D03*
X263713D03*
X293413Y27559D03*
Y77165D03*
X293713Y466142D03*
Y515748D03*
X308413Y27559D03*
X308713Y466142D03*
Y515748D03*
X333413Y27559D03*
Y77165D03*
X333713Y515748D03*
X348413Y27559D03*
X363413D03*
X348413Y77165D03*
X363413D03*
X350193Y330193D03*
X360193D03*
X363713Y466142D03*
X348713D03*
X363713Y515748D03*
X348713D03*
X378413Y27559D03*
Y77165D03*
X370193Y330193D03*
X378713Y466142D03*
Y515748D03*
X393413Y27559D03*
Y77165D03*
X393713Y466142D03*
Y515748D03*
X408413Y27559D03*
X423413D03*
X408413Y77165D03*
X423413D03*
X423713Y466142D03*
X408713D03*
X423713Y515748D03*
X408713D03*
X438413Y27559D03*
Y77165D03*
X438713Y466142D03*
Y515748D03*
X453413Y27559D03*
Y77165D03*
X453713Y466142D03*
Y515748D03*
X468413Y27559D03*
X483413D03*
X468413Y77165D03*
X483413D03*
X483713Y466142D03*
X468713D03*
X483713Y515748D03*
X468713D03*
X498413Y27559D03*
X498713Y466142D03*
Y515748D03*
G54D14*
X77165Y93085D03*
Y283085D03*
X143713Y466142D03*
X308413Y77165D03*
X333713Y466142D03*
X498413Y77165D03*
G54D23*
X246693Y272843D03*
Y276543D03*
Y286543D03*
Y282843D03*
X242693Y307543D03*
Y303843D03*
G54D32*
X505905Y172530D03*
Y270956D03*
G54D15*
X87195Y93085D03*
X93395D03*
X87195Y108085D03*
X93395D03*
X87195Y123085D03*
X93395D03*
X87195Y138085D03*
X93395D03*
X87825Y153085D03*
X94025D03*
X87195Y168085D03*
X93395D03*
X87195Y183085D03*
X93395D03*
X87195Y198085D03*
X93395D03*
X87195Y213085D03*
X93395D03*
X87195Y228085D03*
X93395D03*
X87195Y243085D03*
X93395D03*
X87195Y258085D03*
X93395D03*
X87195Y283085D03*
X93395D03*
X87195Y298085D03*
X93395D03*
X87195Y313085D03*
X93395D03*
X87195Y328085D03*
X93395D03*
X87195Y343085D03*
X93395D03*
X87195Y358085D03*
X93395D03*
X87195Y373085D03*
X93395D03*
X87195Y388085D03*
X93395D03*
X87195Y403085D03*
X93395D03*
X87195Y418085D03*
X93395D03*
X87195Y433085D03*
X93395D03*
X87195Y448085D03*
X93395D03*
X120195Y89335D03*
X126395D03*
X120195Y104335D03*
X126395D03*
X120195Y119335D03*
X126395D03*
X120195Y134335D03*
X126395D03*
X120195Y149335D03*
X126395D03*
X120195Y164335D03*
X126395D03*
X120195Y179335D03*
X126395D03*
X120195Y194335D03*
X126395D03*
X120195Y209335D03*
X126395D03*
X120195Y224335D03*
X126395D03*
X120195Y239335D03*
X126395D03*
X120195Y254335D03*
X126395D03*
X120195Y279335D03*
X126395D03*
X120195Y294335D03*
X126395D03*
X120195Y309335D03*
X126395D03*
X120195Y324335D03*
X126395D03*
X120195Y339335D03*
X126395D03*
X120195Y354335D03*
X126395D03*
X120195Y369335D03*
X126395D03*
X120195Y384335D03*
X126395D03*
X120195Y399335D03*
X126395D03*
X120195Y414335D03*
X126395D03*
X120195Y429335D03*
X126395D03*
X120195Y444335D03*
X126395D03*
X152213Y101693D03*
X137213D03*
X143413D03*
X152213Y109193D03*
X143413D03*
X137213D03*
X152933Y199033D03*
Y192833D03*
X153433Y301293D03*
Y295093D03*
X150933Y416293D03*
Y410093D03*
X143713Y442963D03*
Y449163D03*
X167213Y101693D03*
X173413D03*
X158413D03*
X173413Y109193D03*
X167213D03*
X158413D03*
X172433Y199033D03*
Y192833D03*
X165933Y199033D03*
Y192833D03*
X159433Y199033D03*
Y192833D03*
X172433Y206833D03*
Y213033D03*
X177433Y245593D03*
Y251793D03*
X172933Y301293D03*
Y295093D03*
X166433Y301293D03*
Y295093D03*
X159933Y301293D03*
Y295093D03*
X177433Y362093D03*
Y368293D03*
X176933Y416293D03*
Y410093D03*
X170433Y416293D03*
Y410093D03*
X163933Y416293D03*
Y410093D03*
X157433Y416293D03*
Y410093D03*
X158713Y443593D03*
X173713D03*
X158713Y449793D03*
X173713D03*
X197213Y101693D03*
X182213D03*
X188413D03*
X197213Y109193D03*
X188413D03*
X182213D03*
X177933Y141833D03*
Y148033D03*
X178933Y199033D03*
Y192833D03*
Y206833D03*
Y213033D03*
X179433Y301293D03*
Y295093D03*
X188713Y443593D03*
Y449793D03*
X212213Y101693D03*
X218413D03*
X203413D03*
X218413Y109193D03*
X212213D03*
X203413D03*
X203713Y443593D03*
X218713D03*
X203713Y449793D03*
X218713D03*
X227213Y101693D03*
X233413D03*
Y109193D03*
X227213D03*
X233713Y443593D03*
Y449793D03*
X257213Y101693D03*
X242213D03*
X248413D03*
X257213Y109193D03*
X248413D03*
X242213D03*
X248793Y249693D03*
X242593D03*
X245933Y260493D03*
X242463Y243063D03*
X248663D03*
X245933Y266693D03*
X248713Y443593D03*
Y449793D03*
X272213Y101693D03*
X278413D03*
X263413D03*
X278413Y109193D03*
X272213D03*
X263413D03*
X268693Y350593D03*
Y356793D03*
X275193D03*
Y350593D03*
X263713Y443593D03*
X278713D03*
X263713Y449793D03*
X278713D03*
X287213Y101693D03*
X293413D03*
Y109193D03*
X287213D03*
X293713Y443593D03*
Y449793D03*
X302213Y101693D03*
X308413D03*
Y109193D03*
X302213D03*
X315389Y330293D03*
Y324093D03*
Y336593D03*
Y342793D03*
X308713Y443593D03*
Y449793D03*
X327213Y101693D03*
X333413D03*
Y109193D03*
X327213D03*
X336963Y281063D03*
X341093Y270985D03*
X336963Y301563D03*
Y294563D03*
Y288063D03*
X337293Y308193D03*
X331093D03*
X333713Y443593D03*
Y449793D03*
X357213Y101693D03*
X342213D03*
X348413D03*
X357213Y109193D03*
X348413D03*
X342213D03*
X343163Y281063D03*
X347293Y270985D03*
X343163Y301563D03*
Y294563D03*
Y288063D03*
X343593Y308193D03*
X349793D03*
X348713Y443593D03*
Y449793D03*
X372213Y101693D03*
X378413D03*
X363413D03*
X378413Y109193D03*
X372213D03*
X363413D03*
X363713Y443593D03*
X378713D03*
X363713Y449793D03*
X378713D03*
X402213Y101693D03*
X387213D03*
X393413D03*
X402213Y109193D03*
X393413D03*
X387213D03*
X393713Y443593D03*
Y449793D03*
X417213Y101693D03*
X423413D03*
X408413D03*
X423413Y109193D03*
X417213D03*
X408413D03*
X408713Y443593D03*
Y449793D03*
X432213Y101693D03*
X438413D03*
Y109193D03*
X432213D03*
X425880Y330463D03*
Y336663D03*
Y342963D03*
Y349163D03*
X423713Y443593D03*
X438713D03*
X423713Y449793D03*
X438713D03*
X462213Y101693D03*
X447213D03*
X453413D03*
X462213Y109193D03*
X453413D03*
X447213D03*
X453880Y330463D03*
Y336663D03*
X453713Y443593D03*
Y449793D03*
X477213Y101693D03*
X483413D03*
X468413D03*
X483413Y109193D03*
X477213D03*
X468413D03*
X484793Y215874D03*
X478593D03*
X484793Y238374D03*
X478593D03*
X484793Y230874D03*
X478593D03*
X484793Y223374D03*
X478593D03*
X468713Y443593D03*
X483713D03*
X468713Y449793D03*
X483713D03*
X492213Y101693D03*
X498413D03*
Y109193D03*
X492213D03*
X498713Y443593D03*
Y449793D03*
G54D24*
X258252Y261142D03*
Y263110D03*
Y265079D03*
Y267047D03*
Y269016D03*
Y270984D03*
Y272953D03*
Y274921D03*
Y276890D03*
Y278858D03*
Y280827D03*
Y282795D03*
Y284764D03*
Y286732D03*
Y288701D03*
Y290669D03*
Y292638D03*
Y294606D03*
Y296575D03*
Y298542D03*
Y300512D03*
Y302480D03*
Y304449D03*
Y306417D03*
Y308386D03*
X319276Y278859D03*
Y276890D03*
Y274922D03*
Y272953D03*
Y270985D03*
Y269016D03*
Y267048D03*
Y265079D03*
Y263111D03*
Y261142D03*
Y300512D03*
Y298544D03*
Y296575D03*
Y294607D03*
Y292638D03*
Y290670D03*
Y288701D03*
Y286733D03*
Y284764D03*
Y282796D03*
Y280827D03*
Y308386D03*
Y306418D03*
Y304449D03*
Y302481D03*
G54D33*
X500315Y199932D03*
Y210837D03*
Y221743D03*
Y232649D03*
X511496Y205385D03*
Y216290D03*
Y227196D03*
Y238101D03*
G54D25*
X278922Y254252D03*
X276953D03*
X274985D03*
X273016D03*
X271048D03*
X269079D03*
X267111D03*
X265142D03*
Y315276D03*
X267110D03*
X269079D03*
X271047D03*
X273016D03*
X274984D03*
X276953D03*
X278921D03*
X298607Y254252D03*
X296638D03*
X294670D03*
X292701D03*
X290733D03*
X288764D03*
X286796D03*
X284827D03*
X282859D03*
X280890D03*
Y315276D03*
X282858D03*
X284827D03*
X286795D03*
X288763D03*
X290732D03*
X292700D03*
X294668D03*
X296637D03*
X298606D03*
X312386Y254252D03*
X310418D03*
X308449D03*
X306481D03*
X304512D03*
X302544D03*
X300575D03*
X300574Y315276D03*
X302542D03*
X304511D03*
X306480D03*
X308448D03*
X310417D03*
X312386D03*
G54D34*
X500315Y243554D03*
G54D16*
X100695Y93085D03*
X110895Y89335D03*
Y96835D03*
X100695Y108085D03*
X110895Y111835D03*
Y104335D03*
X100695Y123085D03*
X110895Y126835D03*
Y119335D03*
Y134335D03*
X100695Y138085D03*
X110895Y141835D03*
X100825Y153085D03*
X111025Y156835D03*
Y149335D03*
X100695Y168085D03*
X110895Y171835D03*
Y164335D03*
X100695Y183085D03*
X110895Y186835D03*
Y179335D03*
X100695Y198085D03*
X110895Y194335D03*
Y201835D03*
X100695Y213085D03*
X110895Y216835D03*
Y209335D03*
X100695Y228085D03*
X110895Y231835D03*
Y224335D03*
Y239335D03*
X100695Y243085D03*
X110895Y246835D03*
X100695Y258085D03*
X110895Y254335D03*
Y261835D03*
Y279335D03*
X100695Y283085D03*
X110895Y286835D03*
X100695Y298085D03*
X110895Y294335D03*
Y301835D03*
X100695Y313085D03*
X110895Y316835D03*
Y309335D03*
X100695Y328085D03*
X110895Y331835D03*
Y324335D03*
Y339335D03*
X100695Y343085D03*
X110895Y346835D03*
X100695Y358085D03*
X110895Y361835D03*
Y354335D03*
X100695Y373085D03*
X110895Y376835D03*
Y369335D03*
X100695Y388085D03*
X110895Y391835D03*
Y384335D03*
X100695Y403085D03*
X110895Y399335D03*
Y406835D03*
X100695Y418085D03*
X110895Y421835D03*
Y414335D03*
X100695Y433085D03*
X110895Y436835D03*
Y429335D03*
Y444335D03*
X100695Y448085D03*
X110895Y451835D03*
G54D17*
X137413Y94193D03*
X143413D03*
X152413D03*
X167413D03*
X173413D03*
X158413D03*
X171433Y141693D03*
Y147693D03*
X171193Y245693D03*
Y251693D03*
Y362193D03*
Y368193D03*
X197413Y94193D03*
X182413D03*
X188413D03*
X190563Y158063D03*
X184563D03*
X190563Y164563D03*
X184563D03*
X190433Y267193D03*
X184433D03*
X190433Y261193D03*
X184433D03*
X190433Y383193D03*
X184433D03*
X190433Y377193D03*
X184433D03*
X212413Y94193D03*
X218413D03*
X203413D03*
X227413D03*
X233413D03*
X235693Y237693D03*
X229693D03*
X235693Y231193D03*
X229693D03*
X242413Y94193D03*
X248413D03*
X257413D03*
X239433Y260693D03*
Y266693D03*
X247193Y292193D03*
X241193D03*
X249693Y303933D03*
Y309933D03*
X258693Y326693D03*
Y332693D03*
X263413Y94193D03*
X272413D03*
X278413D03*
X267063Y238563D03*
X261193Y238563D03*
X267063Y244563D03*
X261193Y244563D03*
X264563Y326563D03*
Y332563D03*
X287413Y94193D03*
X293413D03*
X302413D03*
X308413D03*
X319193Y239193D03*
X313193D03*
X319193Y245193D03*
X313193D03*
X327413Y94193D03*
X333413D03*
X331193Y314693D03*
X337193D03*
X331193Y320693D03*
X337193D03*
X357413Y94193D03*
X342413D03*
X348413D03*
X363413D03*
X372413D03*
X378413D03*
X402413D03*
X387413D03*
X393413D03*
X417413D03*
X423413D03*
X408413D03*
X418693Y232693D03*
Y238693D03*
X421750Y358433D03*
X415750D03*
X421750Y373433D03*
X415750D03*
X421750Y365933D03*
X415750D03*
X432413Y94193D03*
X438413D03*
X434193Y206693D03*
Y212693D03*
X426693Y206693D03*
Y212693D03*
X433693Y238693D03*
Y232693D03*
X426193D03*
Y238693D03*
X447413Y94193D03*
X453413D03*
X462413D03*
X460496Y248063D03*
Y254063D03*
X453880Y318063D03*
Y324063D03*
X468413Y94193D03*
X477413D03*
X483413D03*
X466496Y248063D03*
Y254063D03*
X492413Y94193D03*
X498413D03*
G54D26*
X328740Y270985D03*
X334646D03*
G54D35*
X489697Y340551D03*
X514500D03*
G54D27*
X444563Y205063D03*
Y210063D03*
Y215063D03*
Y220063D03*
Y225063D03*
Y230063D03*
Y235063D03*
Y240063D03*
X466563Y205063D03*
Y210063D03*
Y215063D03*
Y220063D03*
Y225063D03*
Y230063D03*
Y235063D03*
Y240063D03*
G54D18*
X141563Y158063D03*
X146563D03*
X151563D03*
X156563D03*
X141563Y180063D03*
X146563D03*
X151563D03*
X156563D03*
X141563Y261063D03*
X146563D03*
X151563D03*
X156563D03*
X141563Y283063D03*
X146563D03*
X151563D03*
X156563D03*
X141563Y377063D03*
X146563D03*
X151563D03*
X156563D03*
X141563Y399063D03*
X146563D03*
X151563D03*
X156563D03*
X161563Y158063D03*
X166563D03*
X176563D03*
X171563D03*
X161563Y180063D03*
X166563D03*
X171563D03*
X176563D03*
X161563Y261063D03*
X166563D03*
X176563D03*
X171563D03*
X161563Y283063D03*
X166563D03*
X171563D03*
X176563D03*
X161563Y377063D03*
X166563D03*
X176563D03*
X171563D03*
X161563Y399063D03*
X166563D03*
X171563D03*
X176563D03*
G54D36*
X501902Y359055D03*
G54D37*
G01X336963Y294563D02*
X334463Y292063D01*
X329325D01*
X324998Y296391D01*
X323203D01*
X323019Y296575D01*
X319276D01*
G01X336963Y288063D02*
X334563Y290463D01*
X328662D01*
X324335Y294791D01*
X323203D01*
X323019Y294607D01*
X319276D01*
G01X336963Y301563D02*
Y294563D01*
G01Y281063D02*
Y288063D01*
G01X343163Y281063D02*
Y284563D01*
G01X347063Y292563D02*
X345063Y294563D01*
X343163D01*
G01X466563Y220063D02*
X463763D01*
X462155Y218455D01*
X458171D01*
X456663Y219963D01*
Y243726D01*
X407826Y292563D01*
X347063D01*
G01X343163Y301563D02*
Y298149D01*
G01X347063Y289313D02*
X345813Y288063D01*
X343163D01*
G01X347063Y289313D02*
X348713Y290963D01*
X407163D01*
X455063Y243063D01*
Y219300D01*
X457508Y216855D01*
X461971D01*
X463763Y215063D01*
X466563D01*
G01X478593Y215874D02*
Y223374D01*
G01X466563Y225063D02*
X471652D01*
X473063Y226474D01*
X477152D01*
X478593Y225033D01*
Y223374D01*
G01Y230874D02*
Y238374D01*
G01X466563Y230063D02*
X471063D01*
X473052Y228074D01*
X477574D01*
X478593Y229093D01*
Y230874D01*
G01X484793Y215874D02*
Y219563D01*
G01X500315Y232649D02*
Y228649D01*
X499662Y227996D01*
X489630D01*
X488563Y229063D01*
G01D02*
X486752Y230874D01*
X484793D01*
G01Y238374D02*
Y234563D01*
G01Y223374D02*
X486374D01*
X488563Y225563D01*
G01D02*
X489396Y226396D01*
X499662D01*
X500315Y225743D01*
Y221743D01*
G01X0Y0D02*
Y543307D01*
X543307D01*
Y0D01*
X0D01*
G01D02*
Y543307D01*
X543307D01*
Y0D01*
X0D01*
G54D28*
X445081Y341063D03*
Y337323D03*
X434678D03*
Y341063D03*
X445081Y344803D03*
X434678D03*
G54D19*
X230843Y248693D03*
X234543D03*
X230843Y243693D03*
X234543D03*
X230843Y253693D03*
X234543D03*
X240843Y297933D03*
X244543D03*
X438030Y351063D03*
X441730D03*
G54D38*
G01X126395Y89335D02*
Y96895D01*
X130063Y100563D01*
Y109063D01*
X134563Y113563D01*
Y117063D01*
X166563Y149063D01*
Y158063D01*
G01X161563D02*
Y149063D01*
X131563Y119063D01*
Y114563D01*
X126395Y109395D01*
Y104335D01*
G01X156563Y158063D02*
Y149502D01*
X126395Y119335D01*
G01Y134335D02*
X134835D01*
X151563Y151063D01*
Y158063D01*
G01X146563D02*
Y154063D01*
X141835Y149335D01*
X126395D01*
G01X141563Y158063D02*
X135563D01*
X129291Y164335D01*
X126395D01*
G01X146563Y180063D02*
Y184063D01*
X144563Y186063D01*
X136063D01*
X129335Y179335D01*
X126395D01*
G01X151563Y180063D02*
Y184107D01*
X147107Y188563D01*
X136063D01*
X130291Y194335D01*
X126395D01*
G01Y209335D02*
X129109D01*
X166563Y246788D01*
Y261063D01*
G01X126395Y224335D02*
X135835D01*
X161563Y250063D01*
Y261063D01*
G01X126395Y254335D02*
X130291D01*
X134563Y250063D01*
X148063D01*
X151563Y253563D01*
Y261063D01*
G01X126395Y239335D02*
X143335D01*
X156563Y252563D01*
Y261063D01*
G01X126395Y279335D02*
Y264731D01*
X136563Y254563D01*
X145063D01*
X146563Y256063D01*
Y261063D01*
G01X141563D02*
X137063D01*
X132063Y266063D01*
Y292063D01*
X129791Y294335D01*
X126395D01*
G01X146563Y283063D02*
Y288063D01*
X140563Y294063D01*
Y305063D01*
X136291Y309335D01*
X126395D01*
G01Y324335D02*
X132791D01*
X144563Y312563D01*
Y295563D01*
X151563Y288563D01*
Y283063D01*
G01X126395Y339335D02*
X137835D01*
X166563Y368063D01*
Y377063D01*
G01X126395Y354335D02*
X144835D01*
X161563Y371063D01*
Y377063D01*
G01X126395Y369335D02*
Y366621D01*
X126563Y366453D01*
Y366063D01*
X129563Y363063D01*
X148563D01*
X156563Y371063D01*
Y377063D01*
G01X126395Y384335D02*
Y377231D01*
X137563Y366063D01*
X147563D01*
X151563Y370063D01*
Y377063D01*
G01X126395Y399335D02*
X130291D01*
X133563Y396063D01*
Y374063D01*
X139063Y368563D01*
X145063D01*
X146563Y370063D01*
Y377063D01*
G01X126395Y414335D02*
Y408731D01*
X137063Y398063D01*
Y379063D01*
X139063Y377063D01*
X141563D01*
G01X126395Y429335D02*
Y424731D01*
X146563Y404563D01*
Y399063D01*
G01X151563D02*
Y403063D01*
X139563Y415063D01*
Y434063D01*
X129291Y444335D01*
X126395D01*
G01X152213Y109193D02*
Y113413D01*
G01X137213Y109193D02*
Y113413D01*
G01X152933Y192833D02*
Y189193D01*
X156563Y185563D01*
Y180063D01*
G01X153433Y295093D02*
Y292693D01*
X156563Y289563D01*
Y283063D01*
G01Y399063D02*
Y404463D01*
X150933Y410093D01*
G01X258252Y304449D02*
X254790D01*
X252963Y306276D01*
Y314063D01*
X195563Y371463D01*
Y407063D01*
X173563Y429063D01*
X154899D01*
X143713Y440249D01*
Y442963D01*
G01X167213Y109193D02*
Y113413D01*
G01X165933Y192833D02*
Y188693D01*
X166563Y188063D01*
Y180063D01*
G01X161563D02*
Y185933D01*
X159433Y188063D01*
Y192833D01*
G01X176563Y180063D02*
Y186693D01*
X178933Y189063D01*
Y192833D01*
G01X172433D02*
Y188933D01*
X171563Y188063D01*
Y180063D01*
G01X172433Y199033D02*
Y202933D01*
G01Y206833D02*
Y202933D01*
G01X171563Y283063D02*
Y291009D01*
X172933Y292379D01*
Y295093D01*
G01X161563Y283063D02*
Y290749D01*
X159933Y292379D01*
Y295093D01*
G01X166563Y283063D02*
Y292249D01*
X166433Y292379D01*
Y295093D01*
G01X179433D02*
Y291933D01*
X176563Y289063D01*
Y283063D01*
G01X172933Y301293D02*
Y305563D01*
G01X171193Y368193D02*
X174619D01*
X174719Y368293D01*
X177433D01*
G01X171563Y377063D02*
Y371263D01*
X171193Y370893D01*
Y368193D01*
G01X171563Y399063D02*
Y406249D01*
X170433Y407379D01*
Y410093D01*
G01X157433D02*
Y408193D01*
X161563Y404063D01*
Y399063D01*
G01X163933Y410093D02*
Y407193D01*
X166563Y404563D01*
Y399063D01*
G01X170433Y416293D02*
Y417563D01*
X172933Y420063D01*
G01X176563Y399063D02*
Y407009D01*
X176933Y407379D01*
Y410093D01*
G01X258252Y306417D02*
X255563D01*
X254563Y307417D01*
Y317563D01*
X199563Y372563D01*
Y408563D01*
X173563Y434563D01*
X165029D01*
X158713Y440879D01*
Y443593D01*
G01X258252Y308386D02*
Y318874D01*
X204063Y373063D01*
Y410529D01*
X173713Y440879D01*
Y443593D01*
G01X182213Y109193D02*
Y113413D01*
G01X178933Y206833D02*
Y202733D01*
G01D02*
Y199033D01*
G01X179433Y301293D02*
Y303063D01*
X176933Y305563D01*
G01Y416293D02*
Y420063D01*
G01X188713Y443593D02*
Y439413D01*
X208563Y419563D01*
Y377063D01*
X242563Y343063D01*
X262063D01*
X269079Y336047D01*
Y315276D01*
G01X212213Y109193D02*
Y113413D01*
G01X197213Y109193D02*
Y113413D01*
G01X271047Y315276D02*
Y336579D01*
X260813Y346813D01*
X247813D01*
X213563Y381063D01*
Y426563D01*
X203713Y436413D01*
Y443593D01*
G01X227213Y109193D02*
Y113413D01*
G01X234543Y253693D02*
X248193D01*
X250063Y255563D01*
Y264563D01*
X252547Y267047D01*
X258252D01*
G01X233543Y284024D02*
Y281333D01*
X235063Y279813D01*
X243563D01*
X246593Y282843D01*
X246693D01*
G01X235193Y307465D02*
X236161D01*
X239783Y303843D01*
X242693D01*
G01X235193Y303921D02*
X236699D01*
X239563Y301057D01*
X243069D01*
X244543Y299583D01*
Y297933D01*
G01X218713Y443593D02*
Y385913D01*
X253563Y351063D01*
X259063D01*
X273016Y337110D01*
Y315276D01*
G01X233713Y443593D02*
Y378913D01*
X274984Y337642D01*
Y315276D01*
G01X257213Y109193D02*
Y113413D01*
G01X242213Y109193D02*
Y113413D01*
G01X242433Y195693D02*
X256063Y209323D01*
Y252063D01*
X258252Y254252D01*
X265142D01*
G01X242433Y205693D02*
X254063Y217323D01*
Y260415D01*
X254790Y261142D01*
X258252D01*
G01X248793Y249693D02*
Y245907D01*
X248663Y245777D01*
Y243063D01*
G01X248793Y249693D02*
Y251293D01*
X252063Y254563D01*
Y263063D01*
X254079Y265079D01*
X258252D01*
G01Y272953D02*
X261673D01*
X262563Y272063D01*
G01D02*
X261484Y270984D01*
X258252D01*
G01Y269016D02*
Y267047D01*
G01X246693Y276543D02*
X244244D01*
X243063Y275362D01*
X239843D01*
G01X258252Y284764D02*
X254264D01*
X250063Y280563D01*
Y277713D01*
X248893Y276543D01*
X246693D01*
G01X245933Y266693D02*
X248693D01*
X252063Y270063D01*
Y279800D01*
X255058Y282795D01*
X258252D01*
G01X245933Y266693D02*
X239433D01*
G01X258252Y290669D02*
X262457D01*
G01X258252Y298542D02*
X255084D01*
X249693Y303933D01*
G01X247193Y292193D02*
X250071D01*
X253563Y288701D01*
X258252D01*
G01X242693Y303843D02*
X244283D01*
X253520Y294606D01*
X258252D01*
G01X244543Y297933D02*
X247193D01*
X252488Y292638D01*
X258252D01*
G01Y286732D02*
X253732D01*
X249843Y282843D01*
X246693D01*
G01X248713Y443593D02*
Y411413D01*
X278921Y381205D01*
Y315276D01*
G01X272213Y109193D02*
Y113413D01*
G01X287213Y127563D02*
X285587Y129189D01*
Y129558D01*
X273016Y142128D01*
Y254252D01*
G01X302213Y109193D02*
X271048Y140358D01*
Y254252D01*
G01X287563Y131063D02*
X274985Y143641D01*
Y254252D01*
G01X288063Y134563D02*
X276953Y145673D01*
Y254252D01*
G01X288063Y138063D02*
X278922Y147204D01*
Y254252D01*
G01X267111D02*
Y250611D01*
X266063Y249563D01*
G01X269079Y254252D02*
Y249279D01*
X267063Y247263D01*
Y244563D01*
G01X267110Y315276D02*
Y310563D01*
G01X265142Y315276D02*
Y323284D01*
X264563Y323863D01*
Y326563D01*
G01X275193Y350593D02*
Y340433D01*
X276953Y338673D01*
Y315276D01*
G01X275193Y350593D02*
X268693D01*
G01X280890Y315276D02*
Y386236D01*
X263713Y403413D01*
Y443593D01*
G01X278713D02*
Y394913D01*
X282858Y390768D01*
Y315276D01*
G01X287213Y109193D02*
Y113413D01*
G01X288063Y141563D02*
X280890Y148736D01*
Y254252D01*
G01X288063Y145063D02*
X282859Y150267D01*
Y254252D01*
G01X288063Y148563D02*
X284827Y151799D01*
Y254252D01*
G01X288764Y154563D02*
Y254252D01*
G01X291563Y159063D02*
X290733Y159893D01*
Y254252D01*
G01X295063Y162063D02*
X292701Y164425D01*
Y254252D01*
G01X295063Y165563D02*
X294670Y165956D01*
Y254252D01*
G01X300563Y165563D02*
Y218063D01*
X296638Y221988D01*
Y254252D01*
G01X303063Y162063D02*
Y220063D01*
X298607Y224519D01*
Y254252D01*
G01X393713Y443593D02*
Y440879D01*
X384176Y431342D01*
X353342D01*
X296637Y374637D01*
Y315276D01*
G01X298606D02*
Y371106D01*
X355374Y427874D01*
X395874D01*
X408713Y440713D01*
Y443593D01*
G01X284827Y315276D02*
Y390827D01*
X293713Y399713D01*
Y443593D01*
G01X308713D02*
Y411713D01*
X286795Y389795D01*
Y315276D01*
G01X333713Y443593D02*
Y432713D01*
X288763Y387763D01*
Y315276D01*
G01X348713Y443593D02*
X346321Y441201D01*
Y440321D01*
X290732Y384731D01*
Y315276D01*
G01X292700D02*
Y381700D01*
X349563Y438563D01*
X361397D01*
X363713Y440879D01*
Y443593D01*
G01X378713D02*
Y440713D01*
X373063Y435063D01*
X351563D01*
X294668Y378168D01*
Y315276D01*
G01X308563Y155063D02*
Y221563D01*
X302544Y227582D01*
Y254252D01*
G01X312063Y151563D02*
Y222563D01*
X304512Y230114D01*
Y254252D01*
G01X315563Y148063D02*
Y223563D01*
X306481Y232645D01*
Y254252D01*
G01X318563Y144563D02*
Y224063D01*
X308449Y234177D01*
Y254252D01*
G01X305563Y158563D02*
Y221063D01*
X300575Y226051D01*
Y254252D01*
G01X310418D02*
Y258563D01*
G01X312386Y254252D02*
Y248700D01*
X313193Y247893D01*
Y245193D01*
G01X319276Y270985D02*
X328740D01*
G01X322063Y141063D02*
Y225063D01*
X324063Y227063D01*
Y259816D01*
X322738Y261142D01*
X319276D01*
G01Y263111D02*
X323515D01*
X326063Y260563D01*
Y226063D01*
X325063Y225063D01*
Y137563D01*
G01X319276Y265079D02*
X324547D01*
X327963Y261663D01*
Y134963D01*
X327063Y134063D01*
G01X319276Y267048D02*
X325578D01*
X330063Y262563D01*
Y125563D01*
X342213Y113413D01*
Y109193D01*
G01X327063Y285063D02*
X324796Y282796D01*
X319276D01*
G01Y284764D02*
X323231D01*
X323563Y285096D01*
G01X319276Y306418D02*
X324563D01*
G01X331193Y314693D02*
X329193D01*
X322886Y308386D01*
X319276D01*
G01X423713Y443593D02*
Y440879D01*
X407397Y424563D01*
X357563D01*
X300574Y367574D01*
Y315276D01*
G01X438713Y443593D02*
Y440879D01*
X418397Y420563D01*
X359063D01*
X302542Y364042D01*
Y315276D01*
G01X453713Y443593D02*
Y440713D01*
X429563Y416563D01*
X361063D01*
X304511Y360011D01*
Y315276D01*
G01X468713Y443593D02*
Y440879D01*
X439897Y412063D01*
X362063D01*
X306480Y356480D01*
Y315276D01*
G01X483713Y443593D02*
Y440879D01*
X450397Y407563D01*
X363563D01*
X308448Y352448D01*
Y315276D01*
G01X498713Y443593D02*
Y440213D01*
X461563Y403063D01*
X364563D01*
X310417Y348917D01*
Y315276D01*
G01X331093Y308193D02*
X329693D01*
X323981Y302481D01*
X319276D01*
G01X312386Y315276D02*
Y321089D01*
X315389Y324093D01*
G01Y330293D02*
X348493D01*
X348593Y330193D01*
X350193D01*
G01X315389Y336593D02*
Y330293D01*
G01X334646Y270985D02*
X341093D01*
G01X337293Y308193D02*
X343593D01*
G01X357213Y109193D02*
Y113413D01*
G01X343593Y308193D02*
Y313593D01*
X360193Y330193D01*
G01X372213Y109193D02*
Y113413D01*
G01X387213Y109193D02*
Y113413D01*
G01X417213Y109193D02*
Y113413D01*
G01X402213Y109193D02*
Y113413D01*
G01X444563Y230063D02*
X436350D01*
X435563Y229276D01*
X420850D01*
X418693Y231433D01*
Y232693D01*
G01X444563Y240063D02*
X438123D01*
X435123Y243063D01*
X420063D01*
X418693Y241693D01*
Y238693D01*
G01X432213Y109193D02*
Y113413D01*
G01X444563Y220063D02*
X436063D01*
X430563Y214563D01*
Y207563D01*
X429693Y206693D01*
X426693D01*
G01X444563Y215063D02*
X440250D01*
X437880Y212693D01*
X434193D01*
G01X444563Y225063D02*
X436363D01*
X426693Y215393D01*
Y212693D01*
G01X426193Y238693D02*
X433693D01*
G01X444563Y235063D02*
X438563D01*
X434933Y238693D01*
X433693D01*
G01X462213Y109193D02*
Y113413D01*
G01X447213Y109193D02*
Y113413D01*
G01X477213Y109193D02*
Y113413D01*
G01X492213Y109193D02*
Y113413D01*
G54D29*
X437024Y366063D03*
X447735D03*
G54D39*
G01X87195Y93085D02*
X77165D01*
G01X100695D02*
X93395D01*
G01X87195Y108085D02*
X77165D01*
G01X100695D02*
X93395D01*
G01X100695Y123085D02*
X93395D01*
G01X87195D02*
X77165D01*
G01X87195Y138085D02*
X77165D01*
G01X87825Y153085D02*
X77165D01*
G01X100695Y138085D02*
X93395D01*
G01X100825Y153085D02*
X94025D01*
G01X100695Y168085D02*
X93395D01*
G01X87195D02*
X77165D01*
G01X87195Y183085D02*
X77165D01*
G01X87195Y198085D02*
X77165D01*
G01X100695Y183085D02*
X93395D01*
G01X100695Y198085D02*
X93395D01*
G01X87195Y213085D02*
X77165D01*
G01X100695D02*
X93395D01*
G01X100695Y228085D02*
X93395D01*
G01X87195D02*
X77165D01*
G01X87195Y258085D02*
X77165D01*
G01X100695Y243085D02*
X93395D01*
G01X100695Y258085D02*
X93395D01*
G01X87195Y243085D02*
X77165D01*
G01X87195Y298085D02*
X77165D01*
G01X87195Y283085D02*
X77165D01*
G01X100695D02*
X93395D01*
G01X100695Y298085D02*
X93395D01*
G01X87195Y313085D02*
X77165D01*
G01X100695D02*
X93395D01*
G01X87195Y328085D02*
X77165D01*
G01X100695D02*
X93395D01*
G01X87195Y343085D02*
X77165D01*
G01X87195Y358085D02*
X77165D01*
G01X100695Y343085D02*
X93395D01*
G01X100695Y358085D02*
X93395D01*
G01X87195Y373085D02*
X77165D01*
G01X100695D02*
X93395D01*
G01X87195Y403085D02*
X77165D01*
G01X87195Y388085D02*
X77165D01*
G01X100695D02*
X93395D01*
G01X100695Y403085D02*
X93395D01*
G01X87195Y418085D02*
X77165D01*
G01X100695D02*
X93395D01*
G01X87195Y433085D02*
X77165D01*
G01X100695D02*
X93395D01*
G01X87195Y448085D02*
X77165D01*
G01X100695D02*
X93395D01*
G01X120195Y89335D02*
X110895D01*
G01Y111835D02*
X114791D01*
G01X110895Y96835D02*
X114835D01*
G01X120195Y104335D02*
X110895D01*
G01Y126835D02*
X114791D01*
G01X120195Y119335D02*
X110895D01*
G01X120195Y134335D02*
X110895D01*
G01X111025Y156835D02*
X115063D01*
G01X110895Y141835D02*
X115063D01*
G01X120195Y149335D02*
X111025D01*
G01X110895Y171835D02*
X115335D01*
G01X110895Y164335D02*
X120195D01*
G01X110895Y179335D02*
X120195D01*
G01X110895Y194335D02*
X120195D01*
G01X110895Y216835D02*
X115291D01*
G01X110895Y209335D02*
X120195D01*
G01X110895Y231835D02*
X115335D01*
G01X110895Y224335D02*
X120195D01*
G01Y239335D02*
X110895D01*
G01Y246835D02*
X115335D01*
G01X120195Y254335D02*
X110895D01*
G01Y261835D02*
X114835D01*
G01X120195Y279335D02*
X110895D01*
G01Y286835D02*
X115335D01*
G01X120195Y294335D02*
X110895D01*
G01Y301835D02*
X116291D01*
G01X120195Y309335D02*
X110895D01*
G01X120195Y324335D02*
X110895D01*
G01X120195Y339335D02*
X110895D01*
G01Y346835D02*
X115791D01*
G01X110895Y361835D02*
X115835D01*
G01X120195Y354335D02*
X110895D01*
G01Y376835D02*
X116335D01*
G01X120195Y369335D02*
X110895D01*
G01Y391835D02*
X115791D01*
G01X120195Y384335D02*
X110895D01*
G01X120195Y399335D02*
X110895D01*
G01Y406835D02*
X115835D01*
G01X110895Y421835D02*
X115835D01*
G01X120195Y414335D02*
X110895D01*
G01X120195Y429335D02*
X110895D01*
G01X120195Y444335D02*
X110895D01*
G01X137413Y94193D02*
X133563D01*
G01X137213Y101693D02*
X133513D01*
G01X152413Y94193D02*
X148563D01*
G01X143413D02*
Y77165D01*
G01Y101693D02*
Y94193D01*
G01X152213Y101693D02*
X148513D01*
G01X143413Y109193D02*
Y101693D01*
G01X141563Y180063D02*
X138578D01*
X138563Y180078D01*
G01X152933Y199033D02*
Y203063D01*
G01X141563Y283063D02*
X138063D01*
G01X153433Y301293D02*
Y305063D01*
G01X141563Y399063D02*
Y405063D01*
G01X150933Y416293D02*
Y420433D01*
G01X143713Y449163D02*
Y466142D01*
G01X167413Y94193D02*
X163563D01*
G01X158413D02*
Y77165D01*
G01Y101693D02*
Y94193D01*
G01X173413D02*
Y77165D01*
G01Y101693D02*
Y94193D01*
G01X167213Y101693D02*
X163513D01*
G01X158413Y109193D02*
Y101693D01*
G01X173413Y109193D02*
Y101693D01*
G01X171433Y141693D02*
Y137693D01*
G01X177933Y148033D02*
X174903D01*
X174563Y147693D01*
X171433D01*
G01X171563Y158063D02*
Y151023D01*
X171433Y150893D01*
Y147693D01*
G01X176563Y158063D02*
X184563D01*
G01X165933Y199033D02*
Y203063D01*
G01X159433Y199033D02*
Y203063D01*
G01X172433Y213033D02*
X167563D01*
G01X171193Y245693D02*
Y241933D01*
G01Y251693D02*
X177333D01*
X177433Y251793D01*
G01X171563Y261063D02*
Y255263D01*
X171193Y254893D01*
Y251693D01*
G01X184433Y261193D02*
X181233D01*
X181103Y261063D01*
X176563D01*
G01X166433Y301293D02*
Y305063D01*
G01X159933Y301293D02*
Y305063D01*
G01X171193Y362193D02*
X167193D01*
G01X176563Y377063D02*
X181103D01*
X181233Y377193D01*
X184433D01*
G01X163933Y416293D02*
Y420063D01*
G01X157433Y416293D02*
Y420063D01*
G01X173713Y449793D02*
Y466142D01*
G01X158713Y449793D02*
Y466142D01*
G01X182413Y94193D02*
X178563D01*
G01X197413D02*
X193563D01*
G01X188413D02*
Y77165D01*
G01Y101693D02*
Y94193D01*
G01X182213Y101693D02*
X178513D01*
G01X197213D02*
X193513D01*
G01X188413Y109193D02*
Y101693D01*
G01X177933Y141833D02*
X180793D01*
X182563Y140063D01*
G01X190563Y158063D02*
X192563D01*
X194563Y160063D01*
G01X190563Y164563D02*
Y168563D01*
G01X184563Y158063D02*
Y164563D01*
G01D02*
Y168563D01*
G01X178933Y213033D02*
Y217063D01*
G01X177433Y245593D02*
X182363D01*
G01X190433Y267193D02*
X194433D01*
G01X190433Y261193D02*
X194433D01*
G01X184433D02*
Y267193D01*
G01D02*
Y271433D01*
G01X177433Y362093D02*
X183107D01*
G01X190433Y377193D02*
Y373563D01*
G01X184433Y377193D02*
Y383193D01*
G01X190433D02*
Y387063D01*
G01X184433Y383193D02*
Y387063D01*
G01X188713Y449793D02*
Y466142D01*
G01X212413Y94193D02*
X208563D01*
G01X203413D02*
Y77165D01*
G01Y101693D02*
Y94193D01*
G01X212213Y101693D02*
X208513D01*
G01X203413Y109193D02*
Y101693D01*
G01X203713Y449793D02*
Y466142D01*
G01X227413Y94193D02*
X223563D01*
G01X218413D02*
Y77165D01*
G01Y101693D02*
Y94193D01*
G01X233413D02*
Y77165D01*
G01Y101693D02*
Y94193D01*
G01X227213Y101693D02*
X223513D01*
G01X218413Y109193D02*
Y101693D01*
G01X233413Y109193D02*
Y101693D01*
G01X229693Y237693D02*
X225693D01*
G01X229693Y231193D02*
X225693D01*
G01X235693D02*
Y237693D01*
G01D02*
Y241063D01*
X234543Y242213D01*
Y243693D01*
G01X230843D02*
X228043D01*
G01X230843Y248693D02*
X228043D01*
G01X230843Y253693D02*
X228043D01*
G01X234543Y243693D02*
Y248693D01*
G01Y253693D02*
Y248693D01*
G01X228063Y275362D02*
X233543D01*
G01X240843Y297933D02*
X238043D01*
G01X241193Y292193D02*
X238933D01*
X237563Y293563D01*
G01X239843Y284024D02*
Y285783D01*
X237063Y288563D01*
G01X233713Y449793D02*
Y466142D01*
G01X218713Y449793D02*
Y466142D01*
G01X257413Y94193D02*
X253563D01*
G01X242413D02*
X238563D01*
G01X248413D02*
Y77165D01*
G01Y101693D02*
Y94193D01*
G01X257213Y101693D02*
X253513D01*
G01X242213D02*
X238513D01*
G01X248413Y109193D02*
Y101693D01*
G01X239433Y260693D02*
Y257063D01*
G01X242463Y243063D02*
X238563D01*
G01X245933Y260493D02*
Y256563D01*
G01X242593Y249693D02*
X238693D01*
G01X246693Y272843D02*
X249593D01*
G01X246693Y286543D02*
X246083D01*
X244063Y288563D01*
G01X249563Y288966D02*
X247193Y291336D01*
Y292193D01*
G01X249693Y309933D02*
X246193D01*
G01X242693Y307543D02*
Y310433D01*
G01X249693Y303933D02*
X247693D01*
X246063Y305563D01*
G01X258693Y332693D02*
Y336093D01*
G01Y326693D02*
X254933D01*
G01X258693D02*
X260933D01*
X261063Y326563D01*
X264563D01*
G01X248713Y449793D02*
Y466142D01*
G01X272413Y94193D02*
X268563D01*
G01X263413D02*
Y77165D01*
G01Y101693D02*
Y94193D01*
G01X278413D02*
Y77165D01*
G01Y101693D02*
Y94193D01*
G01X272213Y101693D02*
X268513D01*
G01X263413Y109193D02*
Y101693D01*
G01X278413Y109193D02*
Y101693D01*
G01X267063Y238563D02*
Y235063D01*
G01X261193Y238563D02*
Y235063D01*
G01Y244563D02*
X267063D01*
G01X261193D02*
Y248063D01*
G01X264563Y332563D02*
Y336063D01*
G01X275193Y356793D02*
Y360563D01*
G01X268693Y356793D02*
Y360563D01*
G01X278713Y449793D02*
Y466142D01*
G01X263713Y449793D02*
Y466142D01*
G01X287413Y94193D02*
X283563D01*
G01X302413D02*
X298563D01*
G01X293413D02*
Y77165D01*
G01Y101693D02*
Y94193D01*
G01X287213Y101693D02*
X283513D01*
G01X302213D02*
X298513D01*
G01X293413Y109193D02*
Y101693D01*
G01X293713Y449793D02*
Y466142D01*
G01X308413Y94193D02*
Y77165D01*
G01Y101693D02*
Y94193D01*
G01Y109193D02*
Y101693D01*
G01X313193Y239193D02*
Y235193D01*
G01X319193Y239193D02*
Y235193D01*
G01Y245193D02*
X313193D01*
G01X319193D02*
Y248933D01*
G01X315389Y342793D02*
Y346737D01*
G01X308713Y449793D02*
Y466142D01*
G01X327413Y94193D02*
X323563D01*
G01X342413D02*
X338563D01*
G01X333413D02*
Y77165D01*
G01Y101693D02*
Y94193D01*
G01X327213Y101693D02*
X323513D01*
G01X342213D02*
X338513D01*
G01X333413Y109193D02*
Y101693D01*
G01X337193Y314693D02*
X340593D01*
G01X337193Y320693D02*
X340593D01*
G01X331193Y314693D02*
Y320693D01*
G01D02*
X327693D01*
G01X333713Y449793D02*
Y466142D01*
G01X357413Y94193D02*
X353563D01*
G01X348413D02*
Y77165D01*
G01Y101693D02*
Y94193D01*
G01X357213Y101693D02*
X353513D01*
G01X348413Y109193D02*
Y101693D01*
G01X347293Y270985D02*
X351485D01*
G01X349793Y308193D02*
Y312333D01*
G01X348713Y449793D02*
Y466142D01*
G01X372413Y94193D02*
X368563D01*
G01X378413D02*
Y77165D01*
G01Y101693D02*
Y94193D01*
G01X363413D02*
Y77165D01*
G01Y101693D02*
Y94193D01*
G01X372213Y101693D02*
X368513D01*
G01X378413Y109193D02*
Y101693D01*
G01X363413Y109193D02*
Y101693D01*
G01X363713Y449793D02*
Y466142D01*
G01X378713Y449793D02*
Y466142D01*
G01X387413Y94193D02*
X383563D01*
G01X402413D02*
X398563D01*
G01X393413D02*
Y77165D01*
G01Y101693D02*
Y94193D01*
G01X387213Y101693D02*
X383513D01*
G01X402213D02*
X398513D01*
G01X393413Y109193D02*
Y101693D01*
G01X393713Y449793D02*
Y466142D01*
G01X417413Y94193D02*
X413563D01*
G01X408413D02*
Y77165D01*
G01Y101693D02*
Y94193D01*
G01X417213Y101693D02*
X413513D01*
G01X408413Y109193D02*
Y101693D01*
G01X426193Y232693D02*
X422433D01*
G01X415750Y358433D02*
X412350D01*
G01X415750Y373433D02*
X412350D01*
G01X415750Y365933D02*
X412350D01*
G01X408713Y449793D02*
Y466142D01*
G01X432413Y94193D02*
X428563D01*
G01X423413D02*
Y77165D01*
G01Y101693D02*
Y94193D01*
G01X438413D02*
Y77165D01*
G01Y101693D02*
Y94193D01*
G01X432213Y101693D02*
X428513D01*
G01X423413Y109193D02*
Y101693D01*
G01X438413Y109193D02*
Y101693D01*
G01X434193Y206693D02*
X437933D01*
G01X433693Y232693D02*
X429933D01*
G01X434678Y341063D02*
X430677D01*
G01X425880Y330463D02*
X430463D01*
G01X425880Y336663D02*
Y342963D01*
G01X434678Y337323D02*
X429753D01*
X429094Y336663D01*
X425880D01*
G01X434678Y344803D02*
Y347612D01*
X438030Y350963D01*
Y351063D01*
G01X438713Y449793D02*
Y466142D01*
G01X423713Y449793D02*
Y466142D01*
G01X462413Y94193D02*
X458563D01*
G01X447413D02*
X443563D01*
G01X453413D02*
Y77165D01*
G01Y101693D02*
Y94193D01*
G01X462213Y101693D02*
X458513D01*
G01X447213D02*
X443513D01*
G01X453413Y109193D02*
Y101693D01*
G01X460496Y254063D02*
X456496D01*
G01X460496Y248063D02*
X456496D01*
G01X453880Y318063D02*
X450063D01*
G01X463250Y318433D02*
Y314063D01*
G01X453880Y330463D02*
Y324063D01*
G01X445081Y337323D02*
Y334522D01*
X449140Y330463D01*
X453880D01*
G01X453713Y449793D02*
Y466142D01*
G01X477413Y94193D02*
X473563D01*
G01X483413D02*
Y77165D01*
G01Y101693D02*
Y94193D01*
G01X468413D02*
Y77165D01*
G01Y101693D02*
Y94193D01*
G01X477213Y101693D02*
X473513D01*
G01X483413Y109193D02*
Y101693D01*
G01X468413Y109193D02*
Y101693D01*
G01X466563Y235063D02*
X472563D01*
G01X466563Y240063D02*
X466563Y247996D01*
X466496Y248063D01*
G01D02*
Y254063D01*
G01D02*
X469996D01*
G01X480250Y318433D02*
Y314063D01*
G01X471750Y318433D02*
Y314063D01*
G01X471522Y366013D02*
X473572Y368063D01*
X475563D01*
G01Y364063D02*
X473472D01*
X471522Y366013D01*
G01X468713Y449793D02*
Y466142D01*
G01X483713Y449793D02*
Y466142D01*
G01X492413Y94193D02*
X488563D01*
G01X498413D02*
Y77165D01*
G01Y101693D02*
Y94193D01*
G01X492213Y101693D02*
X488513D01*
G01X498413Y109193D02*
Y101693D01*
G01X498713Y449793D02*
Y466142D01*
M02*
